<svg xmlns="http://www.w3.org/2000/svg" viewBox="0 0 46.34 46.34"><defs><style>.cls-1{fill:#cacaca;}</style></defs><title>aAsset 11x</title><g id="Layer_2" data-name="Layer 2"><g id="Layer_1-2" data-name="Layer 1"><path class="cls-1" d="M36.67,0h-27A9.68,9.68,0,0,0,0,9.68v27a9.67,9.67,0,0,0,9.68,9.67h27a9.67,9.67,0,0,0,9.67-9.67v-27A9.67,9.67,0,0,0,36.67,0Zm6.84,36.56A7.55,7.55,0,0,1,36,44.11H10.38a7.55,7.55,0,0,1-7.55-7.55V9.78a7.55,7.55,0,0,1,7.55-7.55H36a7.55,7.55,0,0,1,7.55,7.55Z"/><path class="cls-1" d="M16,25.2h3.09V39.11h6.07V25.2h4.36a1,1,0,0,0,.95-.82l.6-4.15a1,1,0,0,0-1-1.1h-5V15.62a2.92,2.92,0,0,1,2.92-2.92h2.14a1,1,0,0,0,1-1V8.25a1,1,0,0,0-1-1H26.74a7.62,7.62,0,0,0-7.62,7.62v4.28H16a1,1,0,0,0-1,1v4.15A1,1,0,0,0,16,25.2Z"/></g></g></svg>