<svg xmlns="http://www.w3.org/2000/svg" viewBox="0 0 46.37 46.27"><defs><style>.cls-1{fill:#cacaca;}</style></defs><title>aAsset 41x</title><g id="Layer_2" data-name="Layer 2"><g id="Layer_1-2" data-name="Layer 1"><path class="cls-1" d="M36.28,0H10.09A10.12,10.12,0,0,0,0,10.14v26A10.12,10.12,0,0,0,10.09,46.27H36.28A10.12,10.12,0,0,0,46.37,36.13v-26A10.12,10.12,0,0,0,36.28,0ZM40,30.75a9.84,9.84,0,0,1-9.81,9.81H16.07a9.83,9.83,0,0,1-9.81-9.81v-15a9.83,9.83,0,0,1,9.81-9.8H30.16A9.84,9.84,0,0,1,40,15.73Z"/><circle class="cls-1" cx="23.12" cy="23.12" r="6.08" transform="translate(-4.69 5.93) rotate(-13.28)"/><path class="cls-1" d="M35.25,10.64a7.12,7.12,0,0,0-5.09-2.12H16.07a7.24,7.24,0,0,0-7.22,7.21v15A7.24,7.24,0,0,0,16.07,38H30.16a7.26,7.26,0,0,0,7.22-7.22v-15A7.17,7.17,0,0,0,35.25,10.64ZM23.17,32.39a9.28,9.28,0,1,1,9.28-9.28A9.28,9.28,0,0,1,23.17,32.39ZM32.6,15.88a2.2,2.2,0,1,1,2.19-2.2A2.19,2.19,0,0,1,32.6,15.88Z"/></g></g></svg>