<svg xmlns="http://www.w3.org/2000/svg" viewBox="0 0 46.37 46.27"><defs><style>.cls-1{fill:#cacaca;}</style></defs><title>aAsset 61x</title><g id="Layer_2" data-name="Layer 2"><g id="Layer_1-2" data-name="Layer 1"><path class="cls-1" d="M14.79,12.16a2.65,2.65,0,0,0,.06,5.3,2.65,2.65,0,1,0-.06-5.3Z"/><path class="cls-1" d="M27.29,19.1a12.72,12.72,0,0,0-3.07,1.52,1.27,1.27,0,0,1,0-.3c.14-.89-.26-1.15-1.1-1.08a18.06,18.06,0,0,1-2.44,0c-.68,0-.89.21-.89.89,0,4.29,0,8.58,0,12.87,0,.22,0,.44.07.79,1.31,0,2.51,0,3.71,0,.66,0,.83-.24.83-.86,0-2.21,0-4.42,0-6.63a6.69,6.69,0,0,1,.19-1.54A2.11,2.11,0,0,1,27,23.05c1.25,0,1.8.43,2.09,1.72a6.28,6.28,0,0,1,.14,1.44c0,2.25,0,4.49,0,6.73,0,.29.31.8.5.81,1.32.07,2.65,0,4,0a1.46,1.46,0,0,0,.12-.37c0-3.19.13-6.38-.06-9.56C33.54,20.52,31.5,18.3,27.29,19.1Z"/><path class="cls-1" d="M16.36,19.25c-.85,0-1.69,0-2.53,0-1.35,0-1.37,0-1.37,1.33q0,6,0,12c0,.38.06.76.1,1.22,1.4,0,2.73,0,4.05,0,.2,0,.53-.45.53-.69,0-4.35,0-8.7,0-13C17.18,19.41,16.92,19.23,16.36,19.25Z"/><path class="cls-1" d="M36.28,0H10.09A10.12,10.12,0,0,0,0,10.14v26A10.12,10.12,0,0,0,10.09,46.27H36.28A10.12,10.12,0,0,0,46.37,36.13v-26A10.12,10.12,0,0,0,36.28,0Zm-.49,38.05q-12.67,0-25.35,0a2,2,0,0,1-2.23-2.35q0-12.52,0-25.06C8.21,9,9,8.21,10.65,8.21H35.72a2.14,2.14,0,0,1,2.44,2.45v25A2.11,2.11,0,0,1,35.79,38.05Z"/></g></g></svg>