<svg xmlns="http://www.w3.org/2000/svg" viewBox="0 0 46.37 46.27"><defs><style>.cls-1{fill:#cacaca;}</style></defs><title>aAsset 51x</title><g id="Layer_2" data-name="Layer 2"><g id="Layer_1-2" data-name="Layer 1"><path class="cls-1" d="M36.28,0H10.09A10.12,10.12,0,0,0,0,10.14v26A10.12,10.12,0,0,0,10.09,46.27H36.28A10.12,10.12,0,0,0,46.37,36.13v-26A10.12,10.12,0,0,0,36.28,0Zm1.46,14.59a12.31,12.31,0,0,1-2.33,2.23.26.26,0,0,0-.11.27,17.56,17.56,0,0,1-.23,3.47,18.56,18.56,0,0,1-1,3.56,19.06,19.06,0,0,1-1.74,3.43,17.88,17.88,0,0,1-2.12,2.7,16.84,16.84,0,0,1-7.78,4.64,18.64,18.64,0,0,1-3.56.59,18.3,18.3,0,0,1-3.31,0A16.81,16.81,0,0,1,10.27,34c-.7-.32-1.37-.71-2-1.07L8,32.77a12.51,12.51,0,0,0,9.13-2.61,6.57,6.57,0,0,1-3.55-1.25,6.3,6.3,0,0,1-2.23-3.09,6,6,0,0,0,2.74-.13,6.45,6.45,0,0,1-3.55-2.22,6.17,6.17,0,0,1-1.4-4,6.12,6.12,0,0,0,2.76.74,6.35,6.35,0,0,1-2.69-5.56,5.55,5.55,0,0,1,.86-2.77.64.64,0,0,0,.08.14,17.76,17.76,0,0,0,6,4.68A17.46,17.46,0,0,0,22,18.37c.25,0,.51.05.77.06s.22,0,.18-.21a6.22,6.22,0,0,1,0-2.47,6.26,6.26,0,0,1,10.54-3.16.36.36,0,0,0,.35.11,12.83,12.83,0,0,0,3.63-1.4l.08,0a5.41,5.41,0,0,1-1,1.92,7,7,0,0,1-1.61,1.45,7.39,7.39,0,0,0,1.75-.31c.57-.17,1.13-.37,1.72-.56C38.15,14,38,14.32,37.74,14.59Z"/></g></g></svg>