<svg id="Layer_1" data-name="Layer 1" xmlns="http://www.w3.org/2000/svg" viewBox="0 0 214.01 65.44"><defs><style>.cls-1{fill:#fff;}.cls-2,.cls-3{fill:#4d4d4d;}.cls-3{font-size:14.52px;font-family:Montserrat-SemiBold, Montserrat SemiBold;}.cls-4{letter-spacing:0em;}.cls-5{letter-spacing:-0.01em;}.cls-6{letter-spacing:-0.01em;}.cls-7{letter-spacing:0em;}.cls-8{font-family:Montserrat-Medium, Montserrat Medium;}.cls-9{letter-spacing:-0.01em;}.cls-10{letter-spacing:-0.01em;}</style></defs><title>Artboard 32</title><path class="cls-1" d="M38.3,41.7a1.47,1.47,0,1,0-1.47,1.47A1.47,1.47,0,0,0,38.3,41.7Z"/><polygon class="cls-1" points="12.88 46.07 26.24 46.07 40.88 31.43 40.88 18.08 12.88 18.08 12.88 46.07"/><path class="cls-2" d="M11.17,16.37V47.79H42.59V16.37ZM35.36,41.7a1.47,1.47,0,1,1,1.47,1.47A1.47,1.47,0,0,1,35.36,41.7Zm5.52-10.27L26.24,46.07H12.88v-28h28Z"/><text class="cls-3" transform="translate(49.55 28.59)">BIJE<tspan class="cls-4" x="33.07" y="0">L</tspan><tspan x="41.84" y="0">A POD</tspan><tspan class="cls-5" x="91.49" y="0">L</tspan><tspan class="cls-6" x="100" y="0">O</tspan><tspan class="cls-7" x="112.11" y="0">ŽNA</tspan><tspan class="cls-8"><tspan class="cls-9" x="0" y="17.43">W</tspan><tspan x="16.13" y="17.43">HITE UNDER</tspan><tspan class="cls-10" x="110.15" y="17.43">P</tspan><tspan x="120.49" y="17.43">RINT</tspan></tspan></text></svg>