<svg id="Layer_1" data-name="Layer 1" xmlns="http://www.w3.org/2000/svg" viewBox="0 0 214.01 65.44"><defs><style>@import url("https://fonts.googleapis.com/css?family=Montserrat:800");.cls-1,.cls-2{fill:#4d4d4d;}.cls-2{font-size:14.52px;font-family:Montserrat-SemiBold, Montserrat SemiBold;}.cls-3{letter-spacing:0em;}.cls-4{letter-spacing:0em;}.cls-5{font-family:Montserrat-Medium, Montserrat Medium;}.cls-6{letter-spacing:-0.04em;}</style></defs><title>Artboard 32 copy 2</title><path class="cls-1" d="M11.17,48.08H43.93V15.33H11.17ZM13,29.42l4,2.27L13,34Zm5.8,3.31,1.35.77.54.31,6.17,3.52.74.44,9.24-5.28.19-.11L41.55,35l-1.18.68-1,.58L37,37.57l-3.81,2.17-.54.31-1.35.77-1,.57L27.56,43l-3.29-1.88-.68-.39-1.31-.75-.94-.53-6-3.43-.95-.54L13.58,35l4.23-2.41.3-.18ZM37,31l-9.43,5.39L26.91,36,41,28.12l.51.28ZM26,35.5l-1-.59L39.08,27l1.06.6Zm-1.94-1.11-1-.59,14.08-7.91,1.05.6Zm-1.94-1.1-1-.59,14.06-7.93,1.05.6ZM20.2,32.18l-1-.59,14-7.93,1,.6Zm-1.94-1.11-1-.59,14-7.94,1.06.6ZM16.32,30l-1-.6,14-7.94,1.06.6Zm-1.94-1.11-.8-.46,14-7.94.81.46ZM42.14,46.3H13V36l4,2.27,1.21.69,9.42,5.39L37,38.94l1.21-.69,0,0a.41.41,0,0,0,.11-.07L42.14,36Zm0-12.37L38.2,31.69l3.94-2.26Zm0-16.81V27.36L27.56,19.09,13,27.38V17.12Z"/><text class="cls-2" transform="translate(49.55 28.86)">UV <tspan class="cls-3" x="26.05" y="0">L</tspan><tspan class="cls-4" x="34.82" y="0">AK</tspan><tspan class="cls-5"><tspan x="0" y="17.43">UV </tspan><tspan class="cls-6" x="25.73" y="17.43">V</tspan><tspan x="35.54" y="17.43">ARNISH</tspan></tspan></text></svg>