<svg xmlns="http://www.w3.org/2000/svg" viewBox="0 0 75.99 57.7"><defs><style>@import url("https://fonts.googleapis.com/css?family=Montserrat:800");.cls-1{isolation:isolate;}.cls-2{mix-blend-mode:multiply;}.cls-3,.cls-4,.cls-5,.cls-6,.cls-7,.cls-8,.cls-9{fill:none;stroke:#4d4d4d;stroke-miterlimit:10;stroke-width:2px;}.cls-4{stroke-dasharray:2.07 2.07;}.cls-5{stroke-dasharray:1.81 1.81;}.cls-6{stroke-dasharray:2.08 2.08;}.cls-7{stroke-dasharray:1.72 1.72;}.cls-8{stroke-dasharray:1.81 1.81;}.cls-9{stroke-dasharray:2.07 2.07;}</style></defs><title>arrow-dotted</title><g class="cls-1"><g id="Layer_1" data-name="Layer 1"><g class="cls-2"><polyline class="cls-3" points="65.12 29.47 65.9 28.85 65.12 28.23"/><line class="cls-4" x1="63.5" y1="26.93" x2="44.91" y2="12.05"/><polyline class="cls-3" points="44.1 11.41 43.32 10.78 43.32 11.78"/><line class="cls-5" x1="43.32" y1="13.59" x2="43.32" y2="19.93"/><polyline class="cls-3" points="43.32 20.83 43.32 21.83 42.32 21.83"/><polyline class="cls-6" points="40.24 21.83 36.7 21.83 34.39 21.83 30.07 21.83 27.77 21.83 23.45 21.83 21.14 21.83 16.82 21.83 14.4 21.83 12.13 21.83"/><polyline class="cls-3" points="11.08 21.83 10.08 21.83 10.08 22.83"/><line class="cls-7" x1="10.08" y1="24.55" x2="10.08" y2="34.01"/><polyline class="cls-3" points="10.08 34.87 10.08 35.87 11.08 35.87"/><polyline class="cls-6" points="13.17 35.87 14.4 35.87 16.82 35.87 21.14 35.87 23.45 35.87 27.77 35.87 30.07 35.87 34.39 35.87 36.7 35.87 41.02 35.87 41.28 35.87"/><polyline class="cls-3" points="42.32 35.87 43.32 35.87 43.32 36.87"/><line class="cls-8" x1="43.32" y1="38.68" x2="43.32" y2="45.01"/><polyline class="cls-3" points="43.32 45.92 43.32 46.92 44.1 46.29"/><line class="cls-9" x1="45.72" y1="45" x2="64.31" y2="30.12"/></g></g></g></svg>