<svg id="Layer_1" data-name="Layer 1" xmlns="http://www.w3.org/2000/svg" viewBox="0 0 113.39 113.39"><defs><style>.cls-1{fill:#e4e4e4;}</style></defs><title>Artboard 48 copy</title><path class="cls-1" d="M90.54,33.43A2.59,2.59,0,0,0,88.8,32.2L50,22.85a2.62,2.62,0,0,0-3,1.68L32.27,62.07l4.94,1.79,14-35.69,33.68,8.6c-2.1,6.52-7.11,20.13-11.9,32.8C68.8,80.63,66.4,84.42,61.82,85.19c0,0,0,0,0,0-9.35,1.31-9.18-10.61-9.18-10.61L22.76,62.5C20.64,76,31,79.18,31,79.18l21.86,9.93A17,17,0,0,0,60,90.57c10-.23,13.52-7.5,17.93-19.14,6.36-16.82,12.82-35.67,12.89-35.87A2.57,2.57,0,0,0,90.54,33.43Z"/><path class="cls-1" d="M72.87,48.57a2.42,2.42,0,0,0,.7.1,2.63,2.63,0,0,0,.69-5.16L62.88,40a2.62,2.62,0,1,0-1.38,5.06Z"/><path class="cls-1" d="M55.1,52.35a2.62,2.62,0,0,0,1.66,3.32l11.31,4a2.63,2.63,0,1,0,1.67-5l-11.32-4A2.62,2.62,0,0,0,55.1,52.35Z"/><path class="cls-1" d="M54.1,61.66a2.62,2.62,0,1,0-1.63,5l11.34,4a2.56,2.56,0,0,0,.82.13,2.62,2.62,0,0,0,.81-5.12Z"/><path class="cls-1" d="M53.68,36.94a2.83,2.83,0,1,1-2.91,2.83A2.86,2.86,0,0,1,53.68,36.94Z"/><path class="cls-1" d="M49.56,47.46a2.83,2.83,0,1,1-2.91,2.83A2.86,2.86,0,0,1,49.56,47.46Z"/><path class="cls-1" d="M45.17,58.31a2.84,2.84,0,1,1-2.91,2.84A2.87,2.87,0,0,1,45.17,58.31Z"/></svg>