<svg id="Layer_1" data-name="Layer 1" xmlns="http://www.w3.org/2000/svg" viewBox="0 0 75.99 57.7"><defs><style>.cls-1{fill:#4d4d4d;}</style></defs><title>Artboard 22 copy 3</title><path class="cls-1" d="M46.76,10.78a1.52,1.52,0,1,0,1.6,1.52A1.56,1.56,0,0,0,46.76,10.78Z"/><path class="cls-1" d="M46.76,14.92a1.52,1.52,0,1,0,1.6,1.51A1.56,1.56,0,0,0,46.76,14.92Z"/><path class="cls-1" d="M51.15,14.92a1.52,1.52,0,1,0,1.6,1.51A1.56,1.56,0,0,0,51.15,14.92Z"/><path class="cls-1" d="M46.76,19.06a1.52,1.52,0,1,0,1.6,1.51A1.56,1.56,0,0,0,46.76,19.06Z"/><path class="cls-1" d="M51.15,19.06a1.52,1.52,0,1,0,1.6,1.51A1.56,1.56,0,0,0,51.15,19.06Z"/><path class="cls-1" d="M46.76,23.2a1.52,1.52,0,1,0,1.6,1.51A1.56,1.56,0,0,0,46.76,23.2Z"/><path class="cls-1" d="M51.15,23.2a1.52,1.52,0,1,0,1.6,1.51A1.56,1.56,0,0,0,51.15,23.2Z"/><path class="cls-1" d="M46.76,27.34a1.51,1.51,0,1,0,1.6,1.51A1.56,1.56,0,0,0,46.76,27.34Z"/><path class="cls-1" d="M51.15,27.34a1.51,1.51,0,1,0,1.6,1.51A1.56,1.56,0,0,0,51.15,27.34Z"/><path class="cls-1" d="M46.76,31.47A1.52,1.52,0,1,0,48.36,33,1.56,1.56,0,0,0,46.76,31.47Z"/><path class="cls-1" d="M42.38,23.2A1.52,1.52,0,1,0,44,24.71,1.56,1.56,0,0,0,42.38,23.2Z"/><path class="cls-1" d="M42.38,27.34A1.51,1.51,0,1,0,44,28.85,1.56,1.56,0,0,0,42.38,27.34Z"/><path class="cls-1" d="M42.38,31.47A1.52,1.52,0,1,0,44,33,1.57,1.57,0,0,0,42.38,31.47Z"/><path class="cls-1" d="M38,23.2a1.52,1.52,0,1,0,1.61,1.51A1.56,1.56,0,0,0,38,23.2Z"/><path class="cls-1" d="M38,27.34a1.51,1.51,0,1,0,1.61,1.51A1.56,1.56,0,0,0,38,27.34Z"/><path class="cls-1" d="M38,31.47A1.52,1.52,0,1,0,39.6,33,1.56,1.56,0,0,0,38,31.47Z"/><path class="cls-1" d="M33.61,23.2a1.52,1.52,0,1,0,1.6,1.51A1.56,1.56,0,0,0,33.61,23.2Z"/><ellipse class="cls-1" cx="33.61" cy="28.85" rx="1.6" ry="1.51"/><path class="cls-1" d="M33.61,31.47A1.52,1.52,0,1,0,35.21,33,1.57,1.57,0,0,0,33.61,31.47Z"/><path class="cls-1" d="M29.22,23.2a1.52,1.52,0,1,0,1.61,1.51A1.56,1.56,0,0,0,29.22,23.2Z"/><ellipse class="cls-1" cx="29.22" cy="28.85" rx="1.6" ry="1.51"/><path class="cls-1" d="M29.22,31.47A1.52,1.52,0,1,0,30.83,33,1.56,1.56,0,0,0,29.22,31.47Z"/><path class="cls-1" d="M24.84,23.2a1.52,1.52,0,1,0,1.6,1.51A1.56,1.56,0,0,0,24.84,23.2Z"/><path class="cls-1" d="M24.84,27.34a1.51,1.51,0,1,0,1.6,1.51A1.55,1.55,0,0,0,24.84,27.34Z"/><path class="cls-1" d="M24.84,31.47A1.52,1.52,0,1,0,26.44,33,1.56,1.56,0,0,0,24.84,31.47Z"/><path class="cls-1" d="M20.46,23.2a1.52,1.52,0,1,0,1.6,1.51A1.56,1.56,0,0,0,20.46,23.2Z"/><path class="cls-1" d="M20.46,27.34a1.51,1.51,0,1,0,1.6,1.51A1.56,1.56,0,0,0,20.46,27.34Z"/><path class="cls-1" d="M20.46,31.47A1.52,1.52,0,1,0,22.06,33,1.57,1.57,0,0,0,20.46,31.47Z"/><path class="cls-1" d="M16.07,23.2a1.52,1.52,0,1,0,1.61,1.51A1.56,1.56,0,0,0,16.07,23.2Z"/><path class="cls-1" d="M16.07,27.34a1.51,1.51,0,1,0,1.61,1.51A1.56,1.56,0,0,0,16.07,27.34Z"/><path class="cls-1" d="M16.07,31.47A1.52,1.52,0,1,0,17.68,33,1.56,1.56,0,0,0,16.07,31.47Z"/><path class="cls-1" d="M11.69,23.2a1.52,1.52,0,1,0,1.6,1.51A1.56,1.56,0,0,0,11.69,23.2Z"/><path class="cls-1" d="M11.69,27.34a1.51,1.51,0,1,0,1.6,1.51A1.56,1.56,0,0,0,11.69,27.34Z"/><path class="cls-1" d="M11.69,31.47A1.52,1.52,0,1,0,13.29,33,1.57,1.57,0,0,0,11.69,31.47Z"/><path class="cls-1" d="M51.15,31.47A1.52,1.52,0,1,0,52.75,33,1.57,1.57,0,0,0,51.15,31.47Z"/><path class="cls-1" d="M46.76,35.61a1.52,1.52,0,1,0,1.6,1.52A1.56,1.56,0,0,0,46.76,35.61Z"/><path class="cls-1" d="M51.15,35.61a1.52,1.52,0,1,0,1.6,1.52A1.57,1.57,0,0,0,51.15,35.61Z"/><path class="cls-1" d="M46.76,39.75a1.52,1.52,0,1,0,1.6,1.52A1.56,1.56,0,0,0,46.76,39.75Z"/><path class="cls-1" d="M51.15,39.75a1.52,1.52,0,1,0,1.6,1.52A1.57,1.57,0,0,0,51.15,39.75Z"/><path class="cls-1" d="M46.76,43.89a1.52,1.52,0,1,0,1.6,1.51A1.56,1.56,0,0,0,46.76,43.89Z"/><path class="cls-1" d="M55.53,19.06a1.52,1.52,0,1,0,1.6,1.51A1.56,1.56,0,0,0,55.53,19.06Z"/><path class="cls-1" d="M55.53,23.2a1.52,1.52,0,1,0,1.6,1.51A1.56,1.56,0,0,0,55.53,23.2Z"/><path class="cls-1" d="M55.53,27.34a1.51,1.51,0,1,0,1.6,1.51A1.55,1.55,0,0,0,55.53,27.34Z"/><path class="cls-1" d="M55.53,31.47A1.52,1.52,0,1,0,57.13,33,1.56,1.56,0,0,0,55.53,31.47Z"/><path class="cls-1" d="M55.53,35.61a1.52,1.52,0,1,0,1.6,1.52A1.56,1.56,0,0,0,55.53,35.61Z"/><path class="cls-1" d="M59.91,23.2a1.52,1.52,0,1,0,1.61,1.51A1.56,1.56,0,0,0,59.91,23.2Z"/><ellipse class="cls-1" cx="59.91" cy="28.85" rx="1.6" ry="1.51"/><path class="cls-1" d="M59.91,31.47A1.52,1.52,0,1,0,61.52,33,1.56,1.56,0,0,0,59.91,31.47Z"/><ellipse class="cls-1" cx="64.3" cy="28.85" rx="1.6" ry="1.51"/></svg>