<svg id="Layer_1" data-name="Layer 1" xmlns="http://www.w3.org/2000/svg" viewBox="0 0 164.35 164.35"><defs><style>@import url("https://fonts.googleapis.com/css?family=Montserrat:800");.cls-1,.cls-2{fill:#4d4d4d;}.cls-2{font-size:15.91px;font-family:'Montserrat';font-weight: 800;}</style></defs><title>Artboard 3 copy 3</title><path class="cls-1" d="M72.75,103.6H53.4a4.28,4.28,0,0,1-4.27-4.27V67.86a4.28,4.28,0,0,1,4.27-4.27A.58.58,0,0,0,54,63V61.17c0-.16-.48-1-2.85-2a3.39,3.39,0,0,1-2-3.09V52.83a9.87,9.87,0,0,1,6.06-9.09v-8a1.22,1.22,0,0,1,1.22-1.21H69.74A1.21,1.21,0,0,1,71,35.71v8A9.86,9.86,0,0,1,77,52.83v3.23a3.37,3.37,0,0,1-2,3.09c-2.36,1-2.84,1.86-2.84,2V63a.58.58,0,0,0,.58.58A4.27,4.27,0,0,1,77,67.86V99.33A4.27,4.27,0,0,1,72.75,103.6ZM59,45.41a7.43,7.43,0,0,0-7.42,7.42v3.23a1,1,0,0,0,.55.87c2.85,1.25,4.3,2.68,4.3,4.24V63a3,3,0,0,1-3,3,1.84,1.84,0,0,0-1.84,1.84V99.33a1.84,1.84,0,0,0,1.84,1.84H72.75a1.84,1.84,0,0,0,1.84-1.84V67.86A1.84,1.84,0,0,0,72.75,66a3,3,0,0,1-3-3V61.17c0-1.56,1.45-3,4.3-4.24a1,1,0,0,0,.55-.87V52.83a7.43,7.43,0,0,0-7.42-7.42,1.21,1.21,0,1,1,0-2.42h1.36V36.92H57.62V43H59a1.21,1.21,0,1,1,0,2.42Z"/><path class="cls-1" d="M69.74,36.92H56.41a1.22,1.22,0,0,1-1.22-1.21V29.65a1.22,1.22,0,0,1,1.22-1.21H69.74A1.21,1.21,0,0,1,71,29.65v6.06A1.21,1.21,0,0,1,69.74,36.92ZM57.62,34.5H68.53V30.86H57.62Z"/><path class="cls-1" d="M62.47,96.32H50.35a1.21,1.21,0,1,1,0-2.42H62.47a1.21,1.21,0,1,1,0,2.42Z"/><path class="cls-1" d="M69.74,96.32H67.32a1.21,1.21,0,1,1,0-2.42h2.42a1.21,1.21,0,1,1,0,2.42Z"/><path class="cls-1" d="M62.47,70.87H50.35a1.22,1.22,0,1,1,0-2.43H62.47a1.22,1.22,0,0,1,0,2.43Z"/><path class="cls-1" d="M69.74,70.87H67.32a1.22,1.22,0,1,1,0-2.43h2.42a1.22,1.22,0,0,1,0,2.43Z"/><path class="cls-1" d="M109,60.38H99.78V57.29h3.09V54.21H96.69v-3.3H93.61v3.3H87.43v3.08h3.09v3.09H84.35v6.44a4.63,4.63,0,0,0-3.09,4.36v3.73l.45.45a2.82,2.82,0,0,1,0,4l-.45.46V90.35l.45.45a2.82,2.82,0,0,1,0,4l-.45.45V99a4.64,4.64,0,0,0,4.63,4.63h18.52A4.64,4.64,0,0,0,109,99V95.24l-.45-.45a2.82,2.82,0,0,1,0-4l.45-.45V79.81l-.45-.46a2.82,2.82,0,0,1,0-4l.45-.45V72.73a6.18,6.18,0,0,0,0-12.35ZM93.61,57.29h3.08v3.09H93.61Zm9.26,6.18v3.08H87.43V63.47ZM106,99a1.54,1.54,0,0,1-1.54,1.54H85.89A1.54,1.54,0,0,1,84.35,99V96.46a6,6,0,0,0,1.07-2.12h19.46A6,6,0,0,0,106,96.46Zm0-9.85a5.94,5.94,0,0,0-1.07,2.13H85.42a5.94,5.94,0,0,0-1.07-2.13V81a5.94,5.94,0,0,0,1.07-2.13h19.46A5.94,5.94,0,0,0,106,81Zm0-15.43a5.94,5.94,0,0,0-1.07,2.13H85.42a5.94,5.94,0,0,0-1.07-2.13V71.18a1.54,1.54,0,0,1,1.54-1.54h18.52A1.54,1.54,0,0,1,106,71.18Zm3.09-4h-.26A4.68,4.68,0,0,0,106,66.82V63.47H109a3.09,3.09,0,1,1,0,6.17Z"/><text class="cls-2" transform="translate(58.01 131.61)">BOCE</text></svg>