<svg id="Layer_1" data-name="Layer 1" xmlns="http://www.w3.org/2000/svg" viewBox="0 0 113.39 113.39"><defs><style>@import url("https://fonts.googleapis.com/css?family=Montserrat:800");.cls-1{fill:#e4e4e4;fill-rule:evenodd;}</style></defs><title>Artboard 48 copy 2</title><path class="cls-1" d="M19.35,69.47A34.93,34.93,0,0,1,17,56.71C17,49.26,21.4,19.24,56.72,17c0,0-36.69,6.36-31.65,39.69,0,0,4,13.49,0,15.12S19.35,69.47,19.35,69.47Z"/><path class="cls-1" d="M86.38,82.76a35,35,0,0,1-9.9,8.38c-6.45,3.72-34.63,15-54.21-14.53,0,0,23.86,28.59,50.2,7.57,0,0,9.71-10.18,13.1-7.57S86.38,82.76,86.38,82.76Z"/><path class="cls-1" d="M64.33,18a34.86,34.86,0,0,1,12.2,4.38C83,26.1,106.81,44.89,91.06,76.59c0,0,12.84-35-18.54-47.26,0,0-13.67-3.32-13.11-7.56S64.33,18,64.33,18Z"/><path class="cls-1" d="M31.85,67.77l5.84-14.56s4.81.57,10.35,5.42c0,0,2.1,1.45,6.71,7.68a3.61,3.61,0,0,0,2-1.23A34.85,34.85,0,0,1,60.66,62s5.11-3.5,6.7-4.29c0,0,8.17-4.42,11.89-5.19L72.87,67.73Z"/><path class="cls-1" d="M39.43,49.16s1.11-3,1.11-3H81.76l-1.64,4.59s-7.7.42-11.6,2.38A32.1,32.1,0,0,0,60.71,58a51.29,51.29,0,0,0-5.49,5.63,13.51,13.51,0,0,0-2.48-4.84,16.71,16.71,0,0,0-4.17-4.49S43,49.9,39.43,49.16Z"/></svg>