<svg id="Layer_1" data-name="Layer 1" xmlns="http://www.w3.org/2000/svg" viewBox="0 0 56.69 56.69"><defs><style>.cls-1{fill:#e3e3e3;fill-rule:evenodd;}</style></defs><title>Artboard 67 copy 2</title><path class="cls-1" d="M42.17.73H14.52A13.78,13.78,0,0,0,.73,14.52V42.17A13.78,13.78,0,0,0,14.52,56H42.17A13.78,13.78,0,0,0,56,42.17V14.52A13.78,13.78,0,0,0,42.17.73ZM17,36.08H5V20.61H16.69v2.88H8.56v3.35h7.18v2.79H8.56v3.58H17Zm17,0H31.07l-7.71-9.39v9.39H19.83V20.61h3L30.48,30V20.61H34Zm7-5.17a4.56,4.56,0,0,0,1.78,1.76,5.29,5.29,0,0,0,2.6.63,5.8,5.8,0,0,0,2.78-.67V28.1H51.4v6.28a9.47,9.47,0,0,1-2.91,1.46,11.66,11.66,0,0,1-3.34.5,9.08,9.08,0,0,1-4.33-1,7.75,7.75,0,0,1-3-2.85,8.33,8.33,0,0,1,0-8.24,7.53,7.53,0,0,1,3-2.85,9.15,9.15,0,0,1,4.37-1A9.66,9.66,0,0,1,48.9,21a7.31,7.31,0,0,1,2.79,2l-2.3,2.12a5.32,5.32,0,0,0-4-1.74,5.38,5.38,0,0,0-2.63.62A4.47,4.47,0,0,0,41,25.76a5.5,5.5,0,0,0,0,5.15Z"/></svg>