<svg id="Layer_1" data-name="Layer 1" xmlns="http://www.w3.org/2000/svg" viewBox="0 0 164.35 164.35"><defs><style>.cls-1,.cls-2{fill:#4d4d4d;}.cls-2{font-size:15.91px;@import url('https://fonts.googleapis.com/css?family=Montserrat:400,500,600,700,800');font-family:'Montserrat';font-weight: 800;}.cls-3{letter-spacing:-0.02em;}.cls-4{letter-spacing:-0.01em;}</style></defs><title>Artboard 3 copy 6</title><path class="cls-1" d="M104.15,28.44h-49V96.23h5v7.37l5-3.35,5,3.35V96.23h33.9a5,5,0,0,0,5-5V33.46A5,5,0,0,0,104.15,28.44ZM57.69,31H92.85V49.79H57.69ZM92.85,72.39H57.69V52.3H92.85ZM67.74,98.91l-2.51-1.68-2.52,1.68V96.23h5Zm2.51-5.19H57.69V74.9H92.85V93.72Zm25.11,0V31h3.76V93.72Zm6.27-41.42h5V72.39h-5Zm5,38.91a2.51,2.51,0,0,1-2.51,2.51h-2.52V74.9h5Zm-5-41.42V31h2.52a2.51,2.51,0,0,1,2.51,2.51V49.79Z"/><text class="cls-2" transform="translate(33.06 131.61)">RO<tspan class="cls-3" x="25.34" y="0">KO</tspan><tspan class="cls-4" x="50.21" y="0">V</tspan><tspan x="62.47" y="0">NICI</tspan></text></svg>