<svg id="Layer_1" data-name="Layer 1" xmlns="http://www.w3.org/2000/svg" viewBox="0 0 164.35 164.35"><defs><style>@import url("https://fonts.googleapis.com/css?family=Montserrat:800");.cls-1{font-size:15.91px;font-family:'Montserrat';font-weight: 800;}@import url("https://fonts.googleapis.com/css?family=Montserrat:800");.cls-1,.cls-5{fill:#4d4d4d;}.cls-2{letter-spacing:-0.01em;}.cls-3{letter-spacing:-0.01em;}.cls-4{letter-spacing:0em;}</style></defs><title>Artboard 3 copy 2</title><text class="cls-1" transform="translate(20.6 131.61)">TEHNO<tspan class="cls-2" x="60.18" y="0">L</tspan><tspan x="69.84" y="0">OGI</tspan><tspan class="cls-3" x="101.13" y="0">J</tspan><tspan class="cls-4" x="110.02" y="0">A</tspan></text><path class="cls-5" d="M98,28.44H66.36a5.47,5.47,0,0,0-5.47,5.47V98.13a5.47,5.47,0,0,0,5.47,5.47H98a5.46,5.46,0,0,0,5.47-5.47V33.91A5.46,5.46,0,0,0,98,28.44ZM74.37,31.76H90c.4,0,.72.59.72,1.32S90.38,34.4,90,34.4H74.37c-.4,0-.71-.59-.71-1.32S74,31.76,74.37,31.76Zm7.81,66.43a3.49,3.49,0,1,1,3.48-3.49A3.5,3.5,0,0,1,82.18,98.19Zm17.18-12H65V37.68H99.36Z"/></svg>