<svg id="Layer_1" data-name="Layer 1" xmlns="http://www.w3.org/2000/svg" viewBox="0 0 56.69 56.69"><defs><style>.cls-1{fill:#e4e4e4;fill-rule:evenodd;}</style></defs><title>Artboard 67</title><path class="cls-1" d="M24.34,12.74A11.58,11.58,0,1,0,35.88,24.35,11.64,11.64,0,0,0,24.34,12.74ZM17.37,26l-1.22.5c-1.88-2.85.57-8.67,4.37-10.32.21.36.43.74.68,1.19C18.35,19.59,16.45,22.13,17.37,26Z"/><path class="cls-1" d="M42.17.73H14.52A13.78,13.78,0,0,0,.73,14.52V42.17A13.78,13.78,0,0,0,14.52,56H42.17A13.78,13.78,0,0,0,56,42.17V14.52A13.78,13.78,0,0,0,42.17.73ZM8.42,24.3A15.89,15.89,0,1,1,24.25,40.2,15.95,15.95,0,0,1,8.42,24.3ZM47.64,46.48A7.34,7.34,0,0,1,45.94,48a1.48,1.48,0,0,1-2.06-.29c-2.89-3.07-5.79-6.13-8.64-9.14l3.51-3.37a5,5,0,0,1,.59.5l8.08,7.9C48.48,44.61,48.57,45.31,47.64,46.48Z"/></svg>