<svg id="Layer_1" data-name="Layer 1" xmlns="http://www.w3.org/2000/svg" viewBox="0 0 164.35 164.35"><defs><style>@import url("https://fonts.googleapis.com/css?family=Montserrat:800");.cls-1,.cls-2{fill:#4d4d4d;}.cls-2{font-size:15.91px;font-family:'Montserrat';font-weight: 800;}.cls-3{letter-spacing:-0.01em;}.cls-4{letter-spacing:0em;}.cls-5{letter-spacing:-0.01em;}</style></defs><title>Artboard 3</title><path class="cls-1" d="M66.58,101.85l19.26-19a3.43,3.43,0,0,0,.69-4L90,75.38l34.34-33.92a3.5,3.5,0,0,0,0-5L121,33.17a3.57,3.57,0,0,0-5,0L81.68,67.09l-26,25.65A2.24,2.24,0,0,0,55,94.4a2.27,2.27,0,0,0,.69,1.66l5,5a2.34,2.34,0,0,0,2.27.59l.24.23A2.37,2.37,0,0,0,66.58,101.85ZM84.2,81.15l-19.29,19-1.67-1.65,19.25-19a1.23,1.23,0,0,1,1.71,0A1.18,1.18,0,0,1,84.2,81.15ZM113.5,39l5,5-29.32,29-1.68-1.66L106,53a1.19,1.19,0,0,0,0-1.65,1.17,1.17,0,0,0-1.64,0L85.86,69.58l-1.68-1.65Zm5.87-4.12,3.35,3.31a1.16,1.16,0,0,1,0,1.64l-2.52,2.49-5-5,2.5-2.48A1.21,1.21,0,0,1,119.37,34.84Zm-62,59.57L82.51,69.57l5,5-2.67,2.63a3.59,3.59,0,0,0-4,.67l-19.26,19A2.29,2.29,0,0,0,61,98Z"/><path class="cls-1" d="M112.65,46.42a1.2,1.2,0,0,0,.37-1.16,1.18,1.18,0,0,0-2-.51l-2.51,2.48a1.17,1.17,0,0,0,1.64,1.67Z"/><path class="cls-1" d="M50.85,91.52a18,18,0,0,0,7.37-4.45l43.35-43.34a1.65,1.65,0,0,0,0-2.31l-.25-.24,3.47-3.43a4.89,4.89,0,0,0,0-7l-2-2a4.91,4.91,0,0,0-6.9,0l-3.45,3.44L91.16,31a8.16,8.16,0,0,0-11.57,0L66.53,44a1.63,1.63,0,0,0,0,2.31,1.65,1.65,0,0,0,2.31,0L81.9,33.25a4.89,4.89,0,0,1,6.81-.11L69.17,52.67,65.6,56.24l-2.3,2.31L46.5,75.35a17.92,17.92,0,0,0-4.45,7.37l-3,9.79a1.63,1.63,0,0,0,.41,1.64,1.61,1.61,0,0,0,1.63.41ZM100.46,31.1l2,2a1.63,1.63,0,0,1,0,2.33L99,38.87l-4.31-4.31,3.45-3.46A1.64,1.64,0,0,1,100.46,31.1ZM91,35.46l7.1,7.11L80.79,59.89l-7.11-7.11ZM71.37,55.09l7.11,7.11L75,65.66l-7.11-7.11ZM65.6,60.86,72.71,68,55.92,84.76l-.53.5-7.08-7.08c.16-.18.33-.36.5-.53ZM45.17,83.69a14.7,14.7,0,0,1,1.21-2.83l6.33,6.33a14.7,14.7,0,0,1-2.83,1.21l-6.83,2.12Z"/><text class="cls-2" transform="translate(17.55 131.62)"><tspan class="cls-3">P</tspan><tspan class="cls-4" x="11.66" y="0">IS</tspan><tspan class="cls-5" x="27.68" y="0">A</tspan><tspan x="40.34" y="0">ĆI </tspan><tspan class="cls-3" x="62.52" y="0">P</tspan><tspan x="74.18" y="0">RIBOR</tspan></text></svg>