<svg id="Layer_1" data-name="Layer 1" xmlns="http://www.w3.org/2000/svg" viewBox="0 0 56.69 56.69"><defs><style>.cls-1{fill:#e3e3e3;fill-rule:evenodd;}</style></defs><title>Artboard 67 copy</title><path class="cls-1" d="M42.17.73H14.52A13.78,13.78,0,0,0,.73,14.52V42.17A13.78,13.78,0,0,0,14.52,56H42.17A13.78,13.78,0,0,0,56,42.17V14.52A13.78,13.78,0,0,0,42.17.73ZM26.76,36.08H23.18V29.74h-7v6.34H12.57V20.61h3.58v6.1h7v-6.1h3.58Zm13.52,0-3-4.31H34v4.31H30.42V20.61h6.7a8.55,8.55,0,0,1,3.57.69A5.33,5.33,0,0,1,43,23.24a5.42,5.42,0,0,1,.82,3,5,5,0,0,1-3.19,4.88l3.47,5Z"/><path class="cls-1" d="M36.92,23.53H34v5.39h2.92a3.73,3.73,0,0,0,2.45-.71,2.44,2.44,0,0,0,.84-2,2.44,2.44,0,0,0-.84-2A3.73,3.73,0,0,0,36.92,23.53Z"/></svg>