<svg id="Layer_1" data-name="Layer 1" xmlns="http://www.w3.org/2000/svg" xmlns:xlink="http://www.w3.org/1999/xlink" viewBox="0 0 102.05 102.05"><defs><style>.cls-1{fill:none;stroke:#000;stroke-miterlimit:10;}.cls-2{clip-path:url(#clip-path);}.cls-3{fill:#f5f5f5;}.cls-4{fill:#41479b;}.cls-5{fill:#ff4b55;}.cls-6{fill:#4173cd;}.cls-7{fill:#ffe15a;}</style><clipPath id="clip-path"><rect class="cls-1" x="9.02" y="9.02" width="84" height="84" rx="11.5" ry="11.5"/></clipPath></defs><title>croatia</title><g class="cls-2"><rect class="cls-3" x="8.5" y="36.85" width="85.04" height="28.35"/><path class="cls-4" d="M-21.86,65.2H123.91v7.59a41,41,0,0,1-41,41H19.14a41,41,0,0,1-41-41Z"/><path class="cls-5" d="M114.12,22.37A27.61,27.61,0,0,0,86.51-5.21h-71a27.6,27.6,0,0,0-27.6,27.6V36.85H114.12Z"/><rect class="cls-5" x="35.36" y="37.6" width="6.27" height="7.16"/><rect class="cls-5" x="47.89" y="37.6" width="6.27" height="7.16"/><rect class="cls-5" x="41.62" y="44.76" width="6.27" height="7.16"/><rect class="cls-5" x="60.42" y="37.6" width="6.27" height="7.16"/><rect class="cls-5" x="54.16" y="44.76" width="6.27" height="7.16"/><rect class="cls-3" x="41.62" y="37.6" width="6.27" height="7.16"/><rect class="cls-3" x="54.16" y="37.6" width="6.27" height="7.16"/><rect class="cls-3" x="35.36" y="44.76" width="6.27" height="7.16"/><rect class="cls-3" x="47.89" y="44.76" width="6.27" height="7.16"/><rect class="cls-3" x="60.42" y="44.76" width="6.27" height="7.16"/><rect class="cls-5" x="47.89" y="51.92" width="6.27" height="7.16"/><rect class="cls-5" x="41.62" y="59.08" width="6.27" height="7.16"/><rect class="cls-5" x="54.16" y="59.08" width="6.27" height="7.16"/><rect class="cls-3" x="41.62" y="51.92" width="6.27" height="7.16"/><rect class="cls-3" x="54.16" y="51.92" width="6.27" height="7.16"/><rect class="cls-3" x="47.89" y="59.08" width="6.27" height="7.16"/><path class="cls-5" d="M66.69,37.6V57.74a15.67,15.67,0,0,1-31.33,0V37.6H66.69m1.12-1.12H34.24V57.74a16.79,16.79,0,0,0,33.57,0V36.48Z"/><path class="cls-5" d="M41.62,59.08V51.92H35.36v5.82c0,.45,0,.9.07,1.34Z"/><path class="cls-3" d="M66.62,59.08h-6.2v7.16h3.75A15.5,15.5,0,0,0,66.62,59.08Z"/><path class="cls-3" d="M37.88,66.24h3.74V59.08H35.43A15.5,15.5,0,0,0,37.88,66.24Z"/><path class="cls-5" d="M60.42,59.08h6.2c0-.44.07-.89.07-1.34V51.92H60.42Z"/><path class="cls-5" d="M41.62,70.25v-4H37.88A15.69,15.69,0,0,0,41.62,70.25Z"/><path class="cls-5" d="M64.17,66.24H60.42v4A15.9,15.9,0,0,0,64.17,66.24Z"/><path class="cls-3" d="M41.62,70.25a15.64,15.64,0,0,0,6.27,2.84V66.24H41.62Z"/><path class="cls-3" d="M54.16,73.09a15.54,15.54,0,0,0,6.26-2.84v-4H54.16Z"/><path class="cls-5" d="M54.16,66.24H47.89v6.85a16,16,0,0,0,6.27,0Z"/><path class="cls-6" d="M39.68,25.75c-1.36-.21-2.75-.37-4.18-.45-1.1.9-2.14,1.84-3.14,2.82l3,7.24a40.87,40.87,0,0,1,6.15-2Z"/><path class="cls-6" d="M54.83,24.56c-1.23-.62-2.5-1.19-3.81-1.72-1.31.53-2.57,1.1-3.8,1.72.2,2.6.41,5.2.61,7.81a40.1,40.1,0,0,1,6.39,0Q54.52,28.46,54.83,24.56Z"/><path class="cls-6" d="M69.69,28.12q-1.5-1.47-3.15-2.82c-1.42.08-2.81.24-4.18.45-.6,2.54-1.21,5.07-1.82,7.61a41.24,41.24,0,0,1,6.15,2Z"/><path class="cls-4" d="M47.22,24.56c-1.31-.42-2.65-.79-4-1.1-1.22.72-2.38,1.48-3.51,2.29l1.83,7.61a41.12,41.12,0,0,1,6.32-1C47.63,29.76,47.42,27.16,47.22,24.56Z"/><path class="cls-4" d="M62.36,25.75c-1.12-.81-2.29-1.57-3.5-2.29-1.38.31-2.73.68-4,1.1q-.31,3.9-.61,7.81a41.12,41.12,0,0,1,6.32,1C61.15,30.82,61.76,28.29,62.36,25.75Z"/><path class="cls-5" d="M47.46,27.68a47.19,47.19,0,0,0-7.05,1.11l-.36-1.52a47.46,47.46,0,0,1,7.29-1.15Z"/><path class="cls-5" d="M47.71,30.81a42,42,0,0,0-6.57,1l-.36-1.52a43.68,43.68,0,0,1,6.81-1.08Z"/><path class="cls-7" d="M58.46,31.33c-.55-.1-1.1-.18-1.64-.26a1.67,1.67,0,0,1-1.5-1.75h0A1.62,1.62,0,0,1,57.24,28c.59.08,1.18.17,1.77.28a1.63,1.63,0,0,1,1.42,1.87h0A1.68,1.68,0,0,1,58.46,31.33Z"/><path class="cls-5" d="M67.29,33.91a43.15,43.15,0,0,0-6.38-2.07l.36-1.52a43.65,43.65,0,0,1,6.62,2.14Z"/><path class="cls-7" d="M66.73,29.21a1.41,1.41,0,0,1-2.63-.85,1.26,1.26,0,0,1,1.68-.71A1.28,1.28,0,0,1,66.73,29.21Z"/><path class="cls-7" d="M38,28.36a1.41,1.41,0,0,1-2.63.85A1.4,1.4,0,0,1,38,28.36Z"/><path class="cls-7" d="M50.67,27.33a1.09,1.09,0,0,1-2.15.07,1,1,0,0,1,1-1A1,1,0,0,1,50.67,27.33Z"/><path class="cls-7" d="M53.52,27.4a1,1,0,0,1-1.1.89,1,1,0,0,1-1-1,1.08,1.08,0,0,1,2.14.07Z"/><path class="cls-7" d="M52,29.75a1,1,0,0,1-2,0,1,1,0,0,1,2,0Z"/></g><rect class="cls-1" x="9.02" y="9.02" width="84" height="84" rx="11.5" ry="11.5"/></svg>