<svg id="Layer_1" data-name="Layer 1" xmlns="http://www.w3.org/2000/svg" viewBox="0 0 113.39 113.39"><defs><style>.cls-1{fill:#4d4d4d;}</style></defs><title>info-big</title><path class="cls-1" d="M24.64,36.76V76.63A12.13,12.13,0,0,0,36.77,88.76H76.62A12.13,12.13,0,0,0,88.75,76.63V36.76A12.13,12.13,0,0,0,76.62,24.63H36.77A12.13,12.13,0,0,0,24.64,36.76ZM71.52,83.65H41.89A12.13,12.13,0,0,1,29.76,71.52V41.88A12.13,12.13,0,0,1,41.89,29.75H71.52A12.13,12.13,0,0,1,83.64,41.88V71.52A12.13,12.13,0,0,1,71.52,83.65Z"/><path class="cls-1" d="M52.11,46.78a5.09,5.09,0,0,1,0-7.68,6.73,6.73,0,0,1,4.58-1.51A7,7,0,0,1,61.3,39,4.62,4.62,0,0,1,63,42.75a5.11,5.11,0,0,1-1.72,4,6.6,6.6,0,0,1-4.61,1.56A6.73,6.73,0,0,1,52.11,46.78Zm-.68,3.56H62V75.8H51.43Z"/></svg>