<svg id="Layer_1" data-name="Layer 1" xmlns="http://www.w3.org/2000/svg" viewBox="0 0 214.01 65.44"><defs><style>.cls-1,.cls-2{fill:#4d4d4d;}.cls-2{font-size:14.52px;font-family:Montserrat-SemiBold, Montserrat SemiBold;}.cls-3{letter-spacing:-0.04em;}.cls-4{letter-spacing:-0.01em;}.cls-5{font-family:Montserrat-Medium, Montserrat Medium;}.cls-6{letter-spacing:-0.04em;}</style></defs><title>modes-graviranje</title><path class="cls-1" d="M27.92,46a1,1,0,0,1-.44,0L26.2,44.83a12.27,12.27,0,0,0-.89-.88,1.86,1.86,0,0,1-.72-1.69c.06-1.92,0-3.84,0-5.76v-.38h-1.1a.84.84,0,0,1-.74-.35c-.78-1-1.58-2-2.37-3a.85.85,0,0,1-.17-.49c0-2,0-3.94,0-5.91,0-.7.16-.85.86-.85h1V21.77h-3a.6.6,0,0,1-.68-.69V18.13c0-.46.22-.67.68-.69h0c.63,0,.54,0,.55-.54s.21-.7.59-.7.6.25.61.71V18a.61.61,0,0,1-.67.66c-.18,0-.36,0-.57,0,0,.61,0,1.17,0,1.74,0,.06.15.16.23.16h4.75a.56.56,0,0,1,.61.58.58.58,0,0,1-.62.61h-1c-.16,0-.23,0-.23.22,0,1.14,0,2.28,0,3.42a1,1,0,0,0,0,.11h8.35c.28,0,.39-.06.38-.36,0-1,0-2.05,0-3.08,0-.27-.09-.33-.35-.33H26.53c-.27,0-.51-.08-.59-.33a.85.85,0,0,1,0-.59c.1-.25.36-.29.62-.29h5.54c1.11,0,2.23,0,3.35,0,.3,0,.38-.1.37-.38,0-.5,0-1,0-1.54-.22,0-.4,0-.59,0a.61.61,0,0,1-.67-.64q0-.6,0-1.2a.61.61,0,1,1,1.21,0c0,.6,0,.6.61.63a.62.62,0,0,1,.65.67c0,1,0,2,0,2.94,0,.51-.21.71-.71.71H33.58c-.17,0-.29,0-.28.23v3.39a1.2,1.2,0,0,0,0,.17c.35,0,.71,0,1.07,0,.56,0,.78.25.78.82,0,1.95,0,3.9,0,5.85a1,1,0,0,1-.17.59c-.76,1-1.56,1.93-2.33,2.91a.91.91,0,0,1-.84.4c-.32,0-.65,0-1,0v.64c0,2,0,4,0,6a1,1,0,0,1-.33.78c-.35.33-.69.68-1,1l-.24.27Zm5.36-13-.37,0c-.62,0-1.25,0-1.87,0-1.49,0-3,0-4.46,0-.25,0-.5,0-.6-.26a1,1,0,0,1,0-.62c.08-.26.34-.33.62-.33h7.37v-5H21.48v5h3c.44,0,.71.22.71.59s-.25.61-.71.62h-2l-.39,0c.46.58.89,1.1,1.3,1.64a.57.57,0,0,0,.5.24c2.31,0,4.62,0,6.93,0a1.51,1.51,0,0,0,1.51-.74A14.31,14.31,0,0,1,33.28,33Zm-7.46,8.92,3.65-2.1a.25.25,0,0,0,.11-.17c0-.72,0-1.44,0-2.16h-.1c-1.18.67-2.36,1.34-3.53,2a.3.3,0,0,0-.13.22C25.82,40.45,25.82,41.15,25.82,41.93Zm1.91,2.63a.28.28,0,0,0,.09-.05l1.65-1.65a.37.37,0,0,0,.11-.19V41.18l-3.32,1.9Zm-1.89-8.41v2l3.44-2,0-.05Z"/><path class="cls-1" d="M11.17,15.42V48.17H43.93V15.42ZM13,34V29.51m0-2V17.21H42.14V46.39H13V36.07"/><text class="cls-2" transform="translate(49.67 28.77)">GR<tspan class="cls-3" x="21.83" y="0">A</tspan><tspan class="cls-4" x="32.17" y="0">V</tspan><tspan x="42.54" y="0">IRANJE</tspan><tspan class="cls-5"><tspan x="0" y="17.43">ENGR</tspan><tspan class="cls-6" x="43.29" y="17.43">A</tspan><tspan class="cls-4" x="53.38" y="17.43">V</tspan><tspan x="63.51" y="17.43">E</tspan></tspan></text></svg>