<svg id="Layer_1" data-name="Layer 1" xmlns="http://www.w3.org/2000/svg" viewBox="0 0 214.01 65.44"><defs><style>.cls-1,.cls-2{fill:#4d4d4d;}.cls-2{font-size:14.52px;font-family:Montserrat-SemiBold, Montserrat SemiBold;}.cls-3{letter-spacing:-0.01em;}.cls-4{font-family:Montserrat-Medium, Montserrat Medium;}.cls-5{letter-spacing:-0.01em;}</style></defs><title>modes-bazna-boja</title><path class="cls-1" d="M43.93,48.38V15.63H11.17V48.38H43.93ZM42.14,34.23,38.2,32l3.94-2.25Zm-2.8,2.29L37,37.87,33.18,40a.51.51,0,0,0,.08-.28.6.6,0,0,0-.6-.59.59.59,0,0,0-.59.59.6.6,0,0,0,.57.6l-1.35.77a.59.59,0,0,0-1,.42.35.35,0,0,0,0,.14l-2.75,1.56-3.29-1.88a.57.57,0,0,0-.56-.41l-.12,0-1.31-.75a.59.59,0,0,0,.24-.47.6.6,0,0,0-.6-.59.59.59,0,0,0-.58.53l-6-3.43a.24.24,0,0,0,0-.09.59.59,0,0,0-.6-.59.6.6,0,0,0-.37.14l-.81-.46,4.23-2.41a.6.6,0,0,0,.53.34.59.59,0,0,0,.42-.17l1.35.77a.6.6,0,0,0-.57.6.59.59,0,0,0,.59.59.6.6,0,0,0,.6-.59.51.51,0,0,0-.08-.28l6.17,3.51a.59.59,0,0,0,.47.94.6.6,0,0,0,.6-.59.24.24,0,0,0,0-.09l6-3.43a.59.59,0,0,0,.58.53.6.6,0,0,0,.6-.59.58.58,0,0,0-.24-.47l1.31-.75.12,0a.58.58,0,0,0,.56-.41l.19-.11,4.56,2.58-1.18.68a.61.61,0,0,0-.55-.35.58.58,0,0,0-.59.59A.63.63,0,0,0,39.34,36.52ZM13.58,28.7l14-7.94,14,7.94L37,31.3l-9.43,5.39ZM13,17.42H42.14V27.67L27.56,19.39,13,27.68Zm0,12.3,4,2.27-4,2.26Zm0,6.56,4,2.27,1.21.69,9.42,5.39L37,39.24l1.21-.69,0,0a.41.41,0,0,0,.11-.07l3.79-2.16V46.6H13Z"/><path class="cls-1" d="M38,33.8A.6.6,0,0,0,38,35a.6.6,0,1,0,0-1.19Z"/><path class="cls-1" d="M16.55,33.8a.6.6,0,0,0,0,1.19.6.6,0,1,0,0-1.19Z"/><path class="cls-1" d="M18.34,35.59a.58.58,0,0,0-.59.59.59.59,0,0,0,.59.6.6.6,0,0,0,.6-.6A.59.59,0,0,0,18.34,35.59Z"/><circle class="cls-1" cx="21.92" cy="36.18" r="0.6"/><path class="cls-1" d="M20.13,37.38a.6.6,0,0,0,0,1.19.6.6,0,1,0,0-1.19Z"/><path class="cls-1" d="M23.71,37.38a.6.6,0,0,0,0,1.19.6.6,0,1,0,0-1.19Z"/><path class="cls-1" d="M25.5,39.17a.6.6,0,0,0,0,1.19.6.6,0,1,0,0-1.19Z"/><path class="cls-1" d="M29.08,39.17a.6.6,0,0,0,0,1.19.6.6,0,1,0,0-1.19Z"/><path class="cls-1" d="M30.87,37.38a.6.6,0,0,0,0,1.19.6.6,0,1,0,0-1.19Z"/><path class="cls-1" d="M27.29,41a.58.58,0,0,0-.59.59.59.59,0,0,0,.59.6.6.6,0,0,0,.6-.6A.59.59,0,0,0,27.29,41Z"/><path class="cls-1" d="M32.66,35.59a.58.58,0,0,0-.59.59.59.59,0,0,0,.59.6.6.6,0,0,0,.6-.6A.59.59,0,0,0,32.66,35.59Z"/><circle class="cls-1" cx="36.24" cy="36.18" r="0.6"/><path class="cls-1" d="M34.45,37.38a.6.6,0,0,0,0,1.19.6.6,0,1,0,0-1.19Z"/><text class="cls-2" transform="translate(49.55 28.56)">BAZNA B<tspan class="cls-3" x="69.26" y="0">OJ</tspan><tspan x="88.7" y="0">A</tspan><tspan class="cls-4"><tspan class="cls-5" x="0" y="17.43">P</tspan><tspan x="10.34" y="17.43">RIMER</tspan></tspan></text></svg>