<svg id="Layer_1" data-name="Layer 1" xmlns="http://www.w3.org/2000/svg" viewBox="0 0 214.01 65.44"><defs><style>@import url("https://fonts.googleapis.com/css?family=Montserrat:800");.cls-1,.cls-2{fill:#4d4d4d;}.cls-2{font-size:14.52px;font-family:Montserrat-SemiBold, Montserrat SemiBold;}.cls-3{letter-spacing:-0.01em;}.cls-4{font-family:Montserrat-Medium, Montserrat Medium;}.cls-5{letter-spacing:-0.01em;}.cls-6{letter-spacing:0em;}</style></defs><title>modes-vez</title><path class="cls-1" d="M11.17,14.89V47.64H43.93V14.89ZM13,33.5V29m0-2V16.67H42.14V45.86H13V35.54"/><path class="cls-1" d="M37.59,36.67c.13-1.66.24-3.56.31-5.51a4.82,4.82,0,0,0,.1-8.81c0-.44,0-.85-.06-1.22a2.28,2.28,0,0,0-2-2.34,2.28,2.28,0,0,0-2,2.34c0,.29,0,.6,0,.93a3.4,3.4,0,0,0-3.06,3.39,2.47,2.47,0,0,1-2,2.42V24.5a1.22,1.22,0,0,0-.57-1l.65-1.14a1.21,1.21,0,0,0-1.05-1.81H25.07a.6.6,0,0,0-.6.6.59.59,0,0,0,.6.59l2.74,0-.87,1.55H16.37l-.87-1.58h7.81a.58.58,0,0,0,.59-.59.59.59,0,0,0-.59-.6H15.5a1.21,1.21,0,0,0-1.05,1.81l.65,1.14a1.22,1.22,0,0,0-.57,1V38a1.22,1.22,0,0,0,.57,1l-.65,1.15a1.17,1.17,0,0,0,0,1.2,1.19,1.19,0,0,0,1,.6H27.8a1.19,1.19,0,0,0,1-.6,1.17,1.17,0,0,0,0-1.2l-.65-1.15a1.22,1.22,0,0,0,.57-1v-9a3.68,3.68,0,0,0,3.17-3.63,2.22,2.22,0,0,1,1.84-2.18c0,.5,0,1.05,0,1.65s0,1.44,0,2.22a.61.61,0,0,0,.61.58.6.6,0,0,0,.59-.6c0-.78,0-1.52,0-2.2,0-1.52,0-2.73.09-3.71.05-.68.43-1.23.85-1.23s.8.55.85,1.23c0,.24,0,.5,0,.77l-.29,0v-.16a.6.6,0,0,0-.6-.6.59.59,0,0,0-.59.6v1.71a.59.59,0,0,0,.59.6.6.6,0,0,0,.6-.6v-.35l.33.06c0,.53,0,1.1,0,1.72,0,3.33-.16,7.61-.41,11.16l0,.28a4.36,4.36,0,0,0-.72,0h-.31c-.17-2.28-.3-4.91-.37-7.44a.6.6,0,0,0-.6-.58h0a.59.59,0,0,0-.58.61c0,.49,0,1,0,1.47A3.57,3.57,0,0,0,34,37.5h.25l.09,1c.14,1.45.29,2.6.45,3.41s.39,1.78,1.08,1.78.94-.76,1.19-2.37c.14-.88.28-2,.4-3.43a3.89,3.89,0,0,1,2.12,3.47.6.6,0,0,0,1.2,0A5.13,5.13,0,0,0,37.59,36.67ZM38,23.74a3.63,3.63,0,0,1,1.57,3A3.67,3.67,0,0,1,38,29.78c0-1.74.08-3.41.08-4.86ZM28,40.92l-.2-.1-12.31,0,.87-1.54h6.13a.6.6,0,0,0,0-1.2H15.73v-.41L21.4,36.1l6.17,1.67v.28H24.25a.6.6,0,0,0,0,1.2h2.69l.87,1.54s0,0,0,0l.19.11Zm-.43-6.48v2.09l-3.88-1Zm-.27-3.82-3.38.7-3.77-1,4-.53ZM15.73,33V30.9l1.36-.18,4.24,1.14Zm11.84-1.25V33.2L15.73,36.4V34.25Zm0-2.48v.16l-.38-.11ZM15.73,26.22V24.5s0,0,0,0H17.3l5.26,1.42Zm6.16-1.74h5.67v1.18l-1.12.05h0Zm5.68,2.37v1.24L15.73,29.7V27.42Zm8.75,10.7c-.15,1.76-.29,2.93-.42,3.71-.11-.71-.24-1.76-.38-3.3,0-.15,0-.3,0-.46h.22A4.21,4.21,0,0,1,36.32,37.55Zm-2.4-6c.07,1.65.16,3.29.27,4.75H34a2.38,2.38,0,0,1-.11-4.75Z"/><text class="cls-2" transform="translate(49.67 29.3)"><tspan class="cls-3">V</tspan><tspan x="10.37" y="0">EZ</tspan><tspan class="cls-4"><tspan x="0" y="17.43">EMBROIDE</tspan><tspan class="cls-5" x="83.58" y="17.43">R</tspan><tspan class="cls-6" x="93.99" y="17.43">Y</tspan></tspan></text></svg>