<svg id="Layer_1" data-name="Layer 1" xmlns="http://www.w3.org/2000/svg" xmlns:xlink="http://www.w3.org/1999/xlink" viewBox="0 0 164.35 164.35"><defs><style>@import url("https://fonts.googleapis.com/css?family=Montserrat:800");.cls-1{font-size:15.91px;fill:#4d4d4d;font-family:'Montserrat';font-weight: 800;}.cls-2{letter-spacing:-0.01em;}.cls-3{fill-rule:evenodd;fill:url(#radial-gradient);}</style><radialGradient id="radial-gradient" cx="44.87" cy="95.34" r="80.26" gradientUnits="userSpaceOnUse"><stop offset="0" stop-color="red"/><stop offset="0.5" stop-color="#eb1c24"/><stop offset="1" stop-color="#bf272d"/></radialGradient></defs><title></title><text class="cls-1" transform="translate(14.69 131.56)"><tspan class="cls-2"></tspan><tspan x="11.66" y="0"></tspan><tspan class="cls-2" x="67.12" y="0"></tspan><tspan x="78.79" y="0"></tspan></text><path class="cls-3" d="M107.72,96.09c-21.33,0-38.25-12.58-38.25-27,0-9.49,6.69-16.31,15.18-16.31,6.15,0,10.7,3.47,10.7,8a6.66,6.66,0,0,1-6.62,6.75c-2.21,0-3.75-.93-4.35-2.14a8.24,8.24,0,0,0,1,.14A3.37,3.37,0,0,0,88.79,62c0-2.07-1.47-3.61-3.94-3.61-3.61,0-6.69,3.35-6.69,7.63,0,5.21,5,9.49,11.77,9.49,11.5,0,20.6-10,20.6-21.4a20.38,20.38,0,0,0-6.42-15c-3.88-3.48-8.43-4.68-15.52-4.68H53.82V97.56h54c.51,0,.86-.18.84-.74A.89.89,0,0,0,107.72,96.09Z"/></svg>