<svg id="Layer_1" data-name="Layer 1" xmlns="http://www.w3.org/2000/svg" viewBox="0 0 164.35 164.35"><defs><style>@import url("https://fonts.googleapis.com/css?family=Montserrat:800");.cls-1,.cls-2{fill:#4d4d4d;}.cls-2{font-size:15.91px;font-family:'Montserrat';font-weight: 800;}.cls-3{letter-spacing:-0.01em;}.cls-4{letter-spacing:-0.01em;}.cls-5{letter-spacing:0em;}</style></defs><title></title><path class="cls-1" d="M119.7,47.6h0a36.55,36.55,0,0,0-10-17.51v0A38.13,38.13,0,1,0,73.45,94h0s.19,0,.32,0a1.48,1.48,0,0,0,1.06-.45l44.48-44.51A1.59,1.59,0,0,0,119.7,47.6ZM71,83.35h0a28.4,28.4,0,0,1-8.64-5.95A28.8,28.8,0,0,1,103.1,36.67a28.4,28.4,0,0,1,6,8.64h0a38.15,38.15,0,0,0-38,38Zm3.61,6a35.06,35.06,0,0,1,34.53-40.95c.71,0,1.41,0,2.12.06a37.46,37.46,0,0,1,3.8.44Zm37.86-43.92A31.92,31.92,0,1,0,60.17,79.6a31.28,31.28,0,0,0,11,7.17c.11,1.17.26,2.34.47,3.49A35,35,0,1,1,116,45.92C114.81,45.71,113.65,45.55,112.48,45.45Z"/><path class="cls-1" d="M63.49,51.29a4.53,4.53,0,0,1,2.64-.13A5.15,5.15,0,0,1,69.64,55a4.48,4.48,0,0,1-.36,2.62,7.61,7.61,0,0,1-1.89,2.53L65.1,62.25l2.67,2.92-1.89,1.72L56.63,56.76,60.8,53A7.61,7.61,0,0,1,63.49,51.29Zm3.75,5.13a2.47,2.47,0,0,0-.73-2.07,2.44,2.44,0,0,0-2-.91,3.9,3.9,0,0,0-2.34,1.18l-2.2,2,3.67,4,2.2-2A3.94,3.94,0,0,0,67.24,56.42Z"/><path class="cls-1" d="M76.17,38.92,81,53.09l-1.85,1.69L65.47,48.69l2-1.86L78,51.57,74.28,40.64Z"/><path class="cls-1" d="M87.83,45.89a6.62,6.62,0,0,1-3.64-.09,7.34,7.34,0,0,1-4.89-5.36,6.85,6.85,0,0,1,.25-3.64,7.78,7.78,0,0,1,2.16-3.2A7.88,7.88,0,0,1,84.38,32a6.34,6.34,0,0,1,2.89-.32l-.17,2.25a4.8,4.8,0,0,0-3.79,1.29,5.13,5.13,0,0,0-1.46,2.16,4.51,4.51,0,0,0-.13,2.44,5.29,5.29,0,0,0,3.36,3.68,4.4,4.4,0,0,0,2.44.09,5.14,5.14,0,0,0,2.29-1.25,4.77,4.77,0,0,0,1.61-3.67l2.27.05a6.32,6.32,0,0,1-.59,2.85A7.87,7.87,0,0,1,91.21,44,7.69,7.69,0,0,1,87.83,45.89Z"/>
</svg>