<svg xmlns="http://www.w3.org/2000/svg" viewBox="0 0 24.89 24.87"><defs><style>.cls-1{fill:#d6d6d6;}</style></defs><title>Asset 1</title><g id="Layer_2" data-name="Layer 2"><g id="Layer_1-2" data-name="Layer 1"><path class="cls-1" d="M9.89,19.84a9.92,9.92,0,1,1,10-9.86A9.95,9.95,0,0,1,9.89,19.84Zm0-2.69A7.23,7.23,0,1,0,2.69,9.91,7.25,7.25,0,0,0,9.9,17.15Z"/><path class="cls-1" d="M16.75,18.8,19,16.7s.21.16.36.31l5.05,4.93c.66.65.71,1.09.13,1.82a4.3,4.3,0,0,1-1.06.93.92.92,0,0,1-1.28-.18C20.35,22.59,18.53,20.68,16.75,18.8Z"/><path class="cls-1" d="M7.56,4.85,8,5.59C6.2,7,5,8.56,5.59,11l-.76.31C3.66,9.51,5.19,5.88,7.56,4.85Z"/></g></g></svg>