<svg id="Layer_1" data-name="Layer 1" xmlns="http://www.w3.org/2000/svg" viewBox="0 0 277.09 44.67"><defs><style>.cls-1,.cls-2{fill:#4d4d4d;}.cls-2{font-size:14.52px;font-family:Montserrat-SemiBold, Montserrat SemiBold;}.cls-3{letter-spacing:-0.01em;}.cls-4{letter-spacing:0.01em;}.cls-5{letter-spacing:0em;}.cls-6{letter-spacing:0em;}.cls-7{letter-spacing:0em;}.cls-8{letter-spacing:-0.01em;}.cls-9{font-family:Montserrat-Medium, Montserrat Medium;}.cls-10{letter-spacing:-0.01em;}.cls-11{letter-spacing:-0.01em;}.cls-12{letter-spacing:0em;}.cls-13{letter-spacing:0em;}</style></defs><title>service-1</title><path class="cls-1" d="M20.31,19.07a.61.61,0,0,0,0,1.21.61.61,0,0,0,0-1.21Z"/><path class="cls-1" d="M22,17.87a.6.6,0,1,0,.55.6A.57.57,0,0,0,22,17.87Z"/><path class="cls-1" d="M18.67,17.87a.6.6,0,0,0,0,1.2.6.6,0,0,0,0-1.2Z"/><path class="cls-1" d="M17,16.66a.61.61,0,0,0,0,1.21.61.61,0,0,0,0-1.21Z"/><path class="cls-1" d="M23.61,16.66a.61.61,0,1,0,.56.61A.58.58,0,0,0,23.61,16.66Z"/><ellipse class="cls-1" cx="25.26" cy="16.06" rx="0.55" ry="0.6"/><path class="cls-1" d="M15.36,15.46a.6.6,0,1,0,.56.6A.58.58,0,0,0,15.36,15.46Z"/><path class="cls-1" d="M20.31,16.66a.61.61,0,0,0,0,1.21.61.61,0,0,0,0-1.21Z"/><path class="cls-1" d="M19.76,24.49a.58.58,0,0,0,.55.61.61.61,0,1,0-.55-.61Z"/><path class="cls-1" d="M20.31,25.7a.58.58,0,0,0-.55.6.57.57,0,0,0,.55.6.57.57,0,0,0,.55-.6A.57.57,0,0,0,20.31,25.7Z"/><path class="cls-1" d="M20.31,27.51a.6.6,0,0,0,0,1.2.6.6,0,0,0,0-1.2Z"/><path class="cls-1" d="M20.31,29.32a.57.57,0,0,0-.55.6.58.58,0,0,0,.55.6.57.57,0,0,0,.55-.6A.57.57,0,0,0,20.31,29.32Z"/><path class="cls-1" d="M20.31,31.12a.61.61,0,0,0,0,1.21.61.61,0,0,0,0-1.21Z"/><path class="cls-1" d="M20.31,32.93a.6.6,0,0,0,0,1.2.6.6,0,0,0,0-1.2Z"/><path class="cls-1" d="M29.11,13.78V7.63h2.75V5.22h1.65a.58.58,0,0,0,.55-.61.57.57,0,0,0-.55-.6H7.12a.61.61,0,0,0,0,1.21H8.76V7.63h2.75v6.15a5,5,0,0,0,2,4l5.83,4.25-5.83,4.26a5,5,0,0,0-2,4.05v6.15H8.76V39H7.12a.61.61,0,0,0,0,1.21H33.51a.61.61,0,0,0,0-1.21H31.86V36.54H29.11V30.39a5,5,0,0,0-2-4.05L21.3,22.08l5.84-4.25A5,5,0,0,0,29.11,13.78ZM9.87,6.42V5.22H30.76v1.2ZM30.76,37.75V39H9.87v-1.2Zm-4.23-10.4a3.74,3.74,0,0,1,1.48,3v6.15H12.62V30.39a3.74,3.74,0,0,1,1.48-3l6.21-4.54Zm-6.22-6L14.1,16.82a3.74,3.74,0,0,1-1.48-3V7.63H28v6.15a3.74,3.74,0,0,1-1.48,3Z"/><text class="cls-2" transform="translate(40.3 19.41)">US<tspan class="cls-3" x="20.59" y="0">L</tspan><tspan x="29.15" y="0">UG</tspan><tspan class="cls-4" x="51.82" y="0">A</tspan><tspan x="62.84" y="0">: R</tspan><tspan class="cls-5" x="81.01" y="0">E</tspan><tspan class="cls-6" x="90.69" y="0">GU</tspan><tspan class="cls-7" x="113.36" y="0">L</tspan><tspan x="122.13" y="0">AR (3 </tspan><tspan class="cls-8" x="165.13" y="0">T</tspan><tspan x="173.73" y="0">JEDNA)</tspan><tspan class="cls-9"><tspan x="0" y="17.43">SER</tspan><tspan class="cls-10" x="29.31" y="17.43">V</tspan><tspan x="39.43" y="17.43">IC</tspan><tspan class="cls-11" x="54.43" y="17.43">E</tspan><tspan x="64.06" y="17.43">: R</tspan><tspan class="cls-5" x="81.82" y="17.43">E</tspan><tspan class="cls-6" x="91.51" y="17.43">GU</tspan><tspan class="cls-12" x="114.21" y="17.43">L</tspan><tspan class="cls-13" x="122.88" y="17.43">AR (3 </tspan><tspan class="cls-3" x="165.08" y="17.43">T</tspan><tspan x="173.46" y="17.43">JEDNA)</tspan></tspan></text></svg>