<svg id="Layer_1" data-name="Layer 1" xmlns="http://www.w3.org/2000/svg" viewBox="0 0 164.35 164.35"><defs><style>.cls-1{font-size:15.91px;font-family:Montserrat-Black, Montserrat Black;}.cls-1,.cls-4{fill:#4d4d4d;}.cls-2{letter-spacing:-0.01em;}.cls-3{letter-spacing:-0.01em;}</style></defs><title>tekstil</title><text class="cls-1" transform="translate(47.55 131.62)">TE<tspan class="cls-2" x="21.11" y="0">K</tspan><tspan class="cls-3" x="33.04" y="0">S</tspan><tspan x="43.33" y="0">TIL</tspan></text><path class="cls-4" d="M64.51,34.88h6.12a1.19,1.19,0,1,0,0-2.37H64.51a1.19,1.19,0,1,0,0,2.37Z"/><path class="cls-4" d="M102.86,56.71,98.78,39.89a8.93,8.93,0,0,0-4.94-5.75c-2.82-1.21-11.76-4.6-14-5.45a1.2,1.2,0,0,0-.75-.26H55.85l-.05,0-.06,0h0c-.46.17-11.32,4.28-14.49,5.63a8.93,8.93,0,0,0-4.93,5.71h0v0l-2.9,12h0l-1.19,4.87a1.19,1.19,0,0,0,.72,1.38l11.66,4.63V102.4a1.19,1.19,0,0,0,1.19,1.19H89.3a1.18,1.18,0,0,0,1.18-1.19V75a1.19,1.19,0,1,0-2.37,0V96.39H58.94a1.19,1.19,0,0,0,0,2.37H88.11v2.45H47V98.76h8a1.19,1.19,0,1,0,0-2.37H47V47.64a1.19,1.19,0,0,0-.17-.61l-6-9.9a6,6,0,0,1,1.35-.81c2.43-1,9.72-3.81,12.9-5C55.8,38.31,61.25,44,67.61,44s11.78-5.6,12.57-12.59c3.26,1.24,10.34,3.94,12.73,5a5.83,5.83,0,0,1,1.36.81l-6,9.9a1.19,1.19,0,0,0-.17.61V71a1.19,1.19,0,0,0,2.37,0v-8.3l11.67-4.63A1.19,1.19,0,0,0,102.86,56.71ZM44.57,60.18l-9.83-3.91.61-2.51,9.22,3.87v2.55Zm0-12.21v7.08l-8.65-3.63,2.66-11a7,7,0,0,1,.6-1.4Zm23-6.39c-4.69,0-9.69-4.28-10.24-10.78H77.86C77.31,37.3,72.3,41.58,67.61,41.58ZM90.48,48l5.39-8.91a6.56,6.56,0,0,1,.54,1.18h0l0,.06h0v.09h0l2.67,11-8.66,3.63V48Zm0,12.21V57.63l9.22-3.87.61,2.51Z"/><path class="cls-4" d="M126.4,91.39a1,1,0,1,0-1-1A1,1,0,0,0,126.4,91.39Z"/><path class="cls-4" d="M126.4,87.78a1,1,0,0,0,1-1V79.53a1,1,0,0,0-2.06,0v7.22A1,1,0,0,0,126.4,87.78Z"/><path class="cls-4" d="M131.16,66.29H125a9.16,9.16,0,0,0-9.15-9h-.55a9.17,9.17,0,0,0-9.15,9h-6.2a1,1,0,0,0-1,1v33.6a2.83,2.83,0,0,0,2.53,2.8l0,0h28.31l0,0a2.82,2.82,0,0,0,2.53-2.8V67.32A1,1,0,0,0,131.16,66.29Zm-27,35.41h-2.46a.78.78,0,0,1-.78-.78V97.79h29.19v3.13a.78.78,0,0,1-.78.78H104.18Zm11.48-33.35h7.25v3.9h-.78a1,1,0,0,0,0,2.06h3.61a1,1,0,0,0,0-2.06H125v-3.9h5.17V95.73H100.94V68.35h5.17v3.9h-.78a1,1,0,0,0,0,2.06h3.61a1,1,0,0,0,0-2.06h-.77v-3.9h7.49Zm0-9h.15a7.11,7.11,0,0,1,7.1,7H108.17a7.1,7.1,0,0,1,7.09-7h.4Z"/><path class="cls-4" d="M102.75,46.3a8.41,8.41,0,0,0,.15.85,5,5,0,0,0,2.46,3.42,4.38,4.38,0,0,0,2.92.47c.85-.11,1.69-.23,2.54-.36h.05l2.16-.3a18.27,18.27,0,0,1,5,0c1.43.19,3,.42,4.64.67a6.35,6.35,0,0,0,.85.07h0a4.77,4.77,0,0,0,4.63-4,8.41,8.41,0,0,0,.15-.85l.06-.43V44.51l0-.11-.09-.7a12.79,12.79,0,0,1-.18-2.62c0-.31,0-.63,0-.94v-.37a10.6,10.6,0,0,0-1.36-5.21,10.16,10.16,0,0,0-1.54-2.09.77.77,0,0,0-.52-.26.68.68,0,0,0-.55.21.74.74,0,0,0,0,1l.15.17.09.09a8.88,8.88,0,0,1,2.24,5.38c0,.74,0,1.52,0,2.2v.14c0,.18,0,.37,0,.56l-2.44-.35v-1c0-.92,0-1.84,0-2.76a8,8,0,0,0-.06-1.2,8.55,8.55,0,0,0-2.58-5.1,9.33,9.33,0,0,1,1.41.86.8.8,0,0,0,.63.17.69.69,0,0,0,.47-.3.74.74,0,0,0-.22-1.06,9.92,9.92,0,0,0-5.58-2c-1-.05-2.08-.05-3.24,0h-1.21a9.48,9.48,0,0,0-1.18.05,10.43,10.43,0,0,0-7.1,3.72,10.12,10.12,0,0,0-2.45,6c0,.66,0,1.32,0,2V41c0,.34,0,.69,0,1s-.06.81-.1,1.15-.07.56-.12.84l-.07.53v1.39Zm19.91-5.69v.86a51.53,51.53,0,0,0-14.25,0v-.88c0-1,0-1.89,0-2.83a7.13,7.13,0,0,1,5.71-7,7.13,7.13,0,0,1,8.41,5.66,8.29,8.29,0,0,1,.13,1.29C122.67,38.69,122.67,39.67,122.66,40.61Zm-15.74,1-2.44.36c0-.24,0-.48,0-.71v-.07c0-.7,0-1.42,0-2.12a9.1,9.1,0,0,1,5.07-7.54,8.41,8.41,0,0,0-2.65,6.16c0,.9,0,1.82,0,2.7Zm13.2,7.65,0-.13-1.85-.27a18.72,18.72,0,0,0-5,0l-2.89.41-1.78.26-.47,0h0c-.12,0-.24,0-.35,0a3.12,3.12,0,0,1-3.16-2.13,7.23,7.23,0,0,1-.3-3.29c0-.09,0-.18,0-.3a3.13,3.13,0,0,0,0-.36h0a89.79,89.79,0,0,1,9.92-1.05c.29,0,.58,0,.86,0h.42a48,48,0,0,1,5.9.36l3,.4.17,0,2.06.27h.07v0a8,8,0,0,1-.13,3.62,3.18,3.18,0,0,1-2.42,2.37,5,5,0,0,1-1.67,0c-.8-.1-1.61-.22-2.4-.34l0,.12Z"/></svg>