<svg id="Layer_1" data-name="Layer 1" xmlns="http://www.w3.org/2000/svg" viewBox="0 0 164.35 164.35"><defs><style>.cls-1,.cls-2{fill:#4d4d4d;}.cls-2{font-size:15.91px;@import url('https://fonts.googleapis.com/css?family=Montserrat:400,500,600,700,800');font-family:'Montserrat';font-weight: 800;}.cls-3{letter-spacing:-0.04em;}.cls-4{letter-spacing:-0.02em;}.cls-5{letter-spacing:-0.01em;}.cls-6{letter-spacing:-0.01em;}</style></defs><title>upaljaci-i-privjesci</title><path class="cls-1" d="M121.52,34.78V31.62a2.19,2.19,0,0,0-.08-4.38h-7.23a4.79,4.79,0,0,0,.48-2.1,4.93,4.93,0,0,0-4.93-4.93,4.34,4.34,0,0,0-1,.1,9.4,9.4,0,0,0-5.14-1.52h-11A2.19,2.19,0,0,0,90.42,21v66A6.58,6.58,0,0,0,97,93.51h20.07a6.57,6.57,0,0,0,6.56-6.57V37A2.19,2.19,0,0,0,121.52,34.78Zm-8.38-3.16h4v3.16h-4Zm-9.48-8.45a5.1,5.1,0,0,1,5.1,5.1v6.51h-14V23.17Zm15.58,63.77a2.19,2.19,0,0,1-2.18,2.19H97a2.19,2.19,0,0,1-2.19-2.19V39.16h24.44V86.94Z"/><path class="cls-1" d="M103.65,28.44h-1.87a2.19,2.19,0,1,0,0,4.38h1.87a2.19,2.19,0,0,0,0-4.38Z"/><path class="cls-1" d="M71.75,27a13.52,13.52,0,0,0-1.55-3.39c-2.73-4.33-7.07-6.33-9.87-4.57-2.16,1.37-2.71,4.6-1.48,8.08A17.2,17.2,0,0,0,48.68,39.13L41.12,72.65a17.18,17.18,0,0,0,33.52,7.56L82.2,46.7A17.2,17.2,0,0,0,71.75,27Zm-21,12.65a15,15,0,0,1,18-11.35,12.34,12.34,0,0,1,1.19.33,6,6,0,0,1,0,2.53,4.32,4.32,0,0,0-3.33-.81,4.27,4.27,0,0,0-2.84,1.9l-.09.09a1.19,1.19,0,0,0-.08.2,4.12,4.12,0,0,0-.43,1.1,4.29,4.29,0,1,0,8.23-.48,6.16,6.16,0,0,0,.82-3.61,15,15,0,0,1,7.91,16.72L72.54,79.74a15,15,0,0,1-29.33-6.62L50.78,39.6Zm14.41-5.16a5.31,5.31,0,0,0,4.27.31,1.22,1.22,0,0,1,0,.26,2.15,2.15,0,0,1-4.24-.57Zm1.19-1.82a2.13,2.13,0,0,1,2.2.16A3.1,3.1,0,0,1,66.38,32.62Zm2-7.92a15.27,15.27,0,0,1,.77,1.44,17.18,17.18,0,0,0-8.28.21c-.86-2.46-.65-4.75.6-5.54C63.2,19.72,66.36,21.51,68.39,24.7Z"/><path class="cls-1" d="M51.8,83.86a4.29,4.29,0,1,0,5.13-3.24A4.29,4.29,0,0,0,51.8,83.86Zm2.07,1.31a2.15,2.15,0,0,1,3.35-2.12,2.17,2.17,0,0,1,.86,2.23,2.2,2.2,0,0,1-2.57,1.62A2.12,2.12,0,0,1,53.87,85.17Z"/><path class="cls-1" d="M75.34,42.94,56.49,38.69a3.31,3.31,0,0,0-3.85,2.44l-7.1,31.41A3.23,3.23,0,0,0,48,76.4l18.85,4.25a3.22,3.22,0,0,0,3.85-2.43L77.77,46.8a3.14,3.14,0,0,0-.41-2.43A3.22,3.22,0,0,0,75.34,42.94Zm.2,2.57a1.09,1.09,0,0,1,.14.81L68.59,77.75a1.11,1.11,0,0,1-1.29.81L48.45,74.3A1.07,1.07,0,0,1,47.64,73L54.73,41.6A1.08,1.08,0,0,1,56,40.78L74.87,45A1,1,0,0,1,75.54,45.51Z"/><text class="cls-2" transform="translate(34.42 122.61)">U<tspan class="cls-3" x="12.47" y="0">P</tspan><tspan x="23.58" y="0">AL</tspan><tspan class="cls-4" x="46.21" y="0">J</tspan><tspan class="cls-5" x="55.11" y="0">A</tspan><tspan x="67.77" y="0">ČI I</tspan><tspan class="cls-6" x="0" y="19.09">P</tspan><tspan x="11.66" y="19.09">RI</tspan><tspan class="cls-4" x="29.08" y="19.09">V</tspan><tspan x="41.35" y="19.09">JESCI</tspan></text></svg>