<svg id="Layer_1" data-name="Layer 1" xmlns="http://www.w3.org/2000/svg" viewBox="0 0 102.05 102.05"><defs><style>.cls-1,.cls-2{fill:#fff;}.cls-1{stroke:#000;stroke-miterlimit:10;}</style></defs><title>whiteunderprint</title><rect class="cls-1" x="9.02" y="9.02" width="84" height="84" rx="11.5" ry="11.5"/><path d="M38.33,64.87,33.8,78.71H30.36l-3.05-9.37-3.14,9.37H20.75L16.2,64.87h3.32l3.13,9.73,3.26-9.73h3L32,74.68l3.22-9.81Z"/><path d="M52.8,64.87V78.71H49.6V73H43.31v5.67h-3.2V64.87h3.2v5.46H49.6V64.87Z"/><path d="M56.08,64.87h3.21V78.71H56.08Z"/><path d="M65.43,67.48H61V64.87H73.07v2.61H68.64V78.71H65.43Z"/><path d="M85.5,76.14v2.57H74.79V64.87H85.25v2.57H78v3H84.4v2.49H78v3.2Z"/><path d="M17.88,86.8a3.16,3.16,0,0,1-.82-2.34V80.58h1.6V84.4c0,1.23.51,1.85,1.54,1.85a1.45,1.45,0,0,0,1.15-.45,2.09,2.09,0,0,0,.39-1.4V80.58h1.59v3.88a3.17,3.17,0,0,1-.83,2.34,3.12,3.12,0,0,1-2.31.82A3.12,3.12,0,0,1,17.88,86.8Z"/><path d="M31.25,80.58V87.5H29.94l-3.45-4.2v4.2H24.91V80.58h1.32l3.44,4.2v-4.2Z"/><path d="M32.9,80.58H36A4.38,4.38,0,0,1,38,81a3.24,3.24,0,0,1,1.35,1.21,3.76,3.76,0,0,1,0,3.64A3.24,3.24,0,0,1,38,87.07a4.38,4.38,0,0,1-2,.43H32.9ZM36,86.19a2.38,2.38,0,0,0,1.66-.58,2.33,2.33,0,0,0,0-3.14A2.38,2.38,0,0,0,36,81.89H34.5v4.3Z"/><path d="M46.42,86.21V87.5H41.06V80.58h5.23v1.29H42.65v1.5h3.22v1.24H42.65v1.6Z"/><path d="M52.1,87.5l-1.33-1.93H49.3V87.5H47.69V80.58h3a3.78,3.78,0,0,1,1.6.31,2.3,2.3,0,0,1,1,.87,2.41,2.41,0,0,1,.36,1.33,2.27,2.27,0,0,1-1.42,2.19l1.55,2.22Zm-.4-5.3a1.68,1.68,0,0,0-1.1-.32H49.3V84.3h1.3A1.68,1.68,0,0,0,51.7,84a1.1,1.1,0,0,0,.37-.89A1.07,1.07,0,0,0,51.7,82.2Z"/><path d="M59.55,80.89a2.38,2.38,0,0,1,1.05.87,2.64,2.64,0,0,1,0,2.66,2.38,2.38,0,0,1-1.05.87,3.89,3.89,0,0,1-1.59.3h-1.4V87.5H55V80.58h3A3.73,3.73,0,0,1,59.55,80.89ZM59,84a1.11,1.11,0,0,0,.38-.89A1.08,1.08,0,0,0,59,82.2a1.65,1.65,0,0,0-1.09-.32H56.56v2.41h1.31A1.71,1.71,0,0,0,59,84Z"/><path d="M66.51,87.5l-1.34-1.93H63.7V87.5H62.1V80.58h3a3.74,3.74,0,0,1,1.6.31,2.3,2.3,0,0,1,1,.87,2.58,2.58,0,0,1,0,2.66,2.42,2.42,0,0,1-1,.86l1.55,2.22Zm-.41-5.3A1.65,1.65,0,0,0,65,81.88H63.7V84.3H65A1.65,1.65,0,0,0,66.1,84a1.11,1.11,0,0,0,.38-.89A1.08,1.08,0,0,0,66.1,82.2Z"/><path d="M69.36,80.58H71V87.5H69.36Z"/><path d="M79,80.58V87.5H77.64l-3.45-4.2v4.2H72.61V80.58h1.32l3.44,4.2v-4.2Z"/><path d="M82,81.88H79.81v-1.3h6v1.3H83.63V87.5H82Z"/><path class="cls-2" d="M67.63,51.1a2.14,2.14,0,1,0-2.14,2.13,2.14,2.14,0,0,0,2.14-2.13"/><polygon class="cls-2" points="30.83 57.43 50.16 57.43 71.35 36.23 71.35 16.91 30.83 16.91 30.83 57.43"/><path d="M28.35,14.43V59.91H73.83V14.43Zm35,36.67a2.13,2.13,0,1,1,2.13,2.13,2.13,2.13,0,0,1-2.13-2.13m8-14.87L50.16,57.43H30.83V16.91H71.35Z"/></svg>