<?xml version="1.0" encoding="UTF-8"?> <!-- Generator: Adobe Illustrator 23.0.1, SVG Export Plug-In . SVG Version: 6.00 Build 0) --> <svg xmlns="http://www.w3.org/2000/svg" xmlns:xlink="http://www.w3.org/1999/xlink" id="Layer_1" x="0px" y="0px" viewBox="0 0 247.1 73.2" style="enable-background:new 0 0 247.1 73.2;" xml:space="preserve"> <style type="text/css"> .st0{fill:none;} .st1{clip-path:url(#SVGID_2_);} .st2{fill:#BCE3F6;} .st3{fill:#1D1E1B;} .st4{fill:url(#AUTL-Basic-005);} .st5{fill:none;stroke:#1D1E1B;stroke-width:0.5;stroke-miterlimit:10;} .st6{fill:none;stroke:#1D1E1B;stroke-width:0.5;stroke-miterlimit:10;stroke-dasharray:2.0267,2.0267;} .st7{fill:none;stroke:#1D1E1B;stroke-width:0.5;stroke-miterlimit:10;stroke-dasharray:1.9855,1.9855;} .st8{fill:none;stroke:#1D1E1B;stroke-width:0.5;stroke-miterlimit:10;stroke-dasharray:2.1919,2.1919;} .st9{fill:none;stroke:#1D1E1B;stroke-width:0.5;stroke-miterlimit:10;stroke-dasharray:1.9876,1.9876;} </style> <pattern y="73.2" width="56.7" height="56.7" patternUnits="userSpaceOnUse" id="AUTL-Basic-005" viewBox="111.1 -167.8 56.7 56.7" style="overflow:visible;"> <g> <rect x="111.1" y="-167.8" class="st0" width="56.7" height="56.7"></rect> <g> <defs> <rect id="SVGID_1_" x="111.1" y="-167.8" width="56.7" height="56.7"></rect> </defs> <clipPath id="SVGID_2_"> <use xlink:href="#SVGID_1_" style="overflow:visible;"></use> </clipPath> <g class="st1"> <g> <rect x="130.4" y="-205.4" transform="matrix(0.7073 -0.7069 0.7069 0.7073 130.5559 54.0924)" class="st2" width="0.3" height="149.6"></rect> <rect x="131.9" y="-203.9" transform="matrix(0.7071 -0.7071 0.7071 0.7071 129.9813 55.5844)" class="st2" width="0.3" height="149.6"></rect> <rect x="133.4" y="-202.4" transform="matrix(0.7071 -0.7071 0.7071 0.7071 129.3633 57.0763)" class="st2" width="0.3" height="149.6"></rect> <rect x="134.9" y="-200.9" transform="matrix(0.7071 -0.7071 0.7071 0.7071 128.7454 58.5684)" class="st2" width="0.3" height="149.6"></rect> <rect x="136.4" y="-199.5" transform="matrix(0.7071 -0.7071 0.7071 0.7071 128.1273 60.0606)" class="st2" width="0.3" height="149.6"></rect> <rect x="137.9" y="-198" transform="matrix(0.7069 -0.7073 0.7073 0.7069 127.5527 61.5551)" class="st2" width="0.3" height="149.6"></rect> <rect x="139.4" y="-196.5" transform="matrix(0.7069 -0.7073 0.7073 0.7069 126.9347 63.0475)" class="st2" width="0.3" height="149.6"></rect> <rect x="140.9" y="-195" transform="matrix(0.7071 -0.7071 0.7071 0.7071 126.2733 64.5367)" class="st2" width="0.3" height="149.6"></rect> <rect x="142.4" y="-193.5" transform="matrix(0.7071 -0.7071 0.7071 0.7071 125.6552 66.0289)" class="st2" width="0.3" height="149.6"></rect> <rect x="143.9" y="-192" transform="matrix(0.7071 -0.7071 0.7071 0.7071 125.0371 67.5211)" class="st2" width="0.3" height="149.6"></rect> <rect x="145.4" y="-190.5" transform="matrix(0.7073 -0.7069 0.7069 0.7073 124.3754 69.0081)" class="st2" width="0.3" height="149.6"></rect> <rect x="146.9" y="-189" transform="matrix(0.7073 -0.7069 0.7069 0.7073 123.7576 70.4995)" class="st2" width="0.3" height="149.6"></rect> <rect x="148.3" y="-187.5" transform="matrix(0.7071 -0.7071 0.7071 0.7071 123.183 71.9971)" class="st2" width="0.3" height="149.6"></rect> <rect x="149.8" y="-186" transform="matrix(0.7071 -0.7071 0.7071 0.7071 122.565 73.4893)" class="st2" width="0.3" height="149.6"></rect> <rect x="151.3" y="-184.5" transform="matrix(0.7071 -0.7071 0.7071 0.7071 121.9468 74.9813)" class="st2" width="0.3" height="149.6"></rect> <rect x="152.8" y="-183" transform="matrix(0.7071 -0.7071 0.7071 0.7071 121.3299 76.4735)" class="st2" width="0.3" height="149.6"></rect> <rect x="154.3" y="-181.6" transform="matrix(0.7069 -0.7073 0.7073 0.7069 120.7545 77.9733)" class="st2" width="0.3" height="149.6"></rect> <rect x="155.8" y="-180.1" transform="matrix(0.7071 -0.7071 0.7071 0.7071 120.0928 79.4576)" class="st2" width="0.3" height="149.6"></rect> <rect x="157.3" y="-178.6" transform="matrix(0.7071 -0.7071 0.7071 0.7071 119.4759 80.95)" class="st2" width="0.3" height="149.6"></rect> <rect x="158.8" y="-177.1" transform="matrix(0.7071 -0.7071 0.7071 0.7071 118.8567 82.4415)" class="st2" width="0.3" height="149.6"></rect> <rect x="160.3" y="-175.6" transform="matrix(0.7071 -0.7071 0.7071 0.7071 118.2388 83.9337)" class="st2" width="0.3" height="149.6"></rect> <rect x="161.8" y="-174.1" transform="matrix(0.7073 -0.7069 0.7069 0.7073 117.5771 85.4154)" class="st2" width="0.3" height="149.6"></rect> <rect x="163.3" y="-172.6" transform="matrix(0.7071 -0.7071 0.7071 0.7071 117.0026 86.918)" class="st2" width="0.3" height="149.6"></rect> <rect x="164.8" y="-171.1" transform="matrix(0.7071 -0.7071 0.7071 0.7071 116.3845 88.41)" class="st2" width="0.3" height="149.6"></rect> <rect x="166.3" y="-169.6" transform="matrix(0.7071 -0.7071 0.7071 0.7071 115.7654 89.9016)" class="st2" width="0.3" height="149.6"></rect> <rect x="167.7" y="-168.1" transform="matrix(0.7071 -0.7071 0.7071 0.7071 115.1486 91.3941)" class="st2" width="0.3" height="149.6"></rect> <rect x="169.2" y="-166.6" transform="matrix(0.7069 -0.7073 0.7073 0.7069 114.5741 92.8992)" class="st2" width="0.3" height="149.6"></rect> </g> <g> <rect x="170.7" y="-165.1" transform="matrix(0.7071 -0.7071 0.7071 0.7071 113.9123 94.3783)" class="st2" width="0.3" height="149.6"></rect> <rect x="172.2" y="-163.6" transform="matrix(0.7071 -0.7071 0.7071 0.7071 113.2943 95.8702)" class="st2" width="0.3" height="149.6"></rect> <rect x="173.7" y="-162.2" transform="matrix(0.7071 -0.7071 0.7071 0.7071 112.6764 97.3624)" class="st2" width="0.3" height="149.6"></rect> <rect x="175.2" y="-160.7" transform="matrix(0.7071 -0.7071 0.7071 0.7071 112.0583 98.8546)" class="st2" width="0.3" height="149.6"></rect> <rect x="176.7" y="-159.2" transform="matrix(0.7073 -0.7069 0.7069 0.7073 111.3967 100.3313)" class="st2" width="0.3" height="149.6"></rect> <rect x="178.2" y="-157.7" transform="matrix(0.7073 -0.7069 0.7069 0.7073 110.7785 101.8227)" class="st2" width="0.3" height="149.6"></rect> <rect x="179.7" y="-156.2" transform="matrix(0.7071 -0.7071 0.7071 0.7071 110.2043 103.3306)" class="st2" width="0.3" height="149.6"></rect> <rect x="181.2" y="-154.7" transform="matrix(0.7071 -0.7071 0.7071 0.7071 109.5876 104.8234)" class="st2" width="0.3" height="149.6"></rect> <rect x="182.7" y="-153.2" transform="matrix(0.7071 -0.7071 0.7071 0.7071 108.9681 106.315)" class="st2" width="0.3" height="149.6"></rect> <rect x="184.2" y="-151.7" transform="matrix(0.7069 -0.7073 0.7073 0.7069 108.3935 107.8249)" class="st2" width="0.3" height="149.6"></rect> <rect x="185.7" y="-150.2" transform="matrix(0.7069 -0.7073 0.7073 0.7069 107.7741 109.3167)" class="st2" width="0.3" height="149.6"></rect> <rect x="187.1" y="-148.7" transform="matrix(0.7071 -0.7071 0.7071 0.7071 107.1141 110.7911)" class="st2" width="0.3" height="149.6"></rect> <rect x="188.6" y="-147.2" transform="matrix(0.7071 -0.7071 0.7071 0.7071 106.496 112.2833)" class="st2" width="0.3" height="149.6"></rect> <rect x="190.1" y="-145.7" transform="matrix(0.7073 -0.7069 0.7069 0.7073 105.8343 113.7554)" class="st2" width="0.3" height="149.6"></rect> <rect x="191.6" y="-144.2" transform="matrix(0.7073 -0.7069 0.7069 0.7073 105.2163 115.2468)" class="st2" width="0.3" height="149.6"></rect> <rect x="193.1" y="-142.8" transform="matrix(0.7071 -0.7071 0.7071 0.7071 104.6419 116.7593)" class="st2" width="0.3" height="149.6"></rect> <rect x="194.6" y="-141.3" transform="matrix(0.7071 -0.7071 0.7071 0.7071 104.0239 118.2515)" class="st2" width="0.3" height="149.6"></rect> <rect x="196.1" y="-139.8" transform="matrix(0.7071 -0.7071 0.7071 0.7071 103.4058 119.7437)" class="st2" width="0.3" height="149.6"></rect> <rect x="197.6" y="-138.3" transform="matrix(0.7069 -0.7073 0.7073 0.7069 102.8311 121.258)" class="st2" width="0.3" height="149.6"></rect> <rect x="199.1" y="-136.8" transform="matrix(0.7071 -0.7071 0.7071 0.7071 102.1742 122.7299)" class="st2" width="0.3" height="149.6"></rect> <rect x="200.6" y="-135.3" transform="matrix(0.7071 -0.7071 0.7071 0.7071 101.5577 124.223)" class="st2" width="0.3" height="149.6"></rect> <rect x="202.1" y="-133.8" transform="matrix(0.7071 -0.7071 0.7071 0.7071 100.9424 125.7168)" class="st2" width="0.3" height="149.6"></rect> <rect x="203.6" y="-132.3" transform="matrix(0.7071 -0.7071 0.7071 0.7071 100.3242 127.2089)" class="st2" width="0.3" height="149.6"></rect> <rect x="205" y="-130.8" transform="matrix(0.7071 -0.7071 0.7071 0.7071 99.7002 128.6975)" class="st2" width="0.3" height="149.6"></rect> <rect x="206.5" y="-129.3" transform="matrix(0.7073 -0.707 0.707 0.7073 99.0404 130.1652)" class="st2" width="0.3" height="149.6"></rect> <rect x="208" y="-127.8" transform="matrix(0.7071 -0.7071 0.7071 0.7071 98.4676 131.6839)" class="st2" width="0.3" height="149.6"></rect> </g> </g> <g class="st1"> <g> <rect x="52.9" y="-283" transform="matrix(0.7071 -0.7071 0.7071 0.7071 162.7285 -23.4855)" class="st2" width="0.3" height="149.6"></rect> <rect x="54.4" y="-281.5" transform="matrix(0.707 -0.7073 0.7073 0.707 162.1559 -22.0199)" class="st2" width="0.3" height="149.6"></rect> <rect x="55.8" y="-280" transform="matrix(0.7071 -0.7071 0.7071 0.7071 161.4959 -20.5033)" class="st2" width="0.3" height="149.6"></rect> <rect x="57.3" y="-278.5" transform="matrix(0.7071 -0.7071 0.7071 0.7071 160.8717 -19.0079)" class="st2" width="0.3" height="149.6"></rect> <rect x="58.8" y="-277" transform="matrix(0.7071 -0.7071 0.7071 0.7071 160.2538 -17.5161)" class="st2" width="0.3" height="149.6"></rect> <rect x="60.3" y="-275.5" transform="matrix(0.7071 -0.7071 0.7071 0.7071 159.6386 -16.0255)" class="st2" width="0.3" height="149.6"></rect> <rect x="61.8" y="-274.1" transform="matrix(0.7071 -0.7071 0.7071 0.7071 159.0221 -14.5343)" class="st2" width="0.3" height="149.6"></rect> <rect x="63.3" y="-272.6" transform="matrix(0.7071 -0.7071 0.7071 0.7071 158.4084 -13.0444)" class="st2" width="0.3" height="149.6"></rect> <rect x="64.8" y="-271.1" transform="matrix(0.7071 -0.7071 0.7071 0.7071 157.7902 -11.5525)" class="st2" width="0.3" height="149.6"></rect> <rect x="66.3" y="-269.6" transform="matrix(0.7071 -0.7071 0.7071 0.7071 157.1724 -10.0605)" class="st2" width="0.3" height="149.6"></rect> <rect x="67.8" y="-268.1" transform="matrix(0.7071 -0.7071 0.7071 0.7071 156.5543 -8.5683)" class="st2" width="0.3" height="149.6"></rect> <rect x="69.3" y="-266.6" transform="matrix(0.7069 -0.7073 0.7073 0.7069 155.9798 -7.0965)" class="st2" width="0.3" height="149.6"></rect> <rect x="70.8" y="-265.1" transform="matrix(0.7071 -0.7071 0.7071 0.7071 155.3181 -5.5841)" class="st2" width="0.3" height="149.6"></rect> <rect x="72.3" y="-263.6" transform="matrix(0.7071 -0.7071 0.7071 0.7071 154.7001 -4.0922)" class="st2" width="0.3" height="149.6"></rect> <rect x="73.8" y="-262.1" transform="matrix(0.7071 -0.7071 0.7071 0.7071 154.0822 -2.6)" class="st2" width="0.3" height="149.6"></rect> <rect x="75.2" y="-260.6" transform="matrix(0.7073 -0.7069 0.7069 0.7073 153.422 -1.09)" class="st2" width="0.3" height="149.6"></rect> <rect x="76.7" y="-259.1" transform="matrix(0.7071 -0.7071 0.7071 0.7071 152.846 0.3842)" class="st2" width="0.3" height="149.6"></rect> <rect x="78.2" y="-257.6" transform="matrix(0.7071 -0.7071 0.7071 0.7071 152.228 1.8761)" class="st2" width="0.3" height="149.6"></rect> <rect x="79.7" y="-256.1" transform="matrix(0.7071 -0.7071 0.7071 0.7071 151.6087 3.3688)" class="st2" width="0.3" height="149.6"></rect> <rect x="81.2" y="-254.7" transform="matrix(0.7071 -0.7071 0.7071 0.7071 150.992 4.8604)" class="st2" width="0.3" height="149.6"></rect> <rect x="82.7" y="-253.2" transform="matrix(0.7069 -0.7073 0.7073 0.7069 150.4175 6.3367)" class="st2" width="0.3" height="149.6"></rect> <rect x="84.2" y="-251.7" transform="matrix(0.7069 -0.7073 0.7073 0.7069 149.7992 7.829)" class="st2" width="0.3" height="149.6"></rect> <rect x="85.7" y="-250.2" transform="matrix(0.7071 -0.7071 0.7071 0.7071 149.138 9.3365)" class="st2" width="0.3" height="149.6"></rect> <rect x="87.2" y="-248.7" transform="matrix(0.7071 -0.7071 0.7071 0.7071 148.5199 10.8287)" class="st2" width="0.3" height="149.6"></rect> <rect x="88.7" y="-247.2" transform="matrix(0.7071 -0.7071 0.7071 0.7071 147.9018 12.3209)" class="st2" width="0.3" height="149.6"></rect> <rect x="90.2" y="-245.7" transform="matrix(0.7073 -0.7069 0.7069 0.7073 147.24 13.8263)" class="st2" width="0.3" height="149.6"></rect> <rect x="91.7" y="-244.2" transform="matrix(0.7073 -0.7069 0.7069 0.7073 146.6221 15.3178)" class="st2" width="0.3" height="149.6"></rect> </g> <g> <rect x="93.1" y="-242.7" transform="matrix(0.7071 -0.7071 0.7071 0.7071 146.0477 16.7969)" class="st2" width="0.3" height="149.6"></rect> <rect x="94.6" y="-241.2" transform="matrix(0.7071 -0.7071 0.7071 0.7071 145.4309 18.2888)" class="st2" width="0.3" height="149.6"></rect> <rect x="96.1" y="-239.7" transform="matrix(0.7071 -0.7071 0.7071 0.7071 144.8115 19.7811)" class="st2" width="0.3" height="149.6"></rect> <rect x="97.6" y="-238.2" transform="matrix(0.7071 -0.7071 0.7071 0.7071 144.1935 21.2731)" class="st2" width="0.3" height="149.6"></rect> <rect x="99.1" y="-236.8" transform="matrix(0.7069 -0.7073 0.7073 0.7069 143.6192 22.7547)" class="st2" width="0.3" height="149.6"></rect> <rect x="100.6" y="-235.3" transform="matrix(0.7071 -0.7071 0.7071 0.7071 142.9575 24.2574)" class="st2" width="0.3" height="149.6"></rect> <rect x="102.1" y="-233.8" transform="matrix(0.7071 -0.7071 0.7071 0.7071 142.3394 25.7496)" class="st2" width="0.3" height="149.6"></rect> <rect x="103.6" y="-232.3" transform="matrix(0.7071 -0.7071 0.7071 0.7071 141.7213 27.2416)" class="st2" width="0.3" height="149.6"></rect> <rect x="105.1" y="-230.8" transform="matrix(0.7071 -0.7071 0.7071 0.7071 141.1035 28.7335)" class="st2" width="0.3" height="149.6"></rect> <rect x="106.6" y="-229.3" transform="matrix(0.7073 -0.7069 0.7069 0.7073 140.4418 30.2336)" class="st2" width="0.3" height="149.6"></rect> <rect x="108.1" y="-227.8" transform="matrix(0.7071 -0.7071 0.7071 0.7071 139.8662 31.718)" class="st2" width="0.3" height="149.6"></rect> <rect x="109.6" y="-226.3" transform="matrix(0.7071 -0.7071 0.7071 0.7071 139.2491 33.2098)" class="st2" width="0.3" height="149.6"></rect> <rect x="111.1" y="-224.8" transform="matrix(0.7071 -0.7071 0.7071 0.7071 138.6311 34.7018)" class="st2" width="0.3" height="149.6"></rect> <rect x="112.5" y="-223.3" transform="matrix(0.7071 -0.7071 0.7071 0.7071 138.0132 36.1939)" class="st2" width="0.3" height="149.6"></rect> <rect x="114" y="-221.8" transform="matrix(0.7069 -0.7073 0.7073 0.7069 137.4387 37.6806)" class="st2" width="0.3" height="149.6"></rect> <rect x="115.5" y="-220.3" transform="matrix(0.7071 -0.7071 0.7071 0.7071 136.7771 39.1783)" class="st2" width="0.3" height="149.6"></rect> <rect x="117" y="-218.8" transform="matrix(0.7071 -0.7071 0.7071 0.7071 136.159 40.67)" class="st2" width="0.3" height="149.6"></rect> <rect x="118.5" y="-217.4" transform="matrix(0.7071 -0.7071 0.7071 0.7071 135.5411 42.1622)" class="st2" width="0.3" height="149.6"></rect> <rect x="120" y="-215.9" transform="matrix(0.7071 -0.7071 0.7071 0.7071 134.923 43.6544)" class="st2" width="0.3" height="149.6"></rect> <rect x="121.5" y="-214.4" transform="matrix(0.7073 -0.7069 0.7069 0.7073 134.2614 45.1495)" class="st2" width="0.3" height="149.6"></rect> <rect x="123" y="-212.9" transform="matrix(0.7071 -0.7071 0.7071 0.7071 133.6868 46.6386)" class="st2" width="0.3" height="149.6"></rect> <rect x="124.5" y="-211.4" transform="matrix(0.7071 -0.7071 0.7071 0.7071 133.0688 48.1305)" class="st2" width="0.3" height="149.6"></rect> <rect x="126" y="-209.9" transform="matrix(0.7071 -0.7071 0.7071 0.7071 132.4509 49.6226)" class="st2" width="0.3" height="149.6"></rect> <rect x="127.5" y="-208.4" transform="matrix(0.7071 -0.7071 0.7071 0.7071 131.8328 51.1148)" class="st2" width="0.3" height="149.6"></rect> <rect x="129" y="-206.9" transform="matrix(0.7069 -0.7073 0.7073 0.7069 131.2582 52.6063)" class="st2" width="0.3" height="149.6"></rect> </g> </g> </g> </g> </pattern> <title>LINE DRAWING</title> <g id="CRNA"> <path class="st0" d="M30,19.4c0.1-0.9,0.8-1.5,1.7-1.4h128.1c0.9,0,34.6,9.5,34.6,10.3v16.8c0,0.8-33.7,9.7-34.6,9.7H31.7 c-0.9,0.1-1.6-0.6-1.7-1.4V19.4z"></path> </g> <path class="st0" d="M29.5,53.4v-16H1v-0.5l0,0v-0.5h28.4v-17c0-0.3,0.1-0.6,0.3-0.9H2.1H1.6c-0.2,0-0.4,0-0.6,0v35.7 c0,0,0,0.1,0,0.1c0.2,0,0.4,0,0.6,0h28.1C29.6,54.1,29.5,53.7,29.5,53.4z"></path> <path class="st0" d="M210.5,4.9c17.5,0,31.7,14.2,31.7,31.7S228,68.3,210.5,68.3c-12.5,0-23.8-7.3-28.9-18.7l-3.8,1 c7.8,18.1,28.7,26.4,46.8,18.7s26.4-28.7,18.7-46.8S214.5-3.9,196.4,3.9c-8.3,3.6-15,10.2-18.6,18.5l3.8,1.1 C186.8,12.2,198,4.9,210.5,4.9z"></path> <path class="st0" d="M210.5,67.3c16.9,0,30.7-13.7,30.7-30.7c0-16.9-13.7-30.7-30.7-30.7c-12,0-22.9,7-27.9,17.9 c12.3,3.6,12.3,4,12.3,4.5v16.8c0,0.5,0,0.8-12.3,4.3C187.6,60.3,198.5,67.3,210.5,67.3z"></path> <path class="st0" d="M183.4,29.1l-0.3,1c-0.6-0.2-1.5-0.4-2.5-0.7c-0.6,2.4-0.9,4.8-0.9,7.2c0,4.1,0.8,8.1,2.4,11.8 c5.8-1.6,10.7-3.1,11.7-3.6V28.5c-1-0.5-5.9-2-11.7-3.8c-0.5,1.2-0.9,2.4-1.3,3.7C181.9,28.7,182.8,29,183.4,29.1z M185.1,43.1 c0,0.4-0.1,0.6-2.9,1.3l-0.3-1c0.8-0.2,1.6-0.4,2.3-0.7l0.1,0.2h0.7V43.1z M184.1,31.6h1v2.8h-1V31.6z M184.1,37.2h1v2.8h-1V37.2z"></path> <path class="st0" d="M177.9,27.6l-0.3,1l-1.8-0.5c-1.8,7.2-1.2,14.7,1.5,21.6l3.8-1.1c-3.2-7.8-3.2-16.5,0-24.2l-3.8-1.1 c-0.5,1.3-0.9,2.5-1.3,3.9L177.9,27.6z M179.2,44.1l0.2,1c-0.9,0.2-1.8,0.4-2.8,0.7l-0.2-1L179.2,44.1z"></path> <path class="st0" d="M174.9,27.9L174.9,27.9l0.2-1l0,0c0.4-1.3,0.8-2.6,1.3-3.9c-8-2.3-16-4.5-16.8-4.6h-26.6l0,0H31.6 c-0.6,0-1,0.4-1.1,0.9v34c0.1,0.6,0.6,1,1.1,0.9h128.2c0.8-0.1,8.7-2.1,16.7-4.3C173.6,43,173.1,35.3,174.9,27.9z M34.9,48.2h-1 v-2.8h1V48.2z M34.9,42.5h-1v-2.8h1V42.5z M34.9,36.8h-1V34h1V36.8z M34.9,31.2h-1v-2.8h1V31.2z M34.9,23.3v2.2h-1v-2.2 c0.1-1,1-1.7,2.1-1.6h0.7v1h-0.8C35.3,22.7,34.9,23,34.9,23.3L34.9,23.3z M38.2,51.1h-2.3c-0.2,0-0.5,0-0.7-0.1l0.3-1 c0.1,0,0.3,0.1,0.4,0h2.3V51.1z M39.5,21.8h2.8v1h-2.8V21.8z M43.9,51.1h-2.8v-1h2.8V51.1z M45.2,21.8H48v1h-2.8V21.8z M49.5,51.1 h-2.8v-1h2.8V51.1z M50.8,21.8h2.8v1h-2.8V21.8z M55.2,51.1h-2.8v-1h2.8V51.1z M56.5,21.8h2.8v1h-2.8V21.8z M60.9,51.1h-2.8v-1h2.8 V51.1z M62.2,21.8H65v1h-2.8V21.8z M66.5,51.1h-2.8v-1h2.8V51.1z M67.8,21.8h2.8v1h-2.8V21.8z M72.2,51.1h-2.8v-1h2.8V51.1z M73.5,21.8h2.8v1h-2.8V21.8z M77.9,51.1h-2.8v-1h2.8V51.1z M79.2,21.8H82v1h-2.8L79.2,21.8z M83.5,51.1h-2.8v-1h2.8V51.1z M84.8,21.8h2.8v1h-2.8V21.8z M89.2,51.1h-2.8v-1h2.8V51.1z M90.5,21.8h2.8v1h-2.8V21.8z M94.9,51.1h-2.8v-1h2.8V51.1z M96.2,21.8 H99v1h-2.8V21.8z M100.5,51.1h-2.8v-1h2.8V51.1z M101.8,21.8h2.8v1h-2.8V21.8z M106.2,51.1h-2.8v-1h2.8V51.1z M107.5,21.8h2.8v1 h-2.8V21.8z M111.9,51.1h-2.8v-1h2.8V51.1z M113.2,21.8h2.8v1h-2.8V21.8z M117.6,51.1h-2.8v-1h2.8V51.1z M118.9,21.7h2.8v1h-2.8 V21.7z M123.2,51.1h-2.8v-1h2.8V51.1z M124.5,21.8h2.8v1h-2.8V21.8z M128.9,51.1h-2.8v-1h2.8V51.1z M130.2,21.8h2.8v1h-2.8V21.8z M134.6,51.1h-2.8v-1h2.8V51.1z M135.9,21.7h2.8v1h-2.8V21.7z M140.2,51.1h-2.8v-1h2.8V51.1z M141.5,21.8h2.8v1h-2.8V21.8z M145.9,51.1h-2.8v-1h2.8V51.1z M147.2,21.8h2.8v1h-2.8L147.2,21.8z M151.6,51.1h-2.8v-1h2.8V51.1z M152.9,21.7L152.9,21.7 c1,0.1,1.9,0.3,2.9,0.6l-0.2,1c-2.2-0.5-2.6-0.5-2.6-0.5L152.9,21.7z M154.5,50.8l-0.2-1l2.8-0.6l0.2,1L154.5,50.8z M158.4,23.9 l0.2-1l2.8,0.6l-0.2,1L158.4,23.9z M160.1,49.6l-0.2-1l2.8-0.6l0.2,1L160.1,49.6z M164.1,24.2l2.8,0.7l-0.2,1l-2.7-0.7L164.1,24.2z M165.6,48.4l-0.2-1l2.8-0.6l0.2,1L165.6,48.4z M169.6,25.6l2.8,0.7l-0.2,1l-2.8-0.7L169.6,25.6z M173.9,46.4l-2.8,0.6l-0.2-1 l2.8-0.6L173.9,46.4z"></path> <line class="st0" x1="1" y1="36.9" x2="1" y2="36.9"></line> <path d="M210.5,0c-14.6,0-27.8,8.7-33.6,22.1l0.7,0.2l0.3,0.1c7.8-18,28.8-26.3,46.8-18.5c18,7.8,26.3,28.8,18.5,46.8 s-28.8,26.3-46.8,18.5c-8.3-3.6-14.9-10.3-18.5-18.6l-0.2,0.1l-0.7,0.2c7.9,18.6,29.4,27.3,48,19.4s27.3-29.4,19.4-48 C238.5,8.7,225.2,0,210.5,0L210.5,0z"></path> <path d="M210.5,68.3c17.5,0,31.7-14.2,31.7-31.7S228,4.9,210.5,4.9c-12.5,0-23.8,7.3-28.9,18.6l1,0.3c7-15.4,25.2-22.2,40.7-15.1 c15.4,7,22.2,25.2,15.1,40.7s-25.2,22.2-40.7,15.1c-6.7-3.1-12.1-8.4-15.1-15.1l-1,0.3C186.7,61,198,68.3,210.5,68.3z"></path> <path class="st3" d="M177.8,50.7l3.8-1l1-0.3c12.3-3.4,12.3-3.8,12.3-4.2V28.3c0-0.5,0-0.8-12.3-4.5l-1-0.3l-3.8-1.1l-0.3-0.1 l-0.6-0.2c-6.9-2-16.5-4.7-17.1-4.7H31.7c-0.1,0-0.3,0-0.4,0H2.1H1.6c-0.5-0.1-1,0-1.4,0.3C0.1,17.9,0,18.2,0,18.5v35.7 c0,0.3,0.1,0.6,0.3,0.8c0.3,0.2,0.6,0.3,1,0.3h30c0.1,0,0.3,0,0.4,0h128c0.6,0,10.1-2.5,17.1-4.4l0.7-0.2L177.8,50.7z M1.6,54.3 c-0.2,0-0.4,0-0.6,0c0,0,0-0.1,0-0.1V18.5c0.2,0,0.4,0,0.6,0h0.5h27.6c-0.2,0.3-0.3,0.6-0.3,0.9v17H1v1h28.4v16 c0,0.3,0.1,0.7,0.3,0.9L1.6,54.3L1.6,54.3z M159.7,54.3H31.6c-0.6,0-1-0.4-1.1-0.9v-34c0.1-0.6,0.6-1,1.1-0.9h101.5l0,0h26.6 c0.8,0.1,8.7,2.3,16.8,4.6l1,0.3l3.8,1.1l1,0.3c5.8,1.7,10.7,3.3,11.7,3.8v16.3c-1,0.5-5.9,1.9-11.7,3.6l-1,0.3l-3.8,1.1l-1,0.3 C168.4,52.2,160.5,54.3,159.7,54.3z"></path> <g> <polygon class="st4" points="152.3,22.3 34.4,22.3 34.4,50.6 152.3,50.6 184.5,43.2 184.5,30.3 "></polygon> <g> <polyline class="st5" points="35.4,22.3 34.4,22.3 34.4,23.3 "></polyline> <line class="st6" x1="34.4" y1="25.3" x2="34.4" y2="48.6"></line> <polyline class="st5" points="34.4,49.6 34.4,50.6 35.4,50.6 "></polyline> <polyline class="st7" points="37.4,50.6 152.3,50.6 182.5,43.7 "></polyline> <polyline class="st5" points="183.5,43.5 184.5,43.2 184.5,42.2 "></polyline> <line class="st8" x1="184.5" y1="40.1" x2="184.5" y2="32.4"></line> <polyline class="st5" points="184.5,31.3 184.5,30.3 183.5,30 "></polyline> <polyline class="st9" points="181.6,29.6 152.3,22.3 36.4,22.3 "></polyline> </g> </g> </svg> 