<?xml version="1.0" encoding="utf-8"?>
<!-- Generator: Adobe Illustrator 23.0.1, SVG Export Plug-In . SVG Version: 6.00 Build 0)  -->
<svg version="1.1" id="Layer_1" xmlns="http://www.w3.org/2000/svg" xmlns:xlink="http://www.w3.org/1999/xlink" x="0px" y="0px"
	 viewBox="0 0 397.2 97.5" style="enable-background:new 0 0 397.2 97.5;" xml:space="preserve">
<style type="text/css">
	.st0{fill:none;}
	.st1{clip-path:url(#SVGID_2_);}
	.st2{fill:#BCE3F6;}
	.st3{fill:none;stroke:#1D1D1B;stroke-width:0.5;}
	.st4{fill:url(#AUTL-Basic-005);stroke:#1D1D1B;stroke-width:0.5;stroke-miterlimit:10;stroke-dasharray:5,5;}
</style>
<pattern  y="97.5" width="56.7" height="56.7" patternUnits="userSpaceOnUse" id="AUTL-Basic-005" viewBox="111.1 -167.8 56.7 56.7" style="overflow:visible;">
	<g>
		<rect x="111.1" y="-167.8" class="st0" width="56.7" height="56.7"/>
		<g>
			<defs>
				<rect id="SVGID_1_" x="111.1" y="-167.8" width="56.7" height="56.7"/>
			</defs>
			<clipPath id="SVGID_2_">
				<use xlink:href="#SVGID_1_"  style="overflow:visible;"/>
			</clipPath>
			<g class="st1">
				<g>
					
						<rect x="130.4" y="-205.4" transform="matrix(0.7073 -0.7069 0.7069 0.7073 130.5559 54.0924)" class="st2" width="0.3" height="149.6"/>
					
						<rect x="131.9" y="-203.9" transform="matrix(0.7071 -0.7071 0.7071 0.7071 129.9813 55.5844)" class="st2" width="0.3" height="149.6"/>
					
						<rect x="133.4" y="-202.4" transform="matrix(0.7071 -0.7071 0.7071 0.7071 129.3633 57.0763)" class="st2" width="0.3" height="149.6"/>
					
						<rect x="134.9" y="-200.9" transform="matrix(0.7071 -0.7071 0.7071 0.7071 128.7454 58.5684)" class="st2" width="0.3" height="149.6"/>
					
						<rect x="136.4" y="-199.5" transform="matrix(0.7071 -0.7071 0.7071 0.7071 128.1273 60.0606)" class="st2" width="0.3" height="149.6"/>
					
						<rect x="137.9" y="-198" transform="matrix(0.7069 -0.7073 0.7073 0.7069 127.5527 61.5551)" class="st2" width="0.3" height="149.6"/>
					
						<rect x="139.4" y="-196.5" transform="matrix(0.7069 -0.7073 0.7073 0.7069 126.9347 63.0475)" class="st2" width="0.3" height="149.6"/>
					
						<rect x="140.9" y="-195" transform="matrix(0.7071 -0.7071 0.7071 0.7071 126.2733 64.5367)" class="st2" width="0.3" height="149.6"/>
					
						<rect x="142.4" y="-193.5" transform="matrix(0.7071 -0.7071 0.7071 0.7071 125.6552 66.0289)" class="st2" width="0.3" height="149.6"/>
					
						<rect x="143.9" y="-192" transform="matrix(0.7071 -0.7071 0.7071 0.7071 125.0371 67.5211)" class="st2" width="0.3" height="149.6"/>
					
						<rect x="145.4" y="-190.5" transform="matrix(0.7073 -0.7069 0.7069 0.7073 124.3754 69.0081)" class="st2" width="0.3" height="149.6"/>
					
						<rect x="146.9" y="-189" transform="matrix(0.7073 -0.7069 0.7069 0.7073 123.7576 70.4995)" class="st2" width="0.3" height="149.6"/>
					
						<rect x="148.3" y="-187.5" transform="matrix(0.7071 -0.7071 0.7071 0.7071 123.183 71.9971)" class="st2" width="0.3" height="149.6"/>
					
						<rect x="149.8" y="-186" transform="matrix(0.7071 -0.7071 0.7071 0.7071 122.565 73.4893)" class="st2" width="0.3" height="149.6"/>
					
						<rect x="151.3" y="-184.5" transform="matrix(0.7071 -0.7071 0.7071 0.7071 121.9468 74.9813)" class="st2" width="0.3" height="149.6"/>
					
						<rect x="152.8" y="-183" transform="matrix(0.7071 -0.7071 0.7071 0.7071 121.3299 76.4735)" class="st2" width="0.3" height="149.6"/>
					
						<rect x="154.3" y="-181.6" transform="matrix(0.7069 -0.7073 0.7073 0.7069 120.7545 77.9733)" class="st2" width="0.3" height="149.6"/>
					
						<rect x="155.8" y="-180.1" transform="matrix(0.7071 -0.7071 0.7071 0.7071 120.0928 79.4576)" class="st2" width="0.3" height="149.6"/>
					
						<rect x="157.3" y="-178.6" transform="matrix(0.7071 -0.7071 0.7071 0.7071 119.4759 80.95)" class="st2" width="0.3" height="149.6"/>
					
						<rect x="158.8" y="-177.1" transform="matrix(0.7071 -0.7071 0.7071 0.7071 118.8567 82.4415)" class="st2" width="0.3" height="149.6"/>
					
						<rect x="160.3" y="-175.6" transform="matrix(0.7071 -0.7071 0.7071 0.7071 118.2388 83.9337)" class="st2" width="0.3" height="149.6"/>
					
						<rect x="161.8" y="-174.1" transform="matrix(0.7073 -0.7069 0.7069 0.7073 117.5771 85.4154)" class="st2" width="0.3" height="149.6"/>
					
						<rect x="163.3" y="-172.6" transform="matrix(0.7071 -0.7071 0.7071 0.7071 117.0026 86.918)" class="st2" width="0.3" height="149.6"/>
					
						<rect x="164.8" y="-171.1" transform="matrix(0.7071 -0.7071 0.7071 0.7071 116.3845 88.41)" class="st2" width="0.3" height="149.6"/>
					
						<rect x="166.3" y="-169.6" transform="matrix(0.7071 -0.7071 0.7071 0.7071 115.7654 89.9016)" class="st2" width="0.3" height="149.6"/>
					
						<rect x="167.7" y="-168.1" transform="matrix(0.7071 -0.7071 0.7071 0.7071 115.1486 91.3941)" class="st2" width="0.3" height="149.6"/>
					
						<rect x="169.2" y="-166.6" transform="matrix(0.7069 -0.7073 0.7073 0.7069 114.5741 92.8992)" class="st2" width="0.3" height="149.6"/>
				</g>
				<g>
					
						<rect x="170.7" y="-165.1" transform="matrix(0.7071 -0.7071 0.7071 0.7071 113.9123 94.3783)" class="st2" width="0.3" height="149.6"/>
					
						<rect x="172.2" y="-163.6" transform="matrix(0.7071 -0.7071 0.7071 0.7071 113.2943 95.8702)" class="st2" width="0.3" height="149.6"/>
					
						<rect x="173.7" y="-162.2" transform="matrix(0.7071 -0.7071 0.7071 0.7071 112.6764 97.3624)" class="st2" width="0.3" height="149.6"/>
					
						<rect x="175.2" y="-160.7" transform="matrix(0.7071 -0.7071 0.7071 0.7071 112.0583 98.8546)" class="st2" width="0.3" height="149.6"/>
					
						<rect x="176.7" y="-159.2" transform="matrix(0.7073 -0.7069 0.7069 0.7073 111.3967 100.3313)" class="st2" width="0.3" height="149.6"/>
					
						<rect x="178.2" y="-157.7" transform="matrix(0.7073 -0.7069 0.7069 0.7073 110.7785 101.8227)" class="st2" width="0.3" height="149.6"/>
					
						<rect x="179.7" y="-156.2" transform="matrix(0.7071 -0.7071 0.7071 0.7071 110.2043 103.3306)" class="st2" width="0.3" height="149.6"/>
					
						<rect x="181.2" y="-154.7" transform="matrix(0.7071 -0.7071 0.7071 0.7071 109.5876 104.8234)" class="st2" width="0.3" height="149.6"/>
					
						<rect x="182.7" y="-153.2" transform="matrix(0.7071 -0.7071 0.7071 0.7071 108.9681 106.315)" class="st2" width="0.3" height="149.6"/>
					
						<rect x="184.2" y="-151.7" transform="matrix(0.7069 -0.7073 0.7073 0.7069 108.3935 107.8249)" class="st2" width="0.3" height="149.6"/>
					
						<rect x="185.7" y="-150.2" transform="matrix(0.7069 -0.7073 0.7073 0.7069 107.7741 109.3167)" class="st2" width="0.3" height="149.6"/>
					
						<rect x="187.1" y="-148.7" transform="matrix(0.7071 -0.7071 0.7071 0.7071 107.1141 110.7911)" class="st2" width="0.3" height="149.6"/>
					
						<rect x="188.6" y="-147.2" transform="matrix(0.7071 -0.7071 0.7071 0.7071 106.496 112.2833)" class="st2" width="0.3" height="149.6"/>
					
						<rect x="190.1" y="-145.7" transform="matrix(0.7073 -0.7069 0.7069 0.7073 105.8343 113.7554)" class="st2" width="0.3" height="149.6"/>
					
						<rect x="191.6" y="-144.2" transform="matrix(0.7073 -0.7069 0.7069 0.7073 105.2163 115.2468)" class="st2" width="0.3" height="149.6"/>
					
						<rect x="193.1" y="-142.8" transform="matrix(0.7071 -0.7071 0.7071 0.7071 104.6419 116.7593)" class="st2" width="0.3" height="149.6"/>
					
						<rect x="194.6" y="-141.3" transform="matrix(0.7071 -0.7071 0.7071 0.7071 104.0239 118.2515)" class="st2" width="0.3" height="149.6"/>
					
						<rect x="196.1" y="-139.8" transform="matrix(0.7071 -0.7071 0.7071 0.7071 103.4058 119.7437)" class="st2" width="0.3" height="149.6"/>
					
						<rect x="197.6" y="-138.3" transform="matrix(0.7069 -0.7073 0.7073 0.7069 102.8311 121.258)" class="st2" width="0.3" height="149.6"/>
					
						<rect x="199.1" y="-136.8" transform="matrix(0.7071 -0.7071 0.7071 0.7071 102.1742 122.7299)" class="st2" width="0.3" height="149.6"/>
					
						<rect x="200.6" y="-135.3" transform="matrix(0.7071 -0.7071 0.7071 0.7071 101.5577 124.223)" class="st2" width="0.3" height="149.6"/>
					
						<rect x="202.1" y="-133.8" transform="matrix(0.7071 -0.7071 0.7071 0.7071 100.9424 125.7168)" class="st2" width="0.3" height="149.6"/>
					
						<rect x="203.6" y="-132.3" transform="matrix(0.7071 -0.7071 0.7071 0.7071 100.3242 127.2089)" class="st2" width="0.3" height="149.6"/>
					
						<rect x="205" y="-130.8" transform="matrix(0.7071 -0.7071 0.7071 0.7071 99.7002 128.6975)" class="st2" width="0.3" height="149.6"/>
					
						<rect x="206.5" y="-129.3" transform="matrix(0.7073 -0.707 0.707 0.7073 99.0404 130.1652)" class="st2" width="0.3" height="149.6"/>
					
						<rect x="208" y="-127.8" transform="matrix(0.7071 -0.7071 0.7071 0.7071 98.4676 131.6839)" class="st2" width="0.3" height="149.6"/>
				</g>
			</g>
			<g class="st1">
				<g>
					
						<rect x="52.9" y="-283" transform="matrix(0.7071 -0.7071 0.7071 0.7071 162.7285 -23.4855)" class="st2" width="0.3" height="149.6"/>
					
						<rect x="54.4" y="-281.5" transform="matrix(0.707 -0.7073 0.7073 0.707 162.1559 -22.0199)" class="st2" width="0.3" height="149.6"/>
					
						<rect x="55.8" y="-280" transform="matrix(0.7071 -0.7071 0.7071 0.7071 161.4959 -20.5033)" class="st2" width="0.3" height="149.6"/>
					
						<rect x="57.3" y="-278.5" transform="matrix(0.7071 -0.7071 0.7071 0.7071 160.8717 -19.0079)" class="st2" width="0.3" height="149.6"/>
					
						<rect x="58.8" y="-277" transform="matrix(0.7071 -0.7071 0.7071 0.7071 160.2538 -17.5161)" class="st2" width="0.3" height="149.6"/>
					
						<rect x="60.3" y="-275.5" transform="matrix(0.7071 -0.7071 0.7071 0.7071 159.6386 -16.0255)" class="st2" width="0.3" height="149.6"/>
					
						<rect x="61.8" y="-274.1" transform="matrix(0.7071 -0.7071 0.7071 0.7071 159.0221 -14.5343)" class="st2" width="0.3" height="149.6"/>
					
						<rect x="63.3" y="-272.6" transform="matrix(0.7071 -0.7071 0.7071 0.7071 158.4084 -13.0444)" class="st2" width="0.3" height="149.6"/>
					
						<rect x="64.8" y="-271.1" transform="matrix(0.7071 -0.7071 0.7071 0.7071 157.7902 -11.5525)" class="st2" width="0.3" height="149.6"/>
					
						<rect x="66.3" y="-269.6" transform="matrix(0.7071 -0.7071 0.7071 0.7071 157.1724 -10.0605)" class="st2" width="0.3" height="149.6"/>
					
						<rect x="67.8" y="-268.1" transform="matrix(0.7071 -0.7071 0.7071 0.7071 156.5543 -8.5683)" class="st2" width="0.3" height="149.6"/>
					
						<rect x="69.3" y="-266.6" transform="matrix(0.7069 -0.7073 0.7073 0.7069 155.9798 -7.0965)" class="st2" width="0.3" height="149.6"/>
					
						<rect x="70.8" y="-265.1" transform="matrix(0.7071 -0.7071 0.7071 0.7071 155.3181 -5.5841)" class="st2" width="0.3" height="149.6"/>
					
						<rect x="72.3" y="-263.6" transform="matrix(0.7071 -0.7071 0.7071 0.7071 154.7001 -4.0922)" class="st2" width="0.3" height="149.6"/>
					
						<rect x="73.8" y="-262.1" transform="matrix(0.7071 -0.7071 0.7071 0.7071 154.0822 -2.6)" class="st2" width="0.3" height="149.6"/>
					
						<rect x="75.2" y="-260.6" transform="matrix(0.7073 -0.7069 0.7069 0.7073 153.422 -1.09)" class="st2" width="0.3" height="149.6"/>
					
						<rect x="76.7" y="-259.1" transform="matrix(0.7071 -0.7071 0.7071 0.7071 152.846 0.3842)" class="st2" width="0.3" height="149.6"/>
					
						<rect x="78.2" y="-257.6" transform="matrix(0.7071 -0.7071 0.7071 0.7071 152.228 1.8761)" class="st2" width="0.3" height="149.6"/>
					
						<rect x="79.7" y="-256.1" transform="matrix(0.7071 -0.7071 0.7071 0.7071 151.6087 3.3688)" class="st2" width="0.3" height="149.6"/>
					
						<rect x="81.2" y="-254.7" transform="matrix(0.7071 -0.7071 0.7071 0.7071 150.992 4.8604)" class="st2" width="0.3" height="149.6"/>
					
						<rect x="82.7" y="-253.2" transform="matrix(0.7069 -0.7073 0.7073 0.7069 150.4175 6.3367)" class="st2" width="0.3" height="149.6"/>
					
						<rect x="84.2" y="-251.7" transform="matrix(0.7069 -0.7073 0.7073 0.7069 149.7992 7.829)" class="st2" width="0.3" height="149.6"/>
					
						<rect x="85.7" y="-250.2" transform="matrix(0.7071 -0.7071 0.7071 0.7071 149.138 9.3365)" class="st2" width="0.3" height="149.6"/>
					
						<rect x="87.2" y="-248.7" transform="matrix(0.7071 -0.7071 0.7071 0.7071 148.5199 10.8287)" class="st2" width="0.3" height="149.6"/>
					
						<rect x="88.7" y="-247.2" transform="matrix(0.7071 -0.7071 0.7071 0.7071 147.9018 12.3209)" class="st2" width="0.3" height="149.6"/>
					
						<rect x="90.2" y="-245.7" transform="matrix(0.7073 -0.7069 0.7069 0.7073 147.24 13.8263)" class="st2" width="0.3" height="149.6"/>
					
						<rect x="91.7" y="-244.2" transform="matrix(0.7073 -0.7069 0.7069 0.7073 146.6221 15.3178)" class="st2" width="0.3" height="149.6"/>
				</g>
				<g>
					
						<rect x="93.1" y="-242.7" transform="matrix(0.7071 -0.7071 0.7071 0.7071 146.0477 16.7969)" class="st2" width="0.3" height="149.6"/>
					
						<rect x="94.6" y="-241.2" transform="matrix(0.7071 -0.7071 0.7071 0.7071 145.4309 18.2888)" class="st2" width="0.3" height="149.6"/>
					
						<rect x="96.1" y="-239.7" transform="matrix(0.7071 -0.7071 0.7071 0.7071 144.8115 19.7811)" class="st2" width="0.3" height="149.6"/>
					
						<rect x="97.6" y="-238.2" transform="matrix(0.7071 -0.7071 0.7071 0.7071 144.1935 21.2731)" class="st2" width="0.3" height="149.6"/>
					
						<rect x="99.1" y="-236.8" transform="matrix(0.7069 -0.7073 0.7073 0.7069 143.6192 22.7547)" class="st2" width="0.3" height="149.6"/>
					
						<rect x="100.6" y="-235.3" transform="matrix(0.7071 -0.7071 0.7071 0.7071 142.9575 24.2574)" class="st2" width="0.3" height="149.6"/>
					
						<rect x="102.1" y="-233.8" transform="matrix(0.7071 -0.7071 0.7071 0.7071 142.3394 25.7496)" class="st2" width="0.3" height="149.6"/>
					
						<rect x="103.6" y="-232.3" transform="matrix(0.7071 -0.7071 0.7071 0.7071 141.7213 27.2416)" class="st2" width="0.3" height="149.6"/>
					
						<rect x="105.1" y="-230.8" transform="matrix(0.7071 -0.7071 0.7071 0.7071 141.1035 28.7335)" class="st2" width="0.3" height="149.6"/>
					
						<rect x="106.6" y="-229.3" transform="matrix(0.7073 -0.7069 0.7069 0.7073 140.4418 30.2336)" class="st2" width="0.3" height="149.6"/>
					
						<rect x="108.1" y="-227.8" transform="matrix(0.7071 -0.7071 0.7071 0.7071 139.8662 31.718)" class="st2" width="0.3" height="149.6"/>
					
						<rect x="109.6" y="-226.3" transform="matrix(0.7071 -0.7071 0.7071 0.7071 139.2491 33.2098)" class="st2" width="0.3" height="149.6"/>
					
						<rect x="111.1" y="-224.8" transform="matrix(0.7071 -0.7071 0.7071 0.7071 138.6311 34.7018)" class="st2" width="0.3" height="149.6"/>
					
						<rect x="112.5" y="-223.3" transform="matrix(0.7071 -0.7071 0.7071 0.7071 138.0132 36.1939)" class="st2" width="0.3" height="149.6"/>
					
						<rect x="114" y="-221.8" transform="matrix(0.7069 -0.7073 0.7073 0.7069 137.4387 37.6806)" class="st2" width="0.3" height="149.6"/>
					
						<rect x="115.5" y="-220.3" transform="matrix(0.7071 -0.7071 0.7071 0.7071 136.7771 39.1783)" class="st2" width="0.3" height="149.6"/>
					
						<rect x="117" y="-218.8" transform="matrix(0.7071 -0.7071 0.7071 0.7071 136.159 40.67)" class="st2" width="0.3" height="149.6"/>
					
						<rect x="118.5" y="-217.4" transform="matrix(0.7071 -0.7071 0.7071 0.7071 135.5411 42.1622)" class="st2" width="0.3" height="149.6"/>
					
						<rect x="120" y="-215.9" transform="matrix(0.7071 -0.7071 0.7071 0.7071 134.923 43.6544)" class="st2" width="0.3" height="149.6"/>
					
						<rect x="121.5" y="-214.4" transform="matrix(0.7073 -0.7069 0.7069 0.7073 134.2614 45.1495)" class="st2" width="0.3" height="149.6"/>
					
						<rect x="123" y="-212.9" transform="matrix(0.7071 -0.7071 0.7071 0.7071 133.6868 46.6386)" class="st2" width="0.3" height="149.6"/>
					
						<rect x="124.5" y="-211.4" transform="matrix(0.7071 -0.7071 0.7071 0.7071 133.0688 48.1305)" class="st2" width="0.3" height="149.6"/>
					
						<rect x="126" y="-209.9" transform="matrix(0.7071 -0.7071 0.7071 0.7071 132.4509 49.6226)" class="st2" width="0.3" height="149.6"/>
					
						<rect x="127.5" y="-208.4" transform="matrix(0.7071 -0.7071 0.7071 0.7071 131.8328 51.1148)" class="st2" width="0.3" height="149.6"/>
					
						<rect x="129" y="-206.9" transform="matrix(0.7069 -0.7073 0.7073 0.7069 131.2582 52.6063)" class="st2" width="0.3" height="149.6"/>
				</g>
			</g>
		</g>
	</g>
</pattern>
<title>LINE DRAWING</title>
<g id="CRNA">
	<path class="st3" d="M147.6,10.2v35.2c-15.9,0.9-69.8,3.3-104.7-3.3V13.4C64.9,9,101.1,7.9,147.6,10.2"/>
	<path class="st3" d="M249.6,59.5c46.5-2.2,82.6-1.1,104.7,3.3v28.6c-34.9,6.6-88.8,4.2-104.7,3.3V59.5"/>
</g>
<path class="st3" d="M357.5,12.8l4.5,0.9c1.5,0.1,3.3,2.9,3.8,4.8v0.1h27.4c1,0.1,1.8,0.7,2.2,1.6c1.9,3.3,1.9,10.4,0,13.6
	c-0.4,0.9-1.3,1.5-2.3,1.6h-27.4v0.1c-0.5,2.2-1.9,4.2-3.9,5.3l-4.5,1.9L357.5,12.8z"/>
<path class="st3" d="M42.7,13.7v28.1c-11.4-1.1-28-3.5-42.4-8.7V22.4C11.3,18.2,27.5,14.9,42.7,13.7"/>
<path class="st3" d="M147.8,10.2l9.6,1.3v32.7l-9.6,1.3V10.2z"/>
<path class="st3" d="M198.6,12.9c15.3-0.5,30.3-1.5,44.8-2.4C264.8,9,287,7.6,311.8,7.6c18.2,0,35.2,1.9,45.5,5.2v29.9
	c-9.5,3.6-29.7,5.2-45.5,5.2c-25.1,0-50.7-1.6-75.5-3.1c-12.4-0.8-25.3-1.6-37.7-2.1c-13.7-1-27.5-0.5-41,1.5V11.4
	C169.6,12.6,183.9,13.7,198.6,12.9"/>
<path class="st3" d="M223.8,9.5c-0.3-0.4-0.5-1-0.6-1.5c0-0.1,0-0.1,0-0.2c0.1-0.4,0.3-0.7,0.6-0.8C240-0.9,329-2.3,345.8,5
	c1.5,0.7,2.4,1.4,2.7,2.1l0,0c0,0.1,0.1,2.6,0.1,3.2c-9.3-1.7-18.8-2.7-28.3-2.9c0.3-0.7,0.5-1.4,0.5-2.2c0-0.7-0.2-1.3-0.6-1.9
	c-26.5-1.5-53.1-0.7-79.4,2.4h-0.1V6c0.2,1.1-0.2,2.2-1,3C236,12.3,223.9,9.5,223.8,9.5L223.8,9.5"/>
<polygon class="st4" points="260.1,41.8 217.5,39 175,39 175,16.3 217.5,16.3 260.1,13.5 345.1,13.5 345.1,41.8 "/>
<path class="st3" d="M173.4,58.9L173.4,58.9c-0.1,0-12.2,2.9-15.9-0.4c-0.8-0.8-1.2-1.9-1-3v-0.1h-0.1c-26.3-3.2-52.9-4-79.4-2.4
	c-0.4,0.5-0.6,1.2-0.6,1.9c0,0.8,0.2,1.5,0.5,2.2c-9.5,0.2-19,1.2-28.3,2.9c0-0.6,0.1-3.1,0.1-3.2l0,0c0.2-0.8,1.1-1.5,2.7-2.1
	c16.9-7.3,105.8-5.9,122,1.9c0.3,0.2,0.6,0.5,0.6,0.8c0,0.1,0,0.1,0,0.2C173.9,57.9,173.7,58.5,173.4,58.9"/>
<path class="st3" d="M39.7,92l-4.4-1.9c-2-1.1-3.4-3.1-3.9-5.3v-0.1H3.9c-1-0.1-1.9-0.7-2.3-1.6c-1.9-3.2-1.9-10.3,0-13.6
	c0.4-0.9,1.2-1.5,2.2-1.6h27.4v-0.1c0.5-1.9,2.3-4.7,3.8-4.8l4.6-0.9L39.7,92z"/>
<path class="st3" d="M354.5,63.2c15.1,1.1,31.4,4.4,42.4,8.7v10.8c-14.4,5.2-31,7.6-42.4,8.7L354.5,63.2"/>
<path class="st3" d="M249.4,94.7l-9.6-1.3V60.8l9.6-1.3V94.7z"/>
<path class="st3" d="M198.6,62.3c14.7,0.9,29-0.3,41-1.5v32.6c-13.6-2-27.4-2.5-41-1.5c-12.4,0.6-25.3,1.4-37.7,2.1
	c-24.8,1.5-50.4,3.1-75.5,3.1c-15.8,0-36-1.6-45.5-5.2V62.2C50.2,58.9,67.2,57,85.4,57c24.8,0,47,1.5,68.4,2.9
	C168.3,60.8,183.3,61.8,198.6,62.3"/>
<polygon class="st4" points="137.4,91.3 179.9,88.5 222.4,88.5 222.4,65.8 179.9,65.8 137.4,63 52.3,63 52.3,91.3 "/>
</svg>
