<svg id="Layer_1" data-name="Layer 1" xmlns="http://www.w3.org/2000/svg" xmlns:xlink="http://www.w3.org/1999/xlink" viewBox="0 0 281.35 320.94"><defs><style>.cls-1,.cls-10,.cls-5,.cls-7,.cls-8{fill:none;}.cls-2{clip-path:url(#clip-path);}.cls-3{fill:#bce3f6;}.cls-4{fill:#545554;}.cls-10,.cls-5,.cls-7{stroke:#3b3734;}.cls-10,.cls-11,.cls-5,.cls-7,.cls-8{stroke-miterlimit:10;}.cls-5{stroke-width:0.93px;}.cls-6{fill:#fff;}.cls-7,.cls-8{stroke-width:0.82px;}.cls-8{stroke:#b7ae9b;stroke-dasharray:3.23 3.23;}.cls-9{fill:#545553;}.cls-10{stroke-width:0.97px;}.cls-11{stroke:#000;stroke-width:1.46px;stroke-dasharray:3.12 3.12;fill:url(#AUTL-Basic-005);}</style><clipPath id="clip-path"><rect class="cls-1" width="56.69" height="56.69"/></clipPath><pattern id="AUTL-Basic-005" data-name="AUTL-Basic-005" x="-265.85" y="-109.36" width="56.69" height="56.69" patternUnits="userSpaceOnUse" viewBox="0 0 56.69 56.69"><rect class="cls-1" width="56.69" height="56.69"/><g class="cls-2"><polygon class="cls-3" points="-33.29 90.19 -33.5 89.98 72.32 -15.84 72.53 -15.63 -33.29 90.19"/><polygon class="cls-3" points="-31.8 91.68 -32.01 91.47 73.81 -14.35 74.02 -14.13 -31.8 91.68"/><polygon class="cls-3" points="-30.3 93.17 -30.52 92.96 75.3 -12.85 75.51 -12.64 -30.3 93.17"/><polygon class="cls-3" points="-28.81 94.67 -29.02 94.45 76.79 -11.36 77 -11.15 -28.81 94.67"/><polygon class="cls-3" points="-27.32 96.16 -27.53 95.95 78.28 -9.87 78.5 -9.66 -27.32 96.16"/><polygon class="cls-3" points="-25.83 97.65 -26.04 97.44 79.78 -8.38 79.99 -8.16 -25.83 97.65"/><polygon class="cls-3" points="-24.34 99.14 -24.55 98.93 81.27 -6.88 81.48 -6.67 -24.34 99.14"/><polygon class="cls-3" points="-22.84 100.63 -23.05 100.42 82.76 -5.39 82.97 -5.18 -22.84 100.63"/><polygon class="cls-3" points="-21.35 102.13 -21.56 101.91 84.25 -3.9 84.46 -3.69 -21.35 102.13"/><polygon class="cls-3" points="-19.86 103.62 -20.07 103.41 85.75 -2.41 85.96 -2.2 -19.86 103.62"/><polygon class="cls-3" points="-18.37 105.11 -18.58 104.9 87.24 -0.92 87.45 -0.7 -18.37 105.11"/><polygon class="cls-3" points="-16.87 106.6 -17.09 106.39 88.73 0.57 88.94 0.79 -16.87 106.6"/><polygon class="cls-3" points="-15.38 108.09 -15.59 107.88 90.22 2.07 90.43 2.28 -15.38 108.09"/><polygon class="cls-3" points="-13.89 109.59 -14.1 109.37 91.71 3.56 91.92 3.77 -13.89 109.59"/><polygon class="cls-3" points="-12.4 111.08 -12.61 110.87 93.2 5.05 93.42 5.26 -12.4 111.08"/><polygon class="cls-3" points="-10.91 112.57 -11.12 112.36 94.7 6.54 94.91 6.76 -10.91 112.57"/><polygon class="cls-3" points="-9.41 114.06 -9.63 113.85 96.19 8.04 96.4 8.25 -9.41 114.06"/><polygon class="cls-3" points="-7.92 115.55 -8.13 115.34 97.68 9.53 97.89 9.74 -7.92 115.55"/><polygon class="cls-3" points="-6.43 117.05 -6.64 116.83 99.17 11.02 99.39 11.23 -6.43 117.05"/><polygon class="cls-3" points="-4.94 118.54 -5.15 118.33 100.67 12.51 100.88 12.72 -4.94 118.54"/><polygon class="cls-3" points="-3.45 120.03 -3.66 119.82 102.16 14 102.37 14.22 -3.45 120.03"/><polygon class="cls-3" points="-1.95 121.52 -2.17 121.31 103.65 15.5 103.86 15.71 -1.95 121.52"/><polygon class="cls-3" points="-0.46 123.02 -0.67 122.8 105.14 16.99 105.35 17.2 -0.46 123.02"/><polygon class="cls-3" points="1.03 124.51 0.82 124.3 106.63 18.48 106.84 18.69 1.03 124.51"/><polygon class="cls-3" points="2.52 126 2.31 125.79 108.13 19.97 108.34 20.18 2.52 126"/><polygon class="cls-3" points="4.01 127.49 3.8 127.28 109.62 21.46 109.83 21.68 4.01 127.49"/><polygon class="cls-3" points="5.51 128.98 5.29 128.77 111.11 22.96 111.32 23.17 5.51 128.98"/><polygon class="cls-3" points="7 130.47 6.79 130.26 112.6 24.45 112.81 24.66 7 130.47"/><polygon class="cls-3" points="8.49 131.97 8.28 131.75 114.09 25.94 114.31 26.15 8.49 131.97"/><polygon class="cls-3" points="9.98 133.46 9.77 133.25 115.59 27.43 115.8 27.64 9.98 133.46"/><polygon class="cls-3" points="11.47 134.95 11.26 134.74 117.08 28.93 117.29 29.14 11.47 134.95"/><polygon class="cls-3" points="12.97 136.44 12.76 136.23 118.57 30.42 118.78 30.63 12.97 136.44"/><polygon class="cls-3" points="14.46 137.94 14.25 137.72 120.06 31.91 120.27 32.12 14.46 137.94"/><polygon class="cls-3" points="15.95 139.43 15.74 139.22 121.55 33.4 121.77 33.61 15.95 139.43"/><polygon class="cls-3" points="17.44 140.92 17.23 140.71 123.05 34.89 123.26 35.1 17.44 140.92"/><polygon class="cls-3" points="18.94 142.41 18.72 142.2 124.54 36.38 124.75 36.6 18.94 142.41"/><polygon class="cls-3" points="20.43 143.9 20.22 143.69 126.03 37.88 126.24 38.09 20.43 143.9"/><polygon class="cls-3" points="21.92 145.4 21.71 145.18 127.52 39.37 127.73 39.58 21.92 145.4"/><polygon class="cls-3" points="23.41 146.89 23.2 146.68 129.01 40.86 129.23 41.07 23.41 146.89"/><polygon class="cls-3" points="24.9 148.38 24.69 148.17 130.51 42.35 130.72 42.56 24.9 148.38"/><polygon class="cls-3" points="26.4 149.87 26.18 149.66 132 43.85 132.21 44.06 26.4 149.87"/><polygon class="cls-3" points="27.89 151.36 27.68 151.15 133.49 45.34 133.7 45.55 27.89 151.36"/><polygon class="cls-3" points="29.38 152.86 29.17 152.64 134.98 46.83 135.19 47.04 29.38 152.86"/><polygon class="cls-3" points="30.87 154.35 30.66 154.14 136.47 48.32 136.69 48.53 30.87 154.35"/><polygon class="cls-3" points="32.36 155.84 32.15 155.63 137.97 49.81 138.18 50.03 32.36 155.84"/><polygon class="cls-3" points="33.86 157.33 33.64 157.12 139.46 51.31 139.67 51.52 33.86 157.33"/><polygon class="cls-3" points="35.35 158.82 35.14 158.61 140.95 52.8 141.16 53.01 35.35 158.82"/><polygon class="cls-3" points="36.84 160.32 36.63 160.1 142.44 54.29 142.66 54.5 36.84 160.32"/><polygon class="cls-3" points="38.33 161.81 38.12 161.6 143.94 55.78 144.15 55.99 38.33 161.81"/><polygon class="cls-3" points="39.83 163.3 39.61 163.09 145.43 57.27 145.64 57.49 39.83 163.3"/><polygon class="cls-3" points="41.32 164.79 41.1 164.58 146.92 58.77 147.13 58.98 41.32 164.79"/><polygon class="cls-3" points="42.81 166.28 42.6 166.07 148.41 60.26 148.62 60.47 42.81 166.28"/><polygon class="cls-3" points="44.3 167.78 44.09 167.56 149.9 61.75 150.12 61.96 44.3 167.78"/><polygon class="cls-3" points="-110.87 12.61 -111.08 12.4 -5.26 -93.42 -5.05 -93.21 -110.87 12.61"/><polygon class="cls-3" points="-109.38 14.1 -109.59 13.89 -3.77 -91.93 -3.56 -91.72 -109.38 14.1"/><polygon class="cls-3" points="-107.88 15.59 -108.1 15.38 -2.28 -90.44 -2.07 -90.22 -107.88 15.59"/><polygon class="cls-3" points="-106.39 17.08 -106.6 16.87 -0.79 -88.94 -0.58 -88.73 -106.39 17.08"/><polygon class="cls-3" points="-104.9 18.58 -105.11 18.36 0.7 -87.45 0.92 -87.24 -104.9 18.58"/><polygon class="cls-3" points="-103.41 20.07 -103.62 19.86 2.19 -85.96 2.41 -85.75 -103.41 20.07"/><polygon class="cls-3" points="-101.92 21.56 -102.13 21.35 3.69 -84.47 3.9 -84.25 -101.92 21.56"/><polygon class="cls-3" points="-100.42 23.05 -100.64 22.84 5.18 -82.97 5.39 -82.76 -100.42 23.05"/><polygon class="cls-3" points="-98.93 24.55 -99.14 24.33 6.67 -81.48 6.88 -81.27 -98.93 24.55"/><polygon class="cls-3" points="-97.44 26.04 -97.65 25.82 8.16 -79.99 8.38 -79.78 -97.44 26.04"/><polygon class="cls-3" points="-95.95 27.53 -96.16 27.32 9.65 -78.5 9.87 -78.29 -95.95 27.53"/><polygon class="cls-3" points="-94.45 29.02 -94.67 28.81 11.15 -77.01 11.36 -76.79 -94.45 29.02"/><polygon class="cls-3" points="-92.96 30.51 -93.17 30.3 12.64 -75.51 12.85 -75.3 -92.96 30.51"/><polygon class="cls-3" points="-91.47 32.01 -91.68 31.79 14.13 -74.02 14.34 -73.81 -91.47 32.01"/><polygon class="cls-3" points="-89.98 33.5 -90.19 33.28 15.62 -72.53 15.84 -72.32 -89.98 33.5"/><polygon class="cls-3" points="-88.49 34.99 -88.7 34.78 17.12 -71.04 17.33 -70.83 -88.49 34.99"/><polygon class="cls-3" points="-87 36.48 -87.21 36.27 18.61 -69.55 18.82 -69.33 -87 36.48"/><polygon class="cls-3" points="-85.5 37.97 -85.72 37.76 20.1 -68.05 20.31 -67.84 -85.5 37.97"/><polygon class="cls-3" points="-84.01 39.47 -84.22 39.25 21.59 -66.56 21.8 -66.35 -84.01 39.47"/><polygon class="cls-3" points="-82.52 40.96 -82.73 40.74 23.08 -65.07 23.3 -64.86 -82.52 40.96"/><polygon class="cls-3" points="-81.03 42.45 -81.24 42.24 24.58 -63.58 24.79 -63.37 -81.03 42.45"/><polygon class="cls-3" points="-79.53 43.94 -79.75 43.73 26.07 -62.09 26.28 -61.87 -79.53 43.94"/><polygon class="cls-3" points="-78.04 45.43 -78.25 45.22 27.56 -60.59 27.77 -60.38 -78.04 45.43"/><polygon class="cls-3" points="-76.55 46.93 -76.76 46.71 29.05 -59.1 29.26 -58.89 -76.55 46.93"/><polygon class="cls-3" points="-75.06 48.42 -75.27 48.21 30.55 -57.61 30.76 -57.4 -75.06 48.42"/><polygon class="cls-3" points="-73.57 49.91 -73.78 49.7 32.04 -56.12 32.25 -55.91 -73.57 49.91"/><polygon class="cls-3" points="-72.07 51.4 -72.29 51.19 33.53 -54.63 33.74 -54.41 -72.07 51.4"/><polygon class="cls-3" points="-70.58 52.89 -70.79 52.68 35.02 -53.13 35.23 -52.92 -70.58 52.89"/><polygon class="cls-3" points="-69.09 54.39 -69.3 54.17 36.51 -51.64 36.73 -51.43 -69.09 54.39"/><polygon class="cls-3" points="-67.6 55.88 -67.81 55.67 38.01 -50.15 38.22 -49.94 -67.6 55.88"/><polygon class="cls-3" points="-66.11 57.37 -66.32 57.16 39.5 -48.66 39.71 -48.44 -66.11 57.37"/><polygon class="cls-3" points="-64.61 58.86 -64.83 58.65 40.99 -47.16 41.2 -46.95 -64.61 58.86"/><polygon class="cls-3" points="-63.12 60.35 -63.33 60.14 42.48 -45.67 42.69 -45.46 -63.12 60.35"/><polygon class="cls-3" points="-61.63 61.85 -61.84 61.63 43.97 -44.18 44.19 -43.97 -61.63 61.85"/><polygon class="cls-3" points="-60.14 63.34 -60.35 63.13 45.47 -42.69 45.68 -42.48 -60.14 63.34"/><polygon class="cls-3" points="-58.65 64.83 -58.86 64.62 46.96 -41.2 47.17 -40.98 -58.65 64.83"/><polygon class="cls-3" points="-57.15 66.32 -57.37 66.11 48.45 -39.7 48.66 -39.49 -57.15 66.32"/><polygon class="cls-3" points="-55.66 67.81 -55.87 67.6 49.94 -38.21 50.15 -38 -55.66 67.81"/><polygon class="cls-3" points="-54.17 69.31 -54.38 69.09 51.43 -36.72 51.65 -36.51 -54.17 69.31"/><polygon class="cls-3" points="-52.68 70.8 -52.89 70.59 52.92 -35.23 53.14 -35.02 -52.68 70.8"/><polygon class="cls-3" points="-51.19 72.29 -51.4 72.08 54.42 -33.74 54.63 -33.52 -51.19 72.29"/><polygon class="cls-3" points="-49.69 73.78 -49.91 73.57 55.91 -32.24 56.12 -32.03 -49.69 73.78"/><polygon class="cls-3" points="-48.2 75.28 -48.41 75.06 57.4 -30.75 57.61 -30.54 -48.2 75.28"/><polygon class="cls-3" points="-46.71 76.77 -46.92 76.56 58.89 -29.26 59.11 -29.05 -46.71 76.77"/><polygon class="cls-3" points="-45.22 78.26 -45.43 78.05 60.39 -27.77 60.6 -27.56 -45.22 78.26"/><polygon class="cls-3" points="-43.73 79.75 -43.94 79.54 61.88 -26.27 62.09 -26.06 -43.73 79.75"/><polygon class="cls-3" points="-42.23 81.24 -42.45 81.03 63.37 -24.78 63.58 -24.57 -42.23 81.24"/><polygon class="cls-3" points="-40.74 82.74 -40.95 82.52 64.86 -23.29 65.07 -23.08 -40.74 82.74"/><polygon class="cls-3" points="-39.25 84.23 -39.46 84.02 66.35 -21.8 66.57 -21.59 -39.25 84.23"/><polygon class="cls-3" points="-37.76 85.72 -37.97 85.51 67.85 -20.31 68.06 -20.09 -37.76 85.72"/><polygon class="cls-3" points="-36.26 87.21 -36.48 87 69.34 -18.82 69.55 -18.6 -36.26 87.21"/><polygon class="cls-3" points="-34.77 88.7 -34.98 88.49 70.83 -17.32 71.04 -17.11 -34.77 88.7"/></g></pattern></defs><title>LINEDRAWING</title><path class="cls-4" d="M506.51,412.26c3.21,3.2,3.49,11,15.94,4.29s14.69-263.31,10-283.81-15.76,0-15.76,0h-4.51s16.67-32.59,24.1-1.26.46,278.34-9.56,286.86-18.29,4.38-23.06-.41-.33-8.87,2.89-5.67" transform="translate(-265.85 -109.36)"/><path class="cls-5" d="M506.51,412.26c3.21,3.2,3.49,11,15.94,4.29s14.69-263.31,10-283.81-15.76,0-15.76,0h-4.51s16.67-32.59,24.1-1.26.46,278.34-9.56,286.86-18.29,4.38-23.06-.41S503.29,409.06,506.51,412.26Z" transform="translate(-265.85 -109.36)"/><path class="cls-4" d="M306.53,412.08c-3.21,3.2-3.49,10.95-15.94,4.28s-14.69-263.31-10-283.8,15.76,0,15.76,0h4.51s-16.67-32.6-24.1-1.27-.46,278.34,9.57,286.86,18.28,4.39,23.05-.4.33-8.87-2.89-5.67" transform="translate(-265.85 -109.36)"/><path class="cls-5" d="M306.53,412.08c-3.21,3.2-3.49,10.95-15.94,4.28s-14.69-263.31-10-283.8,15.76,0,15.76,0h4.51s-16.67-32.6-24.1-1.27-.46,278.34,9.57,286.86,18.28,4.39,23.05-.4S309.75,408.88,306.53,412.08Z" transform="translate(-265.85 -109.36)"/><rect class="cls-6" x="20.34" y="15.84" width="240.94" height="304.72"/><rect class="cls-7" x="20.4" y="15.86" width="240.82" height="304.67"/><line class="cls-8" x1="24.74" y1="21.62" x2="258.35" y2="21.62"/><polygon class="cls-9" points="196.75 320.59 261.28 320.59 261.28 264.69 196.75 320.59"/><path class="cls-6" d="M518.15,415.4c0,3.88-3.45,7-7.7,7s-7.7-3.15-7.7-7,3.44-7,7.7-7,7.7,3.15,7.7,7" transform="translate(-265.85 -109.36)"/><polygon class="cls-9" points="20.34 320.59 84.87 320.59 20.34 264.69 20.34 320.59"/><path class="cls-6" d="M295.17,415.58a7.72,7.72,0,1,0,7.7-7.23,7.47,7.47,0,0,0-7.7,7.23" transform="translate(-265.85 -109.36)"/><path class="cls-4" d="M512.4,417.6c3.36,3.35,3.65,11.45,16.65,4.48S544.4,147,539.46,125.57s-16.47,0-16.47,0h-4.7s17.41-34.06,25.17-1.33.48,290.81-10,299.71-19.11,4.58-24.09-.42-.34-9.27,3-5.93" transform="translate(-265.85 -109.36)"/><path class="cls-10" d="M512.4,417.6c3.36,3.35,3.65,11.45,16.65,4.48S544.4,147,539.46,125.57s-16.47,0-16.47,0h-4.7s17.41-34.06,25.17-1.33.48,290.81-10,299.71-19.11,4.58-24.09-.42S509,414.26,512.4,417.6Z" transform="translate(-265.85 -109.36)"/><path class="cls-4" d="M300.64,417.42c-3.35,3.34-3.65,11.45-16.65,4.48s-15.35-275.1-10.41-296.52,16.47,0,16.47,0h4.71s-17.42-34-25.18-1.32-.48,290.8,10,299.71,19.11,4.58,24.09-.43.34-9.27-3-5.92" transform="translate(-265.85 -109.36)"/><path class="cls-10" d="M300.64,417.42c-3.35,3.34-3.65,11.45-16.65,4.48s-15.35-275.1-10.41-296.52,16.47,0,16.47,0h4.71s-17.42-34-25.18-1.32-.48,290.8,10,299.71,19.11,4.58,24.09-.43S304,414.07,300.64,417.42Z" transform="translate(-265.85 -109.36)"/><rect class="cls-11" x="64.64" y="75.08" width="155.91" height="184.25"/></svg>