<svg xmlns="http://www.w3.org/2000/svg" viewBox="0 0 480.5 154.34"><defs><style>@import url("https://fonts.googleapis.com/css?family=Montserrat:800");.cls-1{font-size:10.15px;fill:#4d4d4d;font-family:Montserrat-Regular, Montserrat;}.cls-2{letter-spacing:-0.02em;}.cls-3{letter-spacing:-0.01em;}.cls-4{letter-spacing:-0.01em;}.cls-5{letter-spacing:-0.02em;}.cls-6{letter-spacing:-0.01em;}.cls-7{letter-spacing:-0.01em;}.cls-8{letter-spacing:0em;}.cls-9{letter-spacing:0em;}@import url("https://fonts.googleapis.com/css?family=Montserrat:800");.cls-10{letter-spacing:0.01em;}@import url("https://fonts.googleapis.com/css?family=Montserrat:800");.cls-11{letter-spacing:-0.01em;}@import url("https://fonts.googleapis.com/css?family=Montserrat:800");.cls-12,@import url("https://fonts.googleapis.com/css?family=Montserrat:800");.cls-13,@import url("https://fonts.googleapis.com/css?family=Montserrat:800");.cls-18,@import url("https://fonts.googleapis.com/css?family=Montserrat:800");.cls-19,.cls-20{fill:none;stroke-miterlimit:22.93;}@import url("https://fonts.googleapis.com/css?family=Montserrat:800");.cls-12,@import url("https://fonts.googleapis.com/css?family=Montserrat:800");.cls-18{stroke:#1d1d1b;}@import url("https://fonts.googleapis.com/css?family=Montserrat:800");.cls-12,@import url("https://fonts.googleapis.com/css?family=Montserrat:800");.cls-13{stroke-width:0.58px;}@import url("https://fonts.googleapis.com/css?family=Montserrat:800");.cls-13{stroke:#e20613;}@import url("https://fonts.googleapis.com/css?family=Montserrat:800");.cls-14{font-size:8.83px;fill:#1d1d1b;font-family:Montserrat-Bold, Montserrat;font-weight:700;}@import url("https://fonts.googleapis.com/css?family=Montserrat:800");.cls-15{letter-spacing:-0.01em;}@import url("https://fonts.googleapis.com/css?family=Montserrat:800");.cls-16{letter-spacing:-0.01em;}@import url("https://fonts.googleapis.com/css?family=Montserrat:800");.cls-17{letter-spacing:-0.01em;}@import url("https://fonts.googleapis.com/css?family=Montserrat:800");.cls-18{stroke-width:0.67px;}@import url("https://fonts.googleapis.com/css?family=Montserrat:800");.cls-19{stroke:#e5007e;stroke-width:0.69px;stroke-dasharray:1.69 1.47;}.cls-20{stroke:#009ee2;stroke-width:0.54px;stroke-dasharray:4.02 4.02;}</style></defs><title>Asset 2</title><g id="Layer_2" data-name="Layer 2"><g id="Layer_1-2" data-name="Layer 1"><text class="cls-1" transform="translate(299.55 8.63)">* <tspan class="cls-2" x="6.58" y="0">P</tspan><tspan class="cls-3" x="13.63" y="0">r</tspan><tspan x="17.62" y="0">int a</tspan><tspan class="cls-4" x="39.98" y="0">r</tspan><tspan class="cls-5" x="43.92" y="0">e</tspan><tspan x="49.9" y="0">a p</tspan><tspan class="cls-6" x="65.42" y="0">r</tspan><tspan class="cls-7" x="69.36" y="0">e</tspan><tspan x="75.39" y="0">vi</tspan><tspan class="cls-7" x="83.62" y="0">e</tspan><tspan x="89.65" y="0">w (</tspan><tspan class="cls-8" x="104.56" y="0">n</tspan><tspan x="111.46" y="0">ot </tspan><tspan class="cls-9" x="124.6" y="0">a</tspan><tspan class="cls-1".cls-10" x="130.6" y="0">c</tspan><tspan x="136.38" y="0">tual si</tspan><tspan class="cls-1".cls-11" x="166.4" y="0">z</tspan><tspan x="171.49" y="0">e)</tspan></text><path class="cls-1".cls-12" d="M433.43,33.09h2.09a5.18,5.18,0,0,1,5.17,5.17V56.44a41.34,41.34,0,1,1-12.42,0V38.26A5.18,5.18,0,0,1,433.43,33.09Z"/><path class="cls-1".cls-13" d="M453.55,57.94a43.67,43.67,0,1,1-38.29,0"/><text class="cls-1".cls-14" transform="translate(411.51 93.88)"><tspan class="cls-1".cls-15">T</tspan><tspan x="5.37" y="0">OP </tspan><tspan class="cls-1".cls-16" x="21.77" y="0">V</tspan><tspan x="28.22" y="0">I</tspan><tspan class="cls-1".cls-15" x="31.12" y="0">E</tspan><tspan x="36.95" y="0">W</tspan><tspan x="-12.57" y="10.59">OF </tspan><tspan class="cls-1".cls-17" x="3.02" y="10.59">P</tspan><tspan x="9.39" y="10.59">RINT AREA</tspan></text><path class="cls-1".cls-18" d="M160.64,24.2q-.51,61.05-1,122.1c-.23,2.11-.9,4.08-4.64,5.14-36.38,3.37-70.36,3.31-100.76-1.39-3.17-.19-3.95-2.57-3.63-5.92q.1-58.38.2-116.77c-.88-4.65,2-5.37,5.45-5.53C88.12,19.1,121.91,19.49,157,22,158.81,22.18,160.18,22.74,160.64,24.2Z"/><path class="cls-1".cls-18" d="M50.75,41.45a3.38,3.38,0,0,1-2.61,1.45,95.49,95.49,0,0,0-14.92.18c-6.84,1.13-12.8,3.63-17.18,7.73C11.61,54.51,7.37,60,4,69.09a47.67,47.67,0,0,0-2.83,27c1.74,10.14,5.26,18.14,13.58,24.07,4.75,4.24,11.15,6.78,19.64,8.16a64.75,64.75,0,0,0,13,.56c1.68.36,2.36,2.1,3.22,3.46l0-26.24c-2.21,2.78-4,6.43-6.09,9.59-4.08,4-9.64,5.12-17,2.83-14.39-7-18.74-18-19.53-30.35a35.59,35.59,0,0,1,8.11-25.65A26.35,26.35,0,0,1,34.35,51.19c4.52-.13,8.77,1,12.27,5.65a31.7,31.7,0,0,0,4.09,8.6Z"/><path class="cls-1".cls-18" d="M221.42,24.41q.51,61.05,1,122.1c.23,2.11.9,4.09,4.63,5.14,36.38,3.37,70.36,3.31,100.76-1.39,3.17-.19,3.94-2.56,3.63-5.92l-.21-116.76c.89-4.66-2-5.38-5.44-5.54-31.87-2.73-65.66-2.33-100.75.2C223.25,22.39,221.88,23,221.42,24.41Z"/><path class="cls-1".cls-18" d="M331.3,41.45a3.38,3.38,0,0,0,2.61,1.45,95.36,95.36,0,0,1,14.91.18c6.85,1.13,12.81,3.63,17.18,7.73,4.44,3.7,8.68,9.2,12.08,18.28a47.59,47.59,0,0,1,2.84,27c-1.75,10.14-5.27,18.14-13.58,24.07-4.75,4.24-11.15,6.78-19.65,8.16a64.65,64.65,0,0,1-13,.56c-1.68.36-2.36,2.1-3.22,3.46l0-26.24c2.21,2.78,4,6.43,6.09,9.59,4.08,4,9.64,5.12,17,2.83,14.39-7,18.73-18,19.52-30.35a35.59,35.59,0,0,0-8.1-25.65,26.35,26.35,0,0,0-18.22-11.29c-4.51-.13-8.76,1-12.27,5.65a31.39,31.39,0,0,1-4.08,8.6Z"/><rect class="cls-1".cls-19" x="43.51" y="22.01" width="294.92" height="129.36"/><rect class="cls-20" x="56.92" y="33.3" width="268.11" height="106.78"/></g></g></svg>