<svg id="Layer_1" data-name="Layer 1" xmlns="http://www.w3.org/2000/svg" viewBox="0 0 277.09 44.67"><defs><style>.cls-1,.cls-2{fill:#4d4d4d;}.cls-2{font-size:14.52px;font-family:Montserrat-SemiBold, Montserrat SemiBold;}.cls-3{letter-spacing:-0.01em;}.cls-4{letter-spacing:0.01em;}.cls-5{letter-spacing:-0.01em;}.cls-6{letter-spacing:-0.03em;}.cls-7{font-family:Montserrat-Medium, Montserrat Medium;}.cls-8{letter-spacing:-0.01em;}.cls-9{letter-spacing:-0.02em;}</style></defs><title>Artboard 43 copy 4</title><path class="cls-1" d="M20.86,19.92a.58.58,0,0,1-.55.61.61.61,0,0,1,0-1.21.57.57,0,0,1,.55.6Zm0,0"/><path class="cls-1" d="M22.51,18.72a.55.55,0,1,1-1.09,0,.55.55,0,1,1,1.09,0Zm0,0"/><path class="cls-1" d="M19.21,18.72a.57.57,0,0,1-.54.6.58.58,0,0,1-.56-.6.59.59,0,0,1,.56-.61.58.58,0,0,1,.54.61Zm0,0"/><path class="cls-1" d="M17.56,17.51a.57.57,0,0,1-.55.6.57.57,0,0,1-.55-.6.58.58,0,0,1,.55-.6.57.57,0,0,1,.55.6Zm0,0"/><path class="cls-1" d="M24.17,17.51a.56.56,0,1,1-.56-.6.58.58,0,0,1,.56.6Zm0,0"/><path class="cls-1" d="M25.81,16.31a.57.57,0,0,1-.55.6.6.6,0,0,1,0-1.2.57.57,0,0,1,.55.6Zm0,0"/><path class="cls-1" d="M15.92,16.31a.56.56,0,1,1-.56-.6.58.58,0,0,1,.56.6Zm0,0"/><path class="cls-1" d="M20.86,17.51a.57.57,0,0,1-.55.6.57.57,0,0,1-.55-.6.58.58,0,0,1,.55-.6.57.57,0,0,1,.55.6Zm0,0"/><path class="cls-1" d="M20.86,24.74a.58.58,0,0,1-.55.61.61.61,0,0,1,0-1.21.57.57,0,0,1,.55.6Zm0,0"/><path class="cls-1" d="M20.86,26.55a.57.57,0,0,1-.55.6.6.6,0,0,1,0-1.2.57.57,0,0,1,.55.6Zm0,0"/><path class="cls-1" d="M20.86,28.36a.57.57,0,0,1-.55.6.58.58,0,0,1-.55-.6.59.59,0,0,1,.55-.61.58.58,0,0,1,.55.61Zm0,0"/><path class="cls-1" d="M20.86,30.16a.58.58,0,0,1-.55.61.61.61,0,0,1,0-1.21.57.57,0,0,1,.55.6Zm0,0"/><path class="cls-1" d="M20.86,32a.58.58,0,0,1-.55.61.61.61,0,0,1,0-1.21.57.57,0,0,1,.55.6Zm0,0"/><path class="cls-1" d="M20.86,33.78a.57.57,0,0,1-.55.6.6.6,0,0,1,0-1.2.57.57,0,0,1,.55.6Zm0,0"/><path class="cls-1" d="M33.51,39.2H31.86V36.79H29.11V30.63a5,5,0,0,0-2-4L21.3,22.33l5.84-4.26a5,5,0,0,0,2-4V7.87h2.75V5.47h1.65a.58.58,0,0,0,.55-.61.57.57,0,0,0-.55-.6H7.12a.58.58,0,0,0-.56.6.59.59,0,0,0,.56.61H8.76v2.4h2.75V14a5,5,0,0,0,2,4l5.83,4.26-5.83,4.26a5,5,0,0,0-2,4v6.16H8.76V39.2H7.12a.61.61,0,0,0,0,1.21H33.51a.61.61,0,0,0,0-1.21ZM9.87,6.67V5.47H30.76v1.2Zm4.23,10.4a3.74,3.74,0,0,1-1.48-3V7.87H28V14a3.74,3.74,0,0,1-1.48,3l-6.22,4.54ZM12.62,30.63a3.73,3.73,0,0,1,1.48-3l6.21-4.54,6.22,4.54a3.73,3.73,0,0,1,1.48,3v6.16H12.62ZM9.87,38H30.76v1.2H9.87Zm0,0"/><text class="cls-2" transform="translate(40.3 19.05)">US<tspan class="cls-3" x="20.59" y="0">L</tspan><tspan x="29.15" y="0">UG</tspan><tspan class="cls-4" x="51.82" y="0">A</tspan><tspan x="62.84" y="0">: </tspan><tspan class="cls-5" x="70.39" y="0">2</tspan><tspan x="78.62" y="0">4 S</tspan><tspan class="cls-6" x="101.63" y="0">AT</tspan><tspan x="120.23" y="0">A</tspan><tspan class="cls-7"><tspan x="0" y="17.43">SER</tspan><tspan class="cls-5" x="29.31" y="17.43">V</tspan><tspan x="39.43" y="17.43">IC</tspan><tspan class="cls-8" x="54.43" y="17.43">E</tspan><tspan x="64.06" y="17.43">: </tspan><tspan class="cls-9" x="71.26" y="17.43">2</tspan><tspan x="79.32" y="17.43">4 HOURS</tspan></tspan></text></svg>