<svg id="Layer_1" data-name="Layer 1" xmlns="http://www.w3.org/2000/svg" viewBox="0 0 277.09 44.67"><defs><style>@import url("https://fonts.googleapis.com/css?family=Montserrat:800");.cls-1,.cls-2{fill:#4d4d4d;}.cls-2{font-size:14.52px;font-family:Montserrat-SemiBold, Montserrat SemiBold;}.cls-3{letter-spacing:-0.01em;}.cls-4{letter-spacing:0.01em;}.cls-5{letter-spacing:-0.01em;}.cls-6{letter-spacing:0em;}.cls-7{letter-spacing:-0.01em;}.cls-8{font-family:Montserrat-Medium, Montserrat Medium;}.cls-9{letter-spacing:-0.01em;}@import url("https://fonts.googleapis.com/css?family=Montserrat:800");.cls-10{letter-spacing:-0.01em;}@import url("https://fonts.googleapis.com/css?family=Montserrat:800");.cls-11{letter-spacing:-0.03em;}@import url("https://fonts.googleapis.com/css?family=Montserrat:800");.cls-12{letter-spacing:-0.04em;}@import url("https://fonts.googleapis.com/css?family=Montserrat:800");.cls-13{letter-spacing:-0.01em;}@import url("https://fonts.googleapis.com/css?family=Montserrat:800");.cls-14{letter-spacing:0em;}</style></defs><title>Artboard 43 copy</title><path class="cls-1" d="M20.31,19.32a.61.61,0,1,0,.55.6A.57.57,0,0,0,20.31,19.32Z"/><path class="cls-1" d="M22,18.11a.58.58,0,0,0-.54.61.55.55,0,1,0,1.09,0A.58.58,0,0,0,22,18.11Z"/><path class="cls-1" d="M18.67,18.11a.59.59,0,0,0-.56.61.58.58,0,0,0,.56.6.57.57,0,0,0,.54-.6A.58.58,0,0,0,18.67,18.11Z"/><path class="cls-1" d="M17,16.91a.58.58,0,0,0-.55.6.57.57,0,0,0,.55.6.57.57,0,0,0,.55-.6A.57.57,0,0,0,17,16.91Z"/><path class="cls-1" d="M23.61,16.91a.58.58,0,0,0-.55.6.56.56,0,1,0,1.11,0A.58.58,0,0,0,23.61,16.91Z"/><ellipse class="cls-1" cx="25.26" cy="16.31" rx="0.55" ry="0.6"/><path class="cls-1" d="M15.36,15.71a.6.6,0,1,0,.56.6A.58.58,0,0,0,15.36,15.71Z"/><path class="cls-1" d="M20.31,16.91a.58.58,0,0,0-.55.6.57.57,0,0,0,.55.6.57.57,0,0,0,.55-.6A.57.57,0,0,0,20.31,16.91Z"/><path class="cls-1" d="M19.76,24.74a.58.58,0,0,0,.55.61.61.61,0,1,0-.55-.61Z"/><path class="cls-1" d="M20.31,26a.6.6,0,0,0,0,1.2.6.6,0,0,0,0-1.2Z"/><path class="cls-1" d="M20.31,27.75a.59.59,0,0,0-.55.61.58.58,0,0,0,.55.6.57.57,0,0,0,.55-.6A.58.58,0,0,0,20.31,27.75Z"/><path class="cls-1" d="M20.31,29.56a.61.61,0,1,0,.55.6A.57.57,0,0,0,20.31,29.56Z"/><path class="cls-1" d="M20.31,31.37a.61.61,0,1,0,.55.6A.57.57,0,0,0,20.31,31.37Z"/><path class="cls-1" d="M20.31,33.18a.6.6,0,0,0,0,1.2.6.6,0,0,0,0-1.2Z"/><path class="cls-1" d="M29.11,14V7.87h2.75V5.47h1.65a.58.58,0,0,0,.55-.61.57.57,0,0,0-.55-.6H7.12a.58.58,0,0,0-.56.6.59.59,0,0,0,.56.61H8.76v2.4h2.75V14a5,5,0,0,0,2,4l5.83,4.26-5.83,4.26a5,5,0,0,0-2,4v6.16H8.76V39.2H7.12a.61.61,0,0,0,0,1.21H33.51a.61.61,0,0,0,0-1.21H31.86V36.79H29.11V30.63a5,5,0,0,0-2-4L21.3,22.33l5.84-4.26A5,5,0,0,0,29.11,14ZM9.87,6.67V5.47H30.76v1.2ZM30.76,38v1.2H9.87V38ZM26.53,27.6a3.73,3.73,0,0,1,1.48,3v6.16H12.62V30.63a3.73,3.73,0,0,1,1.48-3l6.21-4.54Zm-6.22-6L14.1,17.07a3.74,3.74,0,0,1-1.48-3V7.87H28V14a3.74,3.74,0,0,1-1.48,3Z"/><text class="cls-2" transform="translate(40.3 19.13)">US<tspan class="cls-3" x="20.59" y="0">L</tspan><tspan x="29.15" y="0">UG</tspan><tspan class="cls-4" x="51.82" y="0">A</tspan><tspan x="62.84" y="0">: BR</tspan><tspan class="cls-5" x="92.06" y="0">Z</tspan><tspan class="cls-6" x="101.57" y="0">O (7 </tspan><tspan class="cls-7" x="135.68" y="0">D</tspan><tspan x="147.53" y="0">ANA)</tspan><tspan class="cls-8"><tspan x="0" y="17.43">SER</tspan><tspan class="cls-9" x="29.31" y="17.43">V</tspan><tspan x="39.43" y="17.43">IC</tspan><tspan class="cls-1".cls-10" x="54.43" y="17.43">E</tspan><tspan x="64.06" y="17.43">: </tspan><tspan class="cls-1".cls-11" x="71.26" y="17.43">F</tspan><tspan x="80.02" y="17.43">A</tspan><tspan class="cls-3" x="90.65" y="17.43">S</tspan><tspan x="99.52" y="17.43">T (7 </tspan><tspan class="cls-7" x="129.44" y="17.43">D</tspan><tspan class="cls-1".cls-12" x="141.29" y="17.43">A</tspan><tspan class="cls-1".cls-13" x="151.31" y="17.43">Y</tspan><tspan class="cls-1".cls-14" x="160.49" y="17.43">S)</tspan></tspan></text></svg>