<svg xmlns="http://www.w3.org/2000/svg" xmlns:xlink="http://www.w3.org/1999/xlink" viewBox="0 0 327 327"><defs><style>.cls-1{fill:url(#linear-gradient);}.cls-2{fill:none;}.cls-3{isolation:isolate;}.cls-4{clip-path:url(#clip-path);}.cls-5{mask:url(#mask);}.cls-6{fill:url(#linear-gradient-2);}.cls-7{fill:url(#linear-gradient-3);}.cls-8{fill:url(#linear-gradient-4);}.cls-9{fill:url(#linear-gradient-5);}.cls-10,.cls-11,.cls-12,.cls-15,.cls-18,.cls-19,.cls-20,.cls-23,.cls-24,.cls-32,.cls-33,.cls-34,.cls-37,.cls-40,.cls-41,.cls-42,.cls-45,.cls-46{opacity:0.6;}.cls-10,.cls-11,.cls-12,.cls-14,.cls-15,.cls-18,.cls-19,.cls-20,.cls-23,.cls-24,.cls-32,.cls-33,.cls-34,.cls-36,.cls-37,.cls-40,.cls-41,.cls-42,.cls-45,.cls-46{mix-blend-mode:overlay;}.cls-10{fill:url(#linear-gradient-6);}.cls-11{fill:url(#linear-gradient-7);}.cls-12{fill:url(#linear-gradient-8);}.cls-13{fill:url(#linear-gradient-9);}.cls-14,.cls-36{opacity:0.72;}.cls-14{fill:url(#radial-gradient);}.cls-15{fill:url(#linear-gradient-10);}.cls-16{fill:url(#linear-gradient-11);}.cls-17{fill:url(#linear-gradient-12);}.cls-18{fill:url(#radial-gradient-2);}.cls-19{fill:url(#linear-gradient-13);}.cls-20{fill:url(#linear-gradient-14);}.cls-21{fill:url(#linear-gradient-15);}.cls-22{fill:url(#linear-gradient-16);}.cls-23{fill:url(#linear-gradient-17);}.cls-24{fill:url(#linear-gradient-18);}.cls-25,.cls-26,.cls-47,.cls-48{opacity:0.8;mix-blend-mode:multiply;}.cls-25{fill:url(#linear-gradient-19);}.cls-26{fill:url(#linear-gradient-20);}.cls-27{fill:#fff;}.cls-28{fill:url(#linear-gradient-21);}.cls-29{fill:url(#linear-gradient-22);}.cls-30{fill:url(#linear-gradient-23);}.cls-31{fill:url(#linear-gradient-24);}.cls-32{fill:url(#linear-gradient-25);}.cls-33{fill:url(#linear-gradient-26);}.cls-34{fill:url(#linear-gradient-27);}.cls-35{fill:url(#linear-gradient-28);}.cls-36{fill:url(#radial-gradient-3);}.cls-37{fill:url(#linear-gradient-29);}.cls-38{fill:url(#linear-gradient-30);}.cls-39{fill:url(#linear-gradient-31);}.cls-40{fill:url(#radial-gradient-4);}.cls-41{fill:url(#linear-gradient-32);}.cls-42{fill:url(#linear-gradient-33);}.cls-43{fill:url(#linear-gradient-34);}.cls-44{fill:url(#linear-gradient-35);}.cls-45{fill:url(#linear-gradient-36);}.cls-46{fill:url(#linear-gradient-37);}.cls-47{fill:url(#linear-gradient-38);}.cls-48{fill:url(#linear-gradient-39);}.cls-49{fill:#4d4d4d;}</style><linearGradient id="linear-gradient" x1="160.92" y1="288.37" x2="160.92" y2="154.67" gradientUnits="userSpaceOnUse"><stop offset="0"/><stop offset="1" stop-color="#fff"/></linearGradient><clipPath id="clip-path"><rect class="cls-2" x="0.45" y="185.22" width="326.98" height="134.14"/></clipPath><mask id="mask" x="-7.09" y="179.16" width="336.02" height="178.94" maskUnits="userSpaceOnUse"><rect class="cls-1" x="-7.09" y="187.87" width="336.02" height="133.17"/></mask><linearGradient id="linear-gradient-2" x1="-180.11" y1="884.47" x2="-84.34" y2="1026.14" gradientTransform="matrix(0.7, 0.71, 0.71, -0.7, -382.34, 997.01)" gradientUnits="userSpaceOnUse"><stop offset="0" stop-color="#949699"/><stop offset="1" stop-color="#c9cacb"/></linearGradient><linearGradient id="linear-gradient-3" x1="-215.49" y1="891.15" x2="-186.55" y2="967.97" gradientTransform="matrix(0.7, 0.71, 0.71, -0.7, -382.34, 997.01)" gradientUnits="userSpaceOnUse"><stop offset="0" stop-color="#bbbcbf"/><stop offset="1" stop-color="#dadbdc"/></linearGradient><linearGradient id="linear-gradient-4" x1="-120.22" y1="973.67" x2="-102.26" y2="1024.55" xlink:href="#linear-gradient-3"/><linearGradient id="linear-gradient-5" x1="-43.24" y1="1017.23" x2="-125.33" y2="877.26" gradientTransform="matrix(0.7, 0.71, 0.71, -0.7, -382.34, 997.01)" gradientUnits="userSpaceOnUse"><stop offset="0" stop-color="#f8f9f9"/><stop offset="1" stop-color="#cfd0d2"/></linearGradient><linearGradient id="linear-gradient-6" x1="-57.89" y1="1025.04" x2="-135.33" y2="893" gradientTransform="matrix(0.7, 0.71, 0.71, -0.7, -382.34, 997.01)" gradientUnits="userSpaceOnUse"><stop offset="0" stop-color="#fff" stop-opacity="0"/><stop offset="0.46" stop-color="#fff"/><stop offset="0.6" stop-color="#fff" stop-opacity="0.69"/><stop offset="0.74" stop-color="#fff" stop-opacity="0.4"/><stop offset="0.86" stop-color="#fff" stop-opacity="0.18"/><stop offset="0.95" stop-color="#fff" stop-opacity="0.05"/><stop offset="1" stop-color="#fff" stop-opacity="0"/></linearGradient><linearGradient id="linear-gradient-7" x1="-186.09" y1="974.85" x2="-263.53" y2="842.81" xlink:href="#linear-gradient-6"/><linearGradient id="linear-gradient-8" x1="-198.7" y1="963.49" x2="-61.03" y2="1019.86" xlink:href="#linear-gradient-6"/><linearGradient id="linear-gradient-9" x1="-228.67" y1="787.11" x2="-21.16" y2="1105.37" xlink:href="#linear-gradient-5"/><radialGradient id="radial-gradient" cx="4268.64" cy="34.56" r="5.13" gradientTransform="matrix(0.24, 0, -0.01, -4.16, -859.47, 441.23)" gradientUnits="userSpaceOnUse"><stop offset="0" stop-color="#fff"/><stop offset="0.26" stop-color="#fff" stop-opacity="0.69"/><stop offset="0.53" stop-color="#fff" stop-opacity="0.4"/><stop offset="0.75" stop-color="#fff" stop-opacity="0.18"/><stop offset="0.91" stop-color="#fff" stop-opacity="0.05"/><stop offset="1" stop-color="#fff" stop-opacity="0"/></radialGradient><linearGradient id="linear-gradient-10" x1="-263.73" y1="840.74" x2="-126.05" y2="897.11" xlink:href="#linear-gradient-6"/><linearGradient id="linear-gradient-11" x1="126.5" y1="-23.18" x2="20.75" y2="84.57" gradientTransform="matrix(1, 0, 0, -1, 0, 289.11)" xlink:href="#linear-gradient-5"/><linearGradient id="linear-gradient-12" x1="297.61" y1="-73.79" x2="110.54" y2="104.6" gradientTransform="matrix(1, 0, 0, -1, 0, 289.11)" xlink:href="#linear-gradient-3"/><radialGradient id="radial-gradient-2" cx="1182.14" cy="179.83" r="5.13" gradientTransform="matrix(0.55, 0, 0, -9.7, -523.87, 1975.18)" xlink:href="#radial-gradient"/><linearGradient id="linear-gradient-13" x1="91.31" y1="-33.74" x2="46.31" y2="12.1" gradientTransform="matrix(1, 0, 0, -1, 0, 289.11)" xlink:href="#linear-gradient-6"/><linearGradient id="linear-gradient-14" x1="254.73" y1="-79.63" x2="135.34" y2="34.22" gradientTransform="matrix(1, 0, 0, -1, 0, 289.11)" xlink:href="#linear-gradient-6"/><linearGradient id="linear-gradient-15" x1="264.89" y1="-131.49" x2="101.52" y2="24.39" gradientTransform="matrix(1, 0, 0, -1, 0, 289.11)" gradientUnits="userSpaceOnUse"><stop offset="0" stop-color="#c9cacb"/><stop offset="1" stop-color="#949699"/></linearGradient><linearGradient id="linear-gradient-16" x1="27.88" y1="53.54" x2="89.33" y2="-47.63" gradientTransform="matrix(1, 0, 0, -1, 0, 289.11)" xlink:href="#linear-gradient-2"/><linearGradient id="linear-gradient-17" x1="-23.59" y1="0.99" x2="199.35" y2="-125.5" gradientTransform="matrix(1, 0, 0, -1, 0, 289.11)" xlink:href="#linear-gradient-6"/><linearGradient id="linear-gradient-18" x1="-2462.25" y1="0.99" x2="-2239.31" y2="-125.5" gradientTransform="translate(-2194.33 289.11) rotate(180)" xlink:href="#linear-gradient-6"/><linearGradient id="linear-gradient-19" x1="177.7" y1="74.59" x2="193.17" y2="116.75" gradientTransform="matrix(1, 0, 0, -1, 0, 289.11)" gradientUnits="userSpaceOnUse"><stop offset="0.11" stop-color="#1a1a1a" stop-opacity="0"/><stop offset="0.47" stop-color="#1a1a1a" stop-opacity="0.21"/><stop offset="0.91" stop-color="#1a1a1a" stop-opacity="0.82"/><stop offset="1" stop-color="#1a1a1a" stop-opacity="0.97"/></linearGradient><linearGradient id="linear-gradient-20" x1="67.78" y1="70.58" x2="48.58" y2="128.2" xlink:href="#linear-gradient-19"/><linearGradient id="linear-gradient-21" x1="182.01" y1="102.83" x2="277.79" y2="244.5" gradientTransform="matrix(1, 0, 0, 1, 0, 0)" xlink:href="#linear-gradient-2"/><linearGradient id="linear-gradient-22" x1="146.64" y1="109.52" x2="175.57" y2="186.34" gradientTransform="matrix(1, 0, 0, 1, 0, 0)" xlink:href="#linear-gradient-3"/><linearGradient id="linear-gradient-23" x1="241.91" y1="192.03" x2="259.87" y2="242.91" gradientTransform="matrix(1, 0, 0, 1, 0, 0)" xlink:href="#linear-gradient-3"/><linearGradient id="linear-gradient-24" x1="318.89" y1="235.59" x2="236.8" y2="95.61" gradientTransform="matrix(1, 0, 0, 1, 0, 0)" xlink:href="#linear-gradient-5"/><linearGradient id="linear-gradient-25" x1="304.24" y1="243.4" x2="226.8" y2="111.36" gradientTransform="matrix(1, 0, 0, 1, 0, 0)" xlink:href="#linear-gradient-6"/><linearGradient id="linear-gradient-26" x1="176.03" y1="193.22" x2="98.59" y2="61.17" gradientTransform="matrix(1, 0, 0, 1, 0, 0)" xlink:href="#linear-gradient-6"/><linearGradient id="linear-gradient-27" x1="163.43" y1="181.85" x2="301.1" y2="238.22" gradientTransform="matrix(1, 0, 0, 1, 0, 0)" xlink:href="#linear-gradient-6"/><linearGradient id="linear-gradient-28" x1="133.45" y1="5.47" x2="340.96" y2="323.73" gradientTransform="matrix(1, 0, 0, 1, 0, 0)" xlink:href="#linear-gradient-5"/><radialGradient id="radial-gradient-3" cx="2998.97" cy="-1409.74" r="5.13" gradientTransform="matrix(0.17, 0.17, -2.97, 2.92, -4440.35, 3702.7)" xlink:href="#radial-gradient"/><linearGradient id="linear-gradient-29" x1="98.39" y1="59.1" x2="236.07" y2="115.47" gradientTransform="matrix(1, 0, 0, 1, 0, 0)" xlink:href="#linear-gradient-6"/><linearGradient id="linear-gradient-30" x1="126.5" y1="140.81" x2="20.75" y2="248.56" gradientTransform="matrix(1, 0, 0, 1, 0, 0)" xlink:href="#linear-gradient-5"/><linearGradient id="linear-gradient-31" x1="297.61" y1="90.21" x2="110.54" y2="268.6" gradientTransform="matrix(1, 0, 0, 1, 0, 0)" xlink:href="#linear-gradient-3"/><radialGradient id="radial-gradient-4" cx="1182.14" cy="305.99" r="5.13" gradientTransform="translate(-523.87 -2745.71) scale(0.55 9.7)" xlink:href="#radial-gradient"/><linearGradient id="linear-gradient-32" x1="91.3" y1="130.25" x2="46.31" y2="176.09" gradientTransform="matrix(1, 0, 0, 1, 0, 0)" xlink:href="#linear-gradient-6"/><linearGradient id="linear-gradient-33" x1="254.73" y1="84.36" x2="135.34" y2="198.21" gradientTransform="matrix(1, 0, 0, 1, 0, 0)" xlink:href="#linear-gradient-6"/><linearGradient id="linear-gradient-34" x1="264.89" y1="32.51" x2="101.52" y2="188.38" gradientTransform="matrix(1, 0, 0, 1, 0, 0)" xlink:href="#linear-gradient-15"/><linearGradient id="linear-gradient-35" x1="27.88" y1="217.54" x2="89.33" y2="116.36" gradientTransform="matrix(1, 0, 0, 1, 0, 0)" xlink:href="#linear-gradient-2"/><linearGradient id="linear-gradient-36" x1="-23.59" y1="164.98" x2="199.35" y2="38.49" gradientTransform="matrix(1, 0, 0, 1, 0, 0)" xlink:href="#linear-gradient-6"/><linearGradient id="linear-gradient-37" x1="-2462.25" y1="164.98" x2="-2239.31" y2="38.49" gradientTransform="matrix(-1, 0, 0, 1, -2194.33, 0)" xlink:href="#linear-gradient-6"/><linearGradient id="linear-gradient-38" x1="177.7" y1="238.59" x2="193.17" y2="280.74" gradientTransform="matrix(1, 0, 0, 1, 0, 0)" xlink:href="#linear-gradient-19"/><linearGradient id="linear-gradient-39" x1="67.78" y1="234.58" x2="48.58" y2="292.19" gradientTransform="matrix(1, 0, 0, 1, 0, 0)" xlink:href="#linear-gradient-19"/></defs><title>Artboard 7</title><g class="cls-3"><g id="Layer_1" data-name="Layer 1"><g class="cls-4"><g class="cls-5"><polygon class="cls-6" points="59.86 229.86 165.48 286.91 276.37 244.68 163.05 191.38 59.86 229.86"/><polygon class="cls-7" points="35.9 253.93 35.81 219.17 168.84 179.18 168.93 213.94 35.9 253.93"/><polygon class="cls-8" points="168.93 213.94 168.84 179.18 294.65 235.11 294.74 269.87 168.93 213.94"/><polygon class="cls-9" points="161.71 309.86 161.62 275.1 294.65 235.11 294.74 269.87 161.71 309.86"/><polygon class="cls-10" points="161.62 275.65 161.62 275.1 294.65 235.11 294.65 235.66 161.62 275.65"/><polygon class="cls-11" points="35.83 219.7 35.83 219.15 168.85 179.16 168.85 179.71 35.83 219.7"/><polygon class="cls-12" points="168.84 180.22 168.84 179.18 294.65 235.11 294.65 236.15 168.84 180.22"/><polygon class="cls-13" points="35.9 253.93 35.81 219.17 161.62 275.1 161.71 309.86 35.9 253.93"/><path class="cls-14" d="M163.27,295.65c0-12.1-.71-21.9-1.55-21.9s-1.49,9.81-1.47,21.91.71,21.9,1.55,21.9S163.29,307.75,163.27,295.65Z"/><polygon class="cls-15" points="35.81 220.21 35.81 219.17 161.62 275.1 161.63 276.15 35.81 220.21"/><polygon class="cls-16" points="122.17 274.8 122.17 180.4 8.32 224.97 8.32 319.37 122.17 274.8"/><polygon class="cls-17" points="122.17 274.8 122.17 180.4 236.02 224.97 236.02 319.37 122.17 274.8"/><ellipse class="cls-18" cx="122.17" cy="230.91" rx="3.45" ry="51.05"/><polygon class="cls-19" points="122.17 273.24 122.17 274.8 8.32 319.37 8.32 317.8 122.17 273.24"/><polygon class="cls-20" points="122.17 274.8 122.17 273.87 236.02 318.43 236.02 319.37 122.17 274.8"/><polygon class="cls-21" points="122.16 274.79 236.02 319.36 122.16 358.11 122.16 274.79"/><polygon class="cls-22" points="122.16 274.79 8.31 319.36 122.16 358.11 122.16 274.79"/><polygon class="cls-23" points="8.31 319.36 8.89 319.13 122.16 357.68 122.16 358.11 8.31 319.36"/><polygon class="cls-24" points="236.02 319.36 235.44 319.13 122.16 357.68 122.16 358.11 236.02 319.36"/><polygon class="cls-25" points="122.17 180.4 236.02 224.97 236.02 241.06 122.17 196.49 122.17 180.4"/><polygon class="cls-26" points="8.32 224.97 122.17 180.4 122.17 196.86 8.32 241.43 8.32 224.97"/></g></g><polygon class="cls-27" points="255.53 88.29 127.32 38.09 102.53 62.45 120.21 95.83 8.55 133.82 8.32 133.74 8.32 228.14 122.17 272.7 236.02 228.14 236.02 212.01 295.76 235.41 295.76 235.41 320.56 211.04 255.53 88.29"/><polygon class="cls-28" points="127.03 72.05 241.85 107.1 289.72 215.68 172.17 172.5 127.03 72.05"/><polygon class="cls-29" points="127.32 38.09 102.53 62.45 167.56 185.2 192.35 160.84 127.32 38.09"/><polygon class="cls-30" points="192.35 160.84 167.56 185.2 295.76 235.41 320.56 211.04 192.35 160.84"/><polygon class="cls-31" points="255.53 88.29 230.73 112.66 295.76 235.41 320.56 211.04 255.53 88.29"/><polygon class="cls-32" points="231.13 112.27 230.73 112.66 295.76 235.41 296.16 235.02 231.13 112.27"/><polygon class="cls-33" points="102.92 62.09 102.53 62.48 167.56 185.22 167.95 184.84 102.92 62.09"/><polygon class="cls-34" points="168.3 184.47 167.56 185.2 295.76 235.41 296.51 234.67 168.3 184.47"/><polygon class="cls-35" points="127.32 38.09 102.53 62.45 230.73 112.66 255.53 88.29 127.32 38.09"/><path class="cls-36" d="M246.51,99.39c-8.62,8.49-16.09,14.89-16.67,14.29s5.93-8,14.55-16.44S260.48,82.35,261.07,83,255.14,90.9,246.51,99.39Z"/><polygon class="cls-37" points="103.27 61.72 102.53 62.45 230.73 112.66 231.48 111.93 103.27 61.72"/><polygon class="cls-38" points="122.17 178.3 122.17 272.7 8.32 228.14 8.32 133.74 122.17 178.3"/><polygon class="cls-39" points="122.17 178.3 122.17 272.7 236.02 228.14 236.02 133.74 122.17 178.3"/><ellipse class="cls-40" cx="122.17" cy="222.19" rx="3.45" ry="51.05"/><polygon class="cls-41" points="122.17 179.87 122.17 178.3 8.32 133.74 8.32 135.3 122.17 179.87"/><polygon class="cls-42" points="122.17 178.3 122.17 179.24 236.02 134.67 236.02 133.74 122.17 178.3"/><polygon class="cls-43" points="122.16 178.31 236.02 133.74 122.16 95 122.16 178.31"/><polygon class="cls-44" points="122.16 178.31 8.31 133.74 122.16 95 122.16 178.31"/><polygon class="cls-45" points="8.31 133.74 8.89 133.97 122.16 95.42 122.16 95 8.31 133.74"/><polygon class="cls-46" points="236.02 133.74 235.44 133.97 122.16 95.42 122.16 95 236.02 133.74"/><polygon class="cls-47" points="122.17 272.7 236.02 228.14 236.02 212.05 122.17 256.62 122.17 272.7"/><polygon class="cls-48" points="8.32 228.14 122.17 272.7 122.17 256.24 8.32 211.67 8.32 228.14"/><path class="cls-49" d="M30.16,179.85a6.52,6.52,0,0,1-1.4-2.18,5.93,5.93,0,0,1-.43-2.52,3.78,3.78,0,0,1,.65-2.09,2.51,2.51,0,0,1,1.55-1,3.8,3.8,0,0,1,2.15.27,5.79,5.79,0,0,1,1.77,1.1,6.22,6.22,0,0,1,1.29,1.67l-1.19.74a3.71,3.71,0,0,0-1.87-1.77,2.1,2.1,0,0,0-1.28-.15,1.47,1.47,0,0,0-.91.64,2.63,2.63,0,0,0-.38,1.31,4.09,4.09,0,0,0,.24,1.55,3.86,3.86,0,0,0,.82,1.33,3.52,3.52,0,0,0,1.25.85,1.78,1.78,0,0,0,2-.26L35.46,181a2.33,2.33,0,0,1-1.41.61,3.83,3.83,0,0,1-1.81-.31A5.91,5.91,0,0,1,30.16,179.85Z"/><path class="cls-49" d="M37.39,182.26a5.55,5.55,0,0,1-.76-3.29l.23-4.84,1.76.7-.23,4.76q-.11,2.32,1.59,3a1.21,1.21,0,0,0,1.29-.06,2.25,2.25,0,0,0,.52-1.59l.22-4.77,1.74.69-.23,4.85a3.11,3.11,0,0,1-1.05,2.56,2.66,2.66,0,0,1-2.59,0A5.07,5.07,0,0,1,37.39,182.26Z"/><path class="cls-49" d="M45.84,186.37a6.68,6.68,0,0,1-1.32-1.26l.67-1.27A6.38,6.38,0,0,0,46.33,185a5.56,5.56,0,0,0,1.33.78,1.9,1.9,0,0,0,1.12.19.54.54,0,0,0,.4-.53,1,1,0,0,0-.19-.6,2.69,2.69,0,0,0-.53-.54c-.22-.17-.51-.38-.88-.63a16.84,16.84,0,0,1-1.41-1,3.93,3.93,0,0,1-.91-1.13,2.8,2.8,0,0,1-.33-1.54,2,2,0,0,1,.42-1.22,1.62,1.62,0,0,1,1.13-.54,4,4,0,0,1,1.78.34,7.23,7.23,0,0,1,1.42.76,6.12,6.12,0,0,1,1.19,1.06l-.62,1.3a5.91,5.91,0,0,0-2.07-1.52,1.72,1.72,0,0,0-1.11-.16.6.6,0,0,0-.39.58,1.05,1.05,0,0,0,.38.82,8.79,8.79,0,0,0,1.22.92,16.84,16.84,0,0,1,1.41,1,4,4,0,0,1,.91,1.11,2.79,2.79,0,0,1,.33,1.53,1.89,1.89,0,0,1-.43,1.21,1.62,1.62,0,0,1-1.13.54,4.07,4.07,0,0,1-1.8-.35A7.84,7.84,0,0,1,45.84,186.37Z"/><path class="cls-49" d="M53.83,182.52l-2.44-1,.08-1.63,6.63,2.63L58,184.19l-2.43-1-.34,7-1.76-.7Z"/><path class="cls-49" d="M60.1,191.72a6.72,6.72,0,0,1-1.42-2.19,6.1,6.1,0,0,1-.43-2.51,3.78,3.78,0,0,1,.65-2.08,2.57,2.57,0,0,1,1.57-1,3.83,3.83,0,0,1,2.16.27,6,6,0,0,1,2.11,1.43,6.86,6.86,0,0,1,1.41,2.19,5.92,5.92,0,0,1,.44,2.51,3.64,3.64,0,0,1-.66,2.07,2.52,2.52,0,0,1-1.57,1,3.71,3.71,0,0,1-2.15-.26A5.9,5.9,0,0,1,60.1,191.72Zm3.42-.15a1.43,1.43,0,0,0,.9-.64,2.47,2.47,0,0,0,.38-1.31,3.78,3.78,0,0,0-.24-1.56,3.89,3.89,0,0,0-.81-1.32,3.25,3.25,0,0,0-1.2-.83,1.93,1.93,0,0,0-1.23-.13,1.43,1.43,0,0,0-.9.64,2.45,2.45,0,0,0-.38,1.31,3.81,3.81,0,0,0,.24,1.56,3.89,3.89,0,0,0,.81,1.32,3.37,3.37,0,0,0,1.2.83A2,2,0,0,0,63.52,191.57Z"/><path class="cls-49" d="M74.63,197.93l.24-5.2-2.44,3.39-.8-.32-2-5-.24,5.07-1.65-.65.41-8.65,1.46.58,2.59,6.5,3.06-4.26,1.45.58-.39,8.65Z"/><path class="cls-49" d="M33.34,188.23a4.52,4.52,0,0,1,1.09,1.54,4.08,4.08,0,0,1,.33,1.83,2.51,2.51,0,0,1-.49,1.5,1.66,1.66,0,0,1-1.2.63,3.69,3.69,0,0,1-1.77-.32l-1.53-.61-.12,2.39-1.76-.7.41-8.65,3.3,1.31A5.68,5.68,0,0,1,33.34,188.23Zm-.83,3.6a1,1,0,0,0,.46-.94,1.91,1.91,0,0,0-.36-1.28,2.56,2.56,0,0,0-1.19-.87L30,188.17l-.15,3,1.44.57A1.51,1.51,0,0,0,32.51,191.83Z"/><path class="cls-49" d="M40.47,197.59l-3.54-1.4-.76,1.58-1.81-.71,3.81-7.3,1.74.69,3,10-1.85-.73ZM40,195.85l-1-3.79-1.37,2.83Z"/><path class="cls-49" d="M45.15,200.9a6.71,6.71,0,0,1-1.41-2.18,6.09,6.09,0,0,1-.43-2.52,3.89,3.89,0,0,1,.65-2.09,2.47,2.47,0,0,1,1.56-1,3.66,3.66,0,0,1,2.14.26,5.63,5.63,0,0,1,1.77,1.11,6.18,6.18,0,0,1,1.29,1.66l-1.19.74a3.69,3.69,0,0,0-1.86-1.77,2.11,2.11,0,0,0-1.28-.15,1.45,1.45,0,0,0-.91.64,2.47,2.47,0,0,0-.38,1.31,3.78,3.78,0,0,0,.24,1.56,3.91,3.91,0,0,0,.82,1.32,3.36,3.36,0,0,0,1.24.85,1.77,1.77,0,0,0,2-.26L50.44,202a2.31,2.31,0,0,1-1.4.62,4,4,0,0,1-1.82-.32A5.87,5.87,0,0,1,45.15,200.9Z"/><path class="cls-49" d="M54.5,201.58l-1.08.81-.11,2.18-1.75-.69.41-8.65,1.76.7-.2,4,3.57-2.71,2,.78-3.34,2.6,3.11,6.12L56.77,206Z"/><path class="cls-49" d="M64.37,207.08l-3.53-1.41-.76,1.59-1.81-.72,3.81-7.3,1.74.69,3,10L65,209.2Zm-.48-1.74-1-3.79-1.36,2.83Z"/><path class="cls-49" d="M72.85,207.78l1.61.64-.16,3.51a3.34,3.34,0,0,1-1.48.25,5.29,5.29,0,0,1-1.66-.37,6.06,6.06,0,0,1-2.1-1.42,6.81,6.81,0,0,1-1.41-2.18,6.15,6.15,0,0,1-.43-2.52,3.76,3.76,0,0,1,.65-2.09,2.47,2.47,0,0,1,1.57-1,3.86,3.86,0,0,1,2.19.28,6,6,0,0,1,1.79,1.1,5.94,5.94,0,0,1,1.32,1.66l-1.19.73a3.92,3.92,0,0,0-1.92-1.75,2.23,2.23,0,0,0-1.31-.17,1.46,1.46,0,0,0-.93.62A2.49,2.49,0,0,0,69,206.4a3.74,3.74,0,0,0,.24,1.55,3.89,3.89,0,0,0,.83,1.33,3.46,3.46,0,0,0,1.26.86,2.5,2.5,0,0,0,1.39.18Z"/><path class="cls-49" d="M76.3,204.88l1.76.7-.42,8.65-1.76-.7Z"/><path class="cls-49" d="M86.85,209.07l-.42,8.64L85,217.14l-3.55-6.76-.25,5.25-1.74-.69.41-8.64,1.46.57,3.54,6.76.25-5.25Z"/><path class="cls-49" d="M93.6,216l1.61.64L95,220.16a3.19,3.19,0,0,1-1.48.24,4.9,4.9,0,0,1-1.65-.36,6.19,6.19,0,0,1-2.11-1.42,6.75,6.75,0,0,1-1.41-2.19,6.06,6.06,0,0,1-.42-2.51,3.68,3.68,0,0,1,.65-2.09,2.44,2.44,0,0,1,1.57-1,3.83,3.83,0,0,1,2.18.28,6,6,0,0,1,3.11,2.76l-1.18.73a4,4,0,0,0-1.93-1.75,2.23,2.23,0,0,0-1.31-.17,1.46,1.46,0,0,0-.92.62,2.57,2.57,0,0,0-.39,1.32,3.93,3.93,0,0,0,.25,1.56,3.74,3.74,0,0,0,.83,1.33,3.38,3.38,0,0,0,1.26.86,2.39,2.39,0,0,0,1.39.17Z"/><path class="cls-49" d="M32.28,209.45l-3.53-1.4L28,209.63l-1.8-.71,3.81-7.3,1.74.69,3,10-1.85-.74Zm-.48-1.74-1.05-3.79-1.36,2.83Z"/><path class="cls-49" d="M42.83,206.71l-3.71,7.34-1.74-.69-2.87-10,1.91.76,2,7.09L41.08,206Z"/><path class="cls-49" d="M47.9,215.65l-3.53-1.4-.77,1.58-1.8-.72,3.81-7.3,1.74.69,3,10-1.85-.73Zm-.48-1.74-1.05-3.79L45,213Z"/><path class="cls-49" d="M51.55,210.17l1.76.7-.42,8.65-1.76-.7Z"/><path class="cls-49" d="M55.11,211.58l1.77.7-.34,7,3.82,1.52-.08,1.63-5.58-2.22Z"/><path class="cls-49" d="M66.44,223l-3.54-1.4-.76,1.58-1.81-.71,3.81-7.3,1.74.69,3,10L67,225.12ZM66,221.26l-1-3.79-1.37,2.83Z"/><path class="cls-49" d="M76.46,225.08a3,3,0,0,1,.3,1.5A1.42,1.42,0,0,1,75.9,228a3.34,3.34,0,0,1-2.3-.29l-3.93-1.56.41-8.65L73.8,219a5,5,0,0,1,2.11,1.45,2.84,2.84,0,0,1,.67,1.94,1.84,1.84,0,0,1-.32,1,1.24,1.24,0,0,1-.79.48A3.42,3.42,0,0,1,76.46,225.08Zm-4.7-5.36-.1,2,1.75.7a1.55,1.55,0,0,0,1,.13c.23-.08.35-.29.37-.63a1.23,1.23,0,0,0-.3-.9,2.45,2.45,0,0,0-1-.64Zm2.85,6.61q.36-.12.39-.66c0-.72-.42-1.26-1.35-1.63l-2.06-.82-.1,2.14,2.06.81A1.62,1.62,0,0,0,74.61,226.33Z"/><path class="cls-49" d="M78.4,220.82l1.76.7-.33,7,3.82,1.51-.08,1.64L78,229.47Z"/><path class="cls-49" d="M90.53,232.81l-.08,1.61-5.89-2.34.41-8.65,5.76,2.28-.08,1.61-4-1.59-.09,1.88,3.53,1.4L90,230.57l-3.54-1.41-.09,2Z"/><path class="cls-49" d="M91.8,234.72a1.52,1.52,0,0,1-.26-.92.78.78,0,0,1,.33-.67.81.81,0,0,1,.76,0,1.57,1.57,0,0,1,1,1.51.79.79,0,0,1-.33.68.78.78,0,0,1-.76,0A1.56,1.56,0,0,1,91.8,234.72Zm.13-8.53,2,.8-.61,5.52L92,232Z"/><polygon class="cls-49" points="34.88 169.19 35.26 161.21 90.17 182.99 89.79 190.98 91.8 191.78 92.3 181.5 33.35 158.12 32.86 168.39 34.88 169.19"/><polygon class="cls-49" points="87.56 237.37 87.18 245.35 32.27 223.57 32.65 215.59 30.64 214.78 30.14 225.06 89.08 248.44 89.58 238.17 87.56 237.37"/><path class="cls-49" d="M149.23,206.4l0,3.37-2.75,1.08,0-3.4-3-4.66,2.89-1.14L148,204.2l1.7-3.87,2.65-1.05Z"/><path class="cls-49" d="M154.17,207.39a2.47,2.47,0,0,1-1.62-1.08A3.93,3.93,0,0,1,152,204a6.86,6.86,0,0,1,.62-2.73,7.82,7.82,0,0,1,1.65-2.38,7,7,0,0,1,2.37-1.55,4.12,4.12,0,0,1,2.35-.31,2.42,2.42,0,0,1,1.63,1.07,4,4,0,0,1,.57,2.27,6.82,6.82,0,0,1-.62,2.73,7.68,7.68,0,0,1-1.66,2.38,7,7,0,0,1-2.36,1.55A4.25,4.25,0,0,1,154.17,207.39Zm3.31-3.5a3.22,3.22,0,0,0,.66-1.07,3.41,3.41,0,0,0,.26-1.32,2.32,2.32,0,0,0-.23-1.13,1.1,1.1,0,0,0-.65-.54,1.31,1.31,0,0,0-.92.08,2.42,2.42,0,0,0-.93.65,3.41,3.41,0,0,0-.67,1.07,3.6,3.6,0,0,0-.25,1.32,2.21,2.21,0,0,0,.23,1.13,1.1,1.1,0,0,0,.65.54,1.31,1.31,0,0,0,.92-.08A2.5,2.5,0,0,0,157.48,203.89Z"/><path class="cls-49" d="M163.11,203.32a3.23,3.23,0,0,1-1-2.82l0-5.1,2.74-1.08,0,5a2,2,0,0,0,.3,1.36.77.77,0,0,0,.92.1A1.83,1.83,0,0,0,167,200a3.3,3.3,0,0,0,.33-1.61l.05-5,2.7-1.07,0,5.1a6.41,6.41,0,0,1-1.08,3.65,6.21,6.21,0,0,1-2.93,2.31A3,3,0,0,1,163.11,203.32Z"/><path class="cls-49" d="M174.75,197.33l-.75.29,0,2.33L171.24,201l.08-9.27,3.92-1.55a4.18,4.18,0,0,1,2-.36,1.73,1.73,0,0,1,1.28.71,2.78,2.78,0,0,1,.44,1.67,4.91,4.91,0,0,1-.41,1.9,5.5,5.5,0,0,1-1.15,1.63L179,198l-2.93,1.16Zm1.13-4.68a.93.93,0,0,0-.84,0l-1,.39,0,2.17,1-.39a1.72,1.72,0,0,0,.84-.62,1.52,1.52,0,0,0,.29-.91A.77.77,0,0,0,175.88,192.65Z"/><path class="cls-49" d="M183.47,187l2.75-1.09-.07,6.85,3.67-1.46,0,2.43-6.42,2.54Z"/><path class="cls-49" d="M192.35,192.27a2.47,2.47,0,0,1-1.62-1.08,3.89,3.89,0,0,1-.57-2.26,6.62,6.62,0,0,1,.62-2.73,7.7,7.7,0,0,1,1.65-2.38,7.08,7.08,0,0,1,2.37-1.56,4.2,4.2,0,0,1,2.35-.31,2.45,2.45,0,0,1,1.62,1.08,3.91,3.91,0,0,1,.57,2.26,6.77,6.77,0,0,1-.61,2.73,7.91,7.91,0,0,1-1.66,2.38,7.14,7.14,0,0,1-2.36,1.56A4.15,4.15,0,0,1,192.35,192.27Zm3.31-3.49a3.71,3.71,0,0,0,.66-1.07,3.61,3.61,0,0,0,.26-1.32,2.28,2.28,0,0,0-.24-1.13,1.06,1.06,0,0,0-.65-.55,1.43,1.43,0,0,0-.92.08,2.5,2.5,0,0,0-.92.65,3.53,3.53,0,0,0-.67,1.07,3.6,3.6,0,0,0-.25,1.32,2.19,2.19,0,0,0,.23,1.13,1.06,1.06,0,0,0,.65.55,1.43,1.43,0,0,0,.92-.08A2.62,2.62,0,0,0,195.66,188.78Z"/><path class="cls-49" d="M205.73,182.51l2.38-.94,0,3.92a9.18,9.18,0,0,1-1.68,1.54,9,9,0,0,1-1.87,1,4.06,4.06,0,0,1-2.33.31,2.38,2.38,0,0,1-1.61-1.08A4,4,0,0,1,200,185a6.86,6.86,0,0,1,.61-2.75,7.78,7.78,0,0,1,1.65-2.37,7.16,7.16,0,0,1,2.39-1.56,4.88,4.88,0,0,1,2.14-.39,2.42,2.42,0,0,1,1.56.71l-1.77,2.46a1.6,1.6,0,0,0-1.82-.3,3.11,3.11,0,0,0-1.45,1.19,3.53,3.53,0,0,0-.55,1.91,1.78,1.78,0,0,0,.52,1.47,1.32,1.32,0,0,0,1.4.08,3.72,3.72,0,0,0,1-.62Z"/><path class="cls-49" d="M211.15,184.83a2.45,2.45,0,0,1-1.62-1.08,3.91,3.91,0,0,1-.57-2.26,6.85,6.85,0,0,1,.61-2.74,8,8,0,0,1,1.66-2.37,7.14,7.14,0,0,1,2.36-1.56,4.16,4.16,0,0,1,2.36-.31,2.47,2.47,0,0,1,1.62,1.08,3.89,3.89,0,0,1,.57,2.26,6.62,6.62,0,0,1-.62,2.73,7.7,7.7,0,0,1-1.65,2.38,7.08,7.08,0,0,1-2.37,1.56A4.2,4.2,0,0,1,211.15,184.83Zm3.3-3.49a3.53,3.53,0,0,0,.67-1.07,3.68,3.68,0,0,0,.25-1.32,2.19,2.19,0,0,0-.23-1.13,1.06,1.06,0,0,0-.65-.55,1.37,1.37,0,0,0-.92.08,2.5,2.5,0,0,0-.93.65,3.71,3.71,0,0,0-.66,1.07,3.61,3.61,0,0,0-.26,1.32,2.31,2.31,0,0,0,.24,1.13,1.09,1.09,0,0,0,.65.55,1.43,1.43,0,0,0,.92-.08A2.63,2.63,0,0,0,214.45,181.34Z"/><path class="cls-49" d="M159.65,210.71l-.18,19L153.83,232l.07-7L148.7,227l-.07,7L143,236.27l.18-19,5.63-2.23-.07,6.75,5.21-2.06.06-6.75Z"/><path class="cls-49" d="M176.13,218.33l0,4.84-13.89,5.5.18-19L176,204.25l0,4.85-8,3.18,0,2.23,7.06-2.8,0,4.63-7.07,2.8,0,2.5Z"/><path class="cls-49" d="M185.46,214.69l-1.53.61,0,4.78-5.64,2.23.18-19,8-3.18a8.52,8.52,0,0,1,4-.73,3.59,3.59,0,0,1,2.63,1.45,5.64,5.64,0,0,1,.89,3.44,9.61,9.61,0,0,1-.84,3.89,10.89,10.89,0,0,1-2.36,3.34l3.45,4.49-6,2.38Zm2.33-9.61a2,2,0,0,0-1.72.1l-2,.81,0,4.46,2.05-.81a3.69,3.69,0,0,0,1.72-1.26,3.16,3.16,0,0,0,.59-1.88A1.56,1.56,0,0,0,187.79,205.08Z"/><path class="cls-49" d="M210,204.93l0,4.84L196,215.27l.18-19,13.58-5.38-.05,4.85-8,3.18,0,2.23,7.06-2.8,0,4.63-7.07,2.8,0,2.5Z"/><path class="cls-49" d="M211.45,190.2l6.44-2.55-1.18,12.18-4.3,1.7Zm.78,18a2.15,2.15,0,0,1-.86-2,4.57,4.57,0,0,1,.9-2.65,5,5,0,0,1,2.28-1.81,2.41,2.41,0,0,1,2.26,0,2.1,2.1,0,0,1,.86,1.95,4.74,4.74,0,0,1-.91,2.66,4.91,4.91,0,0,1-2.27,1.85A2.31,2.31,0,0,1,212.23,208.18Z"/><polygon class="cls-49" points="138.95 205.02 139.02 198.16 222.6 165.07 222.53 171.93 225.18 170.88 225.28 161 136.4 196.19 136.31 206.06 138.95 205.02"/><polygon class="cls-49" points="222.23 204.53 222.16 211.39 138.58 244.48 138.65 237.62 136 238.67 135.91 248.54 224.78 213.36 224.87 203.48 222.23 204.53"/></g></g></svg>