<svg xmlns="http://www.w3.org/2000/svg" xmlns:xlink="http://www.w3.org/1999/xlink" viewBox="0 0 312.25 320.02"><defs><style>.cls-1{fill:url(#linear-gradient);}.cls-2{fill:none;}.cls-3{isolation:isolate;}.cls-4{clip-path:url(#clip-path);}.cls-5{mask:url(#mask);}.cls-6{fill:url(#linear-gradient-2);}.cls-7{fill:url(#linear-gradient-3);}.cls-8{fill:url(#linear-gradient-4);}.cls-9{fill:url(#linear-gradient-5);}.cls-10,.cls-11,.cls-12,.cls-15,.cls-18,.cls-19,.cls-20,.cls-23,.cls-24,.cls-32,.cls-33,.cls-34,.cls-37,.cls-40,.cls-41,.cls-42,.cls-45,.cls-46{opacity:0.6;}.cls-10,.cls-11,.cls-12,.cls-14,.cls-15,.cls-18,.cls-19,.cls-20,.cls-23,.cls-24,.cls-32,.cls-33,.cls-34,.cls-36,.cls-37,.cls-40,.cls-41,.cls-42,.cls-45,.cls-46{mix-blend-mode:overlay;}.cls-10{fill:url(#linear-gradient-6);}.cls-11{fill:url(#linear-gradient-7);}.cls-12{fill:url(#linear-gradient-8);}.cls-13{fill:url(#linear-gradient-9);}.cls-14,.cls-36{opacity:0.72;}.cls-14{fill:url(#radial-gradient);}.cls-15{fill:url(#linear-gradient-10);}.cls-16{fill:url(#linear-gradient-11);}.cls-17{fill:url(#linear-gradient-12);}.cls-18{fill:url(#radial-gradient-2);}.cls-19{fill:url(#linear-gradient-13);}.cls-20{fill:url(#linear-gradient-14);}.cls-21{fill:url(#linear-gradient-15);}.cls-22{fill:url(#linear-gradient-16);}.cls-23{fill:url(#linear-gradient-17);}.cls-24{fill:url(#linear-gradient-18);}.cls-25,.cls-26,.cls-47,.cls-48{opacity:0.8;mix-blend-mode:multiply;}.cls-25{fill:url(#linear-gradient-19);}.cls-26{fill:url(#linear-gradient-20);}.cls-27{fill:#fff;}.cls-28{fill:url(#linear-gradient-21);}.cls-29{fill:url(#linear-gradient-22);}.cls-30{fill:url(#linear-gradient-23);}.cls-31{fill:url(#linear-gradient-24);}.cls-32{fill:url(#linear-gradient-25);}.cls-33{fill:url(#linear-gradient-26);}.cls-34{fill:url(#linear-gradient-27);}.cls-35{fill:url(#linear-gradient-28);}.cls-36{fill:url(#radial-gradient-3);}.cls-37{fill:url(#linear-gradient-29);}.cls-38{fill:url(#linear-gradient-30);}.cls-39{fill:url(#linear-gradient-31);}.cls-40{fill:url(#radial-gradient-4);}.cls-41{fill:url(#linear-gradient-32);}.cls-42{fill:url(#linear-gradient-33);}.cls-43{fill:url(#linear-gradient-34);}.cls-44{fill:url(#linear-gradient-35);}.cls-45{fill:url(#linear-gradient-36);}.cls-46{fill:url(#linear-gradient-37);}.cls-47{fill:url(#linear-gradient-38);}.cls-48{fill:url(#linear-gradient-39);}.cls-49{fill:#4d4d4d;}</style><linearGradient id="linear-gradient" x1="160.47" y1="250.28" x2="160.47" y2="116.58" gradientUnits="userSpaceOnUse"><stop offset="0"/><stop offset="1" stop-color="#fff"/></linearGradient><clipPath id="clip-path" transform="translate(-7.86)"><rect class="cls-2" y="147.13" width="326.98" height="134.14"/></clipPath><mask id="mask" x="-15.4" y="141.07" width="336.02" height="178.94" maskUnits="userSpaceOnUse"><g transform="translate(-7.86)"><rect class="cls-1" x="-7.54" y="149.78" width="336.02" height="133.17"/></g></mask><linearGradient id="linear-gradient-2" x1="196.5" y1="-55.98" x2="292.28" y2="85.69" gradientTransform="matrix(0.7, 0.71, 0.71, -0.7, 13.83, 30.1)" gradientUnits="userSpaceOnUse"><stop offset="0" stop-color="#919396"/><stop offset="1" stop-color="#c6c7c8"/></linearGradient><linearGradient id="linear-gradient-3" x1="161.13" y1="-49.3" x2="190.06" y2="27.52" gradientTransform="matrix(0.7, 0.71, 0.71, -0.7, 13.83, 30.1)" gradientUnits="userSpaceOnUse"><stop offset="0" stop-color="#b8b9bc"/><stop offset="1" stop-color="#d7d8d9"/></linearGradient><linearGradient id="linear-gradient-4" x1="256.39" y1="33.22" x2="274.35" y2="84.1" xlink:href="#linear-gradient-3"/><linearGradient id="linear-gradient-5" x1="333.38" y1="76.78" x2="251.29" y2="-63.19" gradientTransform="matrix(0.7, 0.71, 0.71, -0.7, 13.83, 30.1)" gradientUnits="userSpaceOnUse"><stop offset="0" stop-color="#f5f6f6"/><stop offset="1" stop-color="#cccdcf"/></linearGradient><linearGradient id="linear-gradient-6" x1="318.73" y1="84.59" x2="241.29" y2="-47.45" gradientTransform="matrix(0.7, 0.71, 0.71, -0.7, 13.83, 30.1)" gradientUnits="userSpaceOnUse"><stop offset="0" stop-color="#fff" stop-opacity="0"/><stop offset="0.46" stop-color="#fff"/><stop offset="0.6" stop-color="#fff" stop-opacity="0.69"/><stop offset="0.74" stop-color="#fff" stop-opacity="0.4"/><stop offset="0.86" stop-color="#fff" stop-opacity="0.18"/><stop offset="0.95" stop-color="#fff" stop-opacity="0.05"/><stop offset="1" stop-color="#fff" stop-opacity="0"/></linearGradient><linearGradient id="linear-gradient-7" x1="190.52" y1="34.4" x2="113.08" y2="-97.64" xlink:href="#linear-gradient-6"/><linearGradient id="linear-gradient-8" x1="177.91" y1="23.04" x2="315.59" y2="79.41" xlink:href="#linear-gradient-6"/><linearGradient id="linear-gradient-9" x1="147.94" y1="-153.34" x2="355.46" y2="164.92" xlink:href="#linear-gradient-5"/><radialGradient id="radial-gradient" cx="2812.92" cy="-948.79" r="5.13" gradientTransform="matrix(0.24, 0, -0.01, -4.16, -518.9, -3690.94)" gradientUnits="userSpaceOnUse"><stop offset="0" stop-color="#fff"/><stop offset="0.26" stop-color="#fff" stop-opacity="0.69"/><stop offset="0.53" stop-color="#fff" stop-opacity="0.4"/><stop offset="0.75" stop-color="#fff" stop-opacity="0.18"/><stop offset="0.91" stop-color="#fff" stop-opacity="0.05"/><stop offset="1" stop-color="#fff" stop-opacity="0"/></radialGradient><linearGradient id="linear-gradient-10" x1="112.89" y1="-99.71" x2="250.56" y2="-43.34" xlink:href="#linear-gradient-6"/><linearGradient id="linear-gradient-11" x1="126.04" y1="-739.27" x2="20.29" y2="-631.52" gradientTransform="matrix(1, 0, 0, -1, -7.86, -465.07)" xlink:href="#linear-gradient-5"/><linearGradient id="linear-gradient-12" x1="297.15" y1="-789.88" x2="110.08" y2="-611.49" gradientTransform="matrix(1, 0, 0, -1, -7.86, -465.07)" xlink:href="#linear-gradient-3"/><radialGradient id="radial-gradient-2" cx="802.46" cy="-458.04" r="5.13" gradientTransform="matrix(0.55, 0, 0, -9.7, -324.68, -4249.87)" xlink:href="#radial-gradient"/><linearGradient id="linear-gradient-13" x1="90.85" y1="-749.83" x2="45.86" y2="-703.99" gradientTransform="matrix(1, 0, 0, -1, -7.86, -465.07)" xlink:href="#linear-gradient-6"/><linearGradient id="linear-gradient-14" x1="254.28" y1="-795.72" x2="134.88" y2="-681.87" gradientTransform="matrix(1, 0, 0, -1, -7.86, -465.07)" xlink:href="#linear-gradient-6"/><linearGradient id="linear-gradient-15" x1="264.44" y1="-847.58" x2="101.06" y2="-691.7" gradientTransform="matrix(1, 0, 0, -1, -7.86, -465.07)" gradientUnits="userSpaceOnUse"><stop offset="0" stop-color="#c6c7c8"/><stop offset="1" stop-color="#919396"/></linearGradient><linearGradient id="linear-gradient-16" x1="27.42" y1="-662.55" x2="88.88" y2="-763.72" gradientTransform="matrix(1, 0, 0, -1, -7.86, -465.07)" xlink:href="#linear-gradient-2"/><linearGradient id="linear-gradient-17" x1="-24.04" y1="-715.1" x2="198.9" y2="-841.59" gradientTransform="matrix(1, 0, 0, -1, -7.86, -465.07)" xlink:href="#linear-gradient-6"/><linearGradient id="linear-gradient-18" x1="-1548.7" y1="-715.1" x2="-1325.76" y2="-841.59" gradientTransform="translate(-1289.1 -465.07) rotate(180)" xlink:href="#linear-gradient-6"/><linearGradient id="linear-gradient-19" x1="177.25" y1="-641.5" x2="192.71" y2="-599.35" gradientTransform="matrix(1, 0, 0, -1, -7.86, -465.07)" gradientUnits="userSpaceOnUse"><stop offset="0.11" stop-color="#1a1a1a" stop-opacity="0"/><stop offset="0.47" stop-color="#1a1a1a" stop-opacity="0.21"/><stop offset="0.91" stop-color="#1a1a1a" stop-opacity="0.82"/><stop offset="1" stop-color="#1a1a1a" stop-opacity="0.97"/></linearGradient><linearGradient id="linear-gradient-20" x1="67.33" y1="-645.51" x2="48.13" y2="-587.89" xlink:href="#linear-gradient-19"/><linearGradient id="linear-gradient-21" x1="173.7" y1="64.74" x2="269.48" y2="206.41" gradientTransform="matrix(1, 0, 0, 1, 0, 0)" xlink:href="#linear-gradient-2"/><linearGradient id="linear-gradient-22" x1="138.33" y1="71.43" x2="167.26" y2="148.25" gradientTransform="matrix(1, 0, 0, 1, 0, 0)" xlink:href="#linear-gradient-3"/><linearGradient id="linear-gradient-23" x1="233.6" y1="153.94" x2="251.56" y2="204.82" gradientTransform="matrix(1, 0, 0, 1, 0, 0)" xlink:href="#linear-gradient-3"/><linearGradient id="linear-gradient-24" x1="310.58" y1="197.5" x2="228.49" y2="57.52" gradientTransform="matrix(1, 0, 0, 1, 0, 0)" xlink:href="#linear-gradient-5"/><linearGradient id="linear-gradient-25" x1="295.93" y1="205.31" x2="218.49" y2="73.27" gradientTransform="matrix(1, 0, 0, 1, 0, 0)" xlink:href="#linear-gradient-6"/><linearGradient id="linear-gradient-26" x1="167.72" y1="155.13" x2="90.28" y2="23.08" gradientTransform="matrix(1, 0, 0, 1, 0, 0)" xlink:href="#linear-gradient-6"/><linearGradient id="linear-gradient-27" x1="155.12" y1="143.76" x2="292.79" y2="200.13" gradientTransform="matrix(1, 0, 0, 1, 0, 0)" xlink:href="#linear-gradient-6"/><linearGradient id="linear-gradient-28" x1="125.14" y1="-32.62" x2="332.65" y2="285.64" gradientTransform="matrix(1, 0, 0, 1, 0, 0)" xlink:href="#linear-gradient-5"/><radialGradient id="radial-gradient-3" cx="3125.72" cy="-776.7" r="5.13" gradientTransform="matrix(0.17, 0.17, -2.97, 2.92, -2584.05, 1794.7)" xlink:href="#radial-gradient"/><linearGradient id="linear-gradient-29" x1="90.08" y1="21.01" x2="227.76" y2="77.38" gradientTransform="matrix(1, 0, 0, 1, 0, 0)" xlink:href="#linear-gradient-6"/><linearGradient id="linear-gradient-30" x1="118.19" y1="102.72" x2="12.43" y2="210.47" gradientTransform="matrix(1, 0, 0, 1, 0, 0)" xlink:href="#linear-gradient-5"/><linearGradient id="linear-gradient-31" x1="289.3" y1="52.11" x2="102.22" y2="230.5" gradientTransform="matrix(1, 0, 0, 1, 0, 0)" xlink:href="#linear-gradient-3"/><radialGradient id="radial-gradient-4" cx="802.46" cy="189.69" r="5.13" gradientTransform="translate(-324.68 -1655.77) scale(0.55 9.7)" xlink:href="#radial-gradient"/><linearGradient id="linear-gradient-32" x1="82.99" y1="92.16" x2="38" y2="138" gradientTransform="matrix(1, 0, 0, 1, 0, 0)" xlink:href="#linear-gradient-6"/><linearGradient id="linear-gradient-33" x1="246.42" y1="46.27" x2="127.03" y2="160.12" gradientTransform="matrix(1, 0, 0, 1, 0, 0)" xlink:href="#linear-gradient-6"/><linearGradient id="linear-gradient-34" x1="256.58" y1="-5.59" x2="93.21" y2="150.29" gradientTransform="matrix(1, 0, 0, 1, 0, 0)" xlink:href="#linear-gradient-15"/><linearGradient id="linear-gradient-35" x1="19.57" y1="179.45" x2="81.02" y2="78.27" gradientTransform="matrix(1, 0, 0, 1, 0, 0)" xlink:href="#linear-gradient-2"/><linearGradient id="linear-gradient-36" x1="-31.9" y1="126.89" x2="191.04" y2="0.4" gradientTransform="matrix(1, 0, 0, 1, 0, 0)" xlink:href="#linear-gradient-6"/><linearGradient id="linear-gradient-37" x1="-1548.7" y1="126.89" x2="-1325.76" y2="0.4" gradientTransform="matrix(-1, 0, 0, 1, -1289.1, 0)" xlink:href="#linear-gradient-6"/><linearGradient id="linear-gradient-38" x1="169.39" y1="200.5" x2="184.86" y2="242.65" gradientTransform="matrix(1, 0, 0, 1, 0, 0)" xlink:href="#linear-gradient-19"/><linearGradient id="linear-gradient-39" x1="59.47" y1="196.49" x2="40.27" y2="254.1" gradientTransform="matrix(1, 0, 0, 1, 0, 0)" xlink:href="#linear-gradient-19"/></defs><title>box</title><g class="cls-3"><g id="Layer_2" data-name="Layer 2"><g id="Layer_1-2" data-name="Layer 1"><g class="cls-4"><g class="cls-5"><polygon class="cls-6" points="51.55 191.77 157.17 248.82 268.06 206.59 154.74 153.29 51.55 191.77"/><polygon class="cls-7" points="27.59 215.84 27.5 181.08 160.53 141.09 160.62 175.85 27.59 215.84"/><polygon class="cls-8" points="160.62 175.85 160.53 141.09 286.34 197.02 286.43 231.78 160.62 175.85"/><polygon class="cls-9" points="153.4 271.77 153.31 237.01 286.34 197.02 286.43 231.78 153.4 271.77"/><polygon class="cls-10" points="153.31 237.56 153.31 237.01 286.34 197.02 286.34 197.57 153.31 237.56"/><polygon class="cls-11" points="27.52 181.61 27.51 181.06 160.54 141.07 160.54 141.62 27.52 181.61"/><polygon class="cls-12" points="160.53 142.13 160.53 141.09 286.34 197.02 286.34 198.06 160.53 142.13"/><polygon class="cls-13" points="27.59 215.84 27.5 181.08 153.31 237.01 153.4 271.77 27.59 215.84"/><path class="cls-14" d="M162.82,257.56c0-12.1-.72-21.91-1.55-21.9s-1.5,9.81-1.47,21.91.71,21.9,1.55,21.9S162.84,269.66,162.82,257.56Z" transform="translate(-7.86)"/><polygon class="cls-15" points="27.5 182.12 27.5 181.08 153.31 237.01 153.31 238.06 27.5 182.12"/><polygon class="cls-16" points="113.86 236.71 113.86 142.31 0.01 186.88 0.01 281.28 113.86 236.71"/><polygon class="cls-17" points="113.86 236.71 113.86 142.31 227.71 186.88 227.71 281.28 113.86 236.71"/><ellipse class="cls-18" cx="113.86" cy="192.82" rx="3.45" ry="51.05"/><polygon class="cls-19" points="113.86 235.15 113.86 236.71 0.01 281.28 0.01 279.71 113.86 235.15"/><polygon class="cls-20" points="113.86 236.71 113.86 235.78 227.71 280.34 227.71 281.28 113.86 236.71"/><polygon class="cls-21" points="113.85 236.7 227.71 281.27 113.85 320.01 113.85 236.7"/><polygon class="cls-22" points="113.85 236.7 0 281.27 113.85 320.01 113.85 236.7"/><polygon class="cls-23" points="0 281.27 0.58 281.05 113.85 319.59 113.85 320.01 0 281.27"/><polygon class="cls-24" points="227.71 281.27 227.13 281.05 113.85 319.59 113.85 320.01 227.71 281.27"/><polygon class="cls-25" points="113.86 142.31 227.71 186.88 227.71 202.96 113.86 158.4 113.86 142.31"/><polygon class="cls-26" points="0.01 186.88 113.86 142.31 113.86 158.77 0.01 203.34 0.01 186.88"/></g></g><polygon class="cls-27" points="247.21 50.2 119.01 0 94.22 24.36 111.89 57.73 0.23 95.73 0.01 95.65 0.01 190.04 113.86 234.61 227.71 190.04 227.71 173.92 287.45 197.31 287.45 197.31 312.25 172.95 247.21 50.2"/><polygon class="cls-28" points="118.72 33.96 233.54 69.01 281.41 177.59 163.86 134.41 118.72 33.96"/><polygon class="cls-29" points="119.01 0 94.22 24.36 159.25 147.11 184.04 122.75 119.01 0"/><polygon class="cls-30" points="184.04 122.75 159.25 147.11 287.45 197.31 312.25 172.95 184.04 122.75"/><polygon class="cls-31" points="247.21 50.2 222.42 74.57 287.45 197.31 312.25 172.95 247.21 50.2"/><polygon class="cls-32" points="222.81 74.18 222.42 74.57 287.45 197.31 287.85 196.93 222.81 74.18"/><polygon class="cls-33" points="94.61 24 94.22 24.39 159.25 147.13 159.64 146.75 94.61 24"/><polygon class="cls-34" points="159.99 146.38 159.25 147.11 287.45 197.31 288.2 196.58 159.99 146.38"/><polygon class="cls-35" points="119.01 0 94.22 24.36 222.42 74.57 247.21 50.2 119.01 0"/><path class="cls-36" d="M246.06,61.3c-8.62,8.49-16.09,14.89-16.68,14.29s5.94-8,14.56-16.44S260,44.26,260.61,44.86,254.68,52.81,246.06,61.3Z" transform="translate(-7.86)"/><polygon class="cls-37" points="94.96 23.63 94.22 24.36 222.42 74.57 223.17 73.84 94.96 23.63"/><polygon class="cls-38" points="113.86 140.21 113.86 234.61 0.01 190.04 0.01 95.65 113.86 140.21"/><polygon class="cls-39" points="113.86 140.21 113.86 234.61 227.71 190.04 227.71 95.65 113.86 140.21"/><ellipse class="cls-40" cx="113.86" cy="184.1" rx="3.45" ry="51.05"/><polygon class="cls-41" points="113.86 141.78 113.86 140.21 0.01 95.65 0.01 97.21 113.86 141.78"/><polygon class="cls-42" points="113.86 140.21 113.86 141.15 227.71 96.58 227.71 95.65 113.86 140.21"/><polygon class="cls-43" points="113.85 140.22 227.71 95.65 113.85 56.91 113.85 140.22"/><polygon class="cls-44" points="113.85 140.22 0 95.65 113.85 56.91 113.85 140.22"/><polygon class="cls-45" points="0 95.65 0.58 95.88 113.85 57.33 113.85 56.91 0 95.65"/><polygon class="cls-46" points="227.71 95.65 227.13 95.88 113.85 57.33 113.85 56.91 227.71 95.65"/><polygon class="cls-47" points="113.86 234.61 227.71 190.04 227.71 173.96 113.86 218.52 113.86 234.61"/><polygon class="cls-48" points="0.01 190.04 113.86 234.61 113.86 218.15 0.01 173.58 0.01 190.04"/><path class="cls-49" d="M29.71,141.76a6.71,6.71,0,0,1-1.41-2.18,5.93,5.93,0,0,1-.42-2.52,3.78,3.78,0,0,1,.64-2.09,2.53,2.53,0,0,1,1.56-1,3.75,3.75,0,0,1,2.14.27,5.79,5.79,0,0,1,1.77,1.1A6.22,6.22,0,0,1,35.28,137l-1.19.74A3.69,3.69,0,0,0,32.23,136a2.11,2.11,0,0,0-1.28-.15,1.47,1.47,0,0,0-.91.64,2.54,2.54,0,0,0-.38,1.31,3.74,3.74,0,0,0,.24,1.55,3.86,3.86,0,0,0,.82,1.33,3.48,3.48,0,0,0,1.24.85,1.81,1.81,0,0,0,2-.26L35,142.87a2.3,2.3,0,0,1-1.4.61,4,4,0,0,1-1.82-.31A6,6,0,0,1,29.71,141.76Z" transform="translate(-7.86)"/><path class="cls-49" d="M36.94,144.17a5.63,5.63,0,0,1-.77-3.29L36.4,136l1.77.7-.23,4.76c-.08,1.55.45,2.55,1.58,3a1.21,1.21,0,0,0,1.29-.06,2.2,2.2,0,0,0,.52-1.59l.23-4.77,1.74.69-.23,4.85a3.11,3.11,0,0,1-1,2.56,2.66,2.66,0,0,1-2.59,0A5,5,0,0,1,36.94,144.17Z" transform="translate(-7.86)"/><path class="cls-49" d="M45.39,148.28A6.68,6.68,0,0,1,44.07,147l.67-1.27a6.66,6.66,0,0,0,1.13,1.12,5.61,5.61,0,0,0,1.34.78,1.89,1.89,0,0,0,1.12.19.52.52,0,0,0,.39-.53.91.91,0,0,0-.19-.6,2.63,2.63,0,0,0-.52-.54c-.22-.17-.52-.38-.89-.63a16.49,16.49,0,0,1-1.4-1,4,4,0,0,1-.92-1.13,3,3,0,0,1-.33-1.54,2,2,0,0,1,.43-1.22,1.6,1.6,0,0,1,1.13-.54,3.83,3.83,0,0,1,1.78.34,7.23,7.23,0,0,1,1.42.76,6.77,6.77,0,0,1,1.19,1.06l-.62,1.3A5.85,5.85,0,0,0,47.72,142a1.69,1.69,0,0,0-1.1-.16.57.57,0,0,0-.39.58,1.05,1.05,0,0,0,.38.82,8.79,8.79,0,0,0,1.22.92c.57.39,1,.73,1.4,1a4,4,0,0,1,.92,1.12,2.79,2.79,0,0,1,.33,1.53,2,2,0,0,1-.43,1.21,1.63,1.63,0,0,1-1.14.54,4,4,0,0,1-1.79-.35A7.62,7.62,0,0,1,45.39,148.28Z" transform="translate(-7.86)"/><path class="cls-49" d="M53.37,144.43l-2.44-1,.08-1.63,6.64,2.63-.08,1.64-2.44-1-.33,7-1.77-.7Z" transform="translate(-7.86)"/><path class="cls-49" d="M59.64,153.63a6.69,6.69,0,0,1-1.41-2.19,5.94,5.94,0,0,1-.43-2.51,3.78,3.78,0,0,1,.65-2.08,2.54,2.54,0,0,1,1.57-1,3.83,3.83,0,0,1,2.16.27,5.82,5.82,0,0,1,2.1,1.43,6.72,6.72,0,0,1,1.42,2.19,5.92,5.92,0,0,1,.43,2.51,3.74,3.74,0,0,1-.65,2.07,2.55,2.55,0,0,1-1.57,1,3.73,3.73,0,0,1-2.16-.26A6.08,6.08,0,0,1,59.64,153.63Zm3.43-.15a1.48,1.48,0,0,0,.9-.64,2.57,2.57,0,0,0,.38-1.31,4.11,4.11,0,0,0-.24-1.56,4.05,4.05,0,0,0-.81-1.32,3.13,3.13,0,0,0-1.2-.83,2,2,0,0,0-1.24-.13,1.48,1.48,0,0,0-.9.64,2.63,2.63,0,0,0-.38,1.31,3.91,3.91,0,0,0,.25,1.55,3.81,3.81,0,0,0,.8,1.33,3.37,3.37,0,0,0,1.2.83A2,2,0,0,0,63.07,153.48Z" transform="translate(-7.86)"/><path class="cls-49" d="M74.18,159.84l.24-5.2L72,158l-.79-.32-2-5-.24,5.07-1.66-.65.42-8.65,1.45.58,2.6,6.5,3.06-4.26,1.45.58-.4,8.65Z" transform="translate(-7.86)"/><path class="cls-49" d="M32.88,150.14a4.46,4.46,0,0,1,1.1,1.54,4.07,4.07,0,0,1,.32,1.83,2.58,2.58,0,0,1-.48,1.5,1.66,1.66,0,0,1-1.2.63,3.67,3.67,0,0,1-1.77-.32l-1.54-.61-.11,2.39-1.76-.7.41-8.65,3.3,1.31A5.52,5.52,0,0,1,32.88,150.14Zm-.83,3.6a1,1,0,0,0,.47-.94,2,2,0,0,0-.36-1.28,2.56,2.56,0,0,0-1.19-.87l-1.44-.57-.14,3,1.44.57A1.49,1.49,0,0,0,32.05,153.74Z" transform="translate(-7.86)"/><path class="cls-49" d="M40,159.5l-3.53-1.4-.77,1.58-1.8-.71,3.81-7.31,1.74.7,3,10-1.85-.73Zm-.48-1.74L38.48,154l-1.36,2.83Z" transform="translate(-7.86)"/><path class="cls-49" d="M44.69,162.81a6.68,6.68,0,0,1-1.4-2.18,5.93,5.93,0,0,1-.43-2.52,3.81,3.81,0,0,1,.65-2.09,2.5,2.5,0,0,1,1.56-1,3.76,3.76,0,0,1,2.14.27,5.79,5.79,0,0,1,1.77,1.1,6.38,6.38,0,0,1,1.29,1.67l-1.19.74A3.67,3.67,0,0,0,47.21,157a2.08,2.08,0,0,0-1.27-.15,1.47,1.47,0,0,0-.92.64,2.53,2.53,0,0,0-.37,1.31,3.78,3.78,0,0,0,.24,1.56,3.89,3.89,0,0,0,.81,1.32,3.39,3.39,0,0,0,1.25.85,1.76,1.76,0,0,0,2-.26L50,163.92a2.34,2.34,0,0,1-1.41.62,4,4,0,0,1-1.81-.32A5.91,5.91,0,0,1,44.69,162.81Z" transform="translate(-7.86)"/><path class="cls-49" d="M54,163.49,53,164.3l-.1,2.18-1.75-.69.41-8.65,1.75.7-.19,4,3.56-2.71,2,.78-3.34,2.6,3.11,6.12-2-.81Z" transform="translate(-7.86)"/><path class="cls-49" d="M63.92,169l-3.53-1.4-.77,1.59-1.8-.72,3.81-7.3,1.74.69,3,10-1.85-.73Zm-.48-1.73-1-3.79L61,166.29Z" transform="translate(-7.86)"/><path class="cls-49" d="M72.4,169.69l1.61.64-.17,3.51a3.3,3.3,0,0,1-1.47.25,5.17,5.17,0,0,1-1.66-.37,6.06,6.06,0,0,1-2.1-1.42,6.44,6.44,0,0,1-1.41-2.19,5.92,5.92,0,0,1-.43-2.51,3.76,3.76,0,0,1,.65-2.09,2.44,2.44,0,0,1,1.57-1,3.82,3.82,0,0,1,2.18.28,5.93,5.93,0,0,1,1.8,1.1,6.12,6.12,0,0,1,1.32,1.66l-1.19.73a3.92,3.92,0,0,0-1.92-1.75,2.24,2.24,0,0,0-1.31-.17,1.46,1.46,0,0,0-.93.62,2.57,2.57,0,0,0-.39,1.32,3.93,3.93,0,0,0,.25,1.56,3.89,3.89,0,0,0,.83,1.33,3.38,3.38,0,0,0,1.26.86,2.4,2.4,0,0,0,1.39.17Z" transform="translate(-7.86)"/><path class="cls-49" d="M75.84,166.79l1.76.7-.41,8.65-1.76-.7Z" transform="translate(-7.86)"/><path class="cls-49" d="M86.39,171,86,179.62l-1.45-.57L81,172.29l-.25,5.25L79,176.85l.41-8.64,1.46.57,3.53,6.76.25-5.25Z" transform="translate(-7.86)"/><path class="cls-49" d="M93.14,177.92l1.61.64-.16,3.51a3.23,3.23,0,0,1-1.48.24,5,5,0,0,1-1.66-.36,6.06,6.06,0,0,1-2.1-1.42,6.75,6.75,0,0,1-1.41-2.19,5.92,5.92,0,0,1-.43-2.51,3.76,3.76,0,0,1,.65-2.09,2.47,2.47,0,0,1,1.57-1,3.86,3.86,0,0,1,2.19.28A6.14,6.14,0,0,1,95,175.77l-1.19.74a4,4,0,0,0-1.92-1.76,2.3,2.3,0,0,0-1.31-.16,1.46,1.46,0,0,0-.93.62,2.48,2.48,0,0,0-.38,1.32,3.76,3.76,0,0,0,.24,1.56,3.89,3.89,0,0,0,.83,1.33,3.58,3.58,0,0,0,1.26.86,2.4,2.4,0,0,0,1.39.17Z" transform="translate(-7.86)"/><path class="cls-49" d="M31.83,171.36,28.29,170l-.76,1.58-1.81-.71,3.81-7.3,1.74.69,3,10-1.85-.73Zm-.48-1.74-1.05-3.79-1.37,2.83Z" transform="translate(-7.86)"/><path class="cls-49" d="M42.38,168.62,38.67,176l-1.74-.69-2.87-10,1.9.76,2,7.09,2.65-5.24Z" transform="translate(-7.86)"/><path class="cls-49" d="M47.45,177.56l-3.54-1.41-.76,1.59L41.34,177l3.81-7.3,1.74.69,3,10L48,179.68ZM47,175.82l-1-3.79-1.37,2.83Z" transform="translate(-7.86)"/><path class="cls-49" d="M51.09,172.08l1.76.7-.41,8.65-1.76-.7Z" transform="translate(-7.86)"/><path class="cls-49" d="M54.66,173.49l1.76.7-.33,7,3.81,1.51-.08,1.64-5.58-2.22Z" transform="translate(-7.86)"/><path class="cls-49" d="M66,184.91l-3.53-1.4-.77,1.58-1.8-.71,3.81-7.3,1.74.69,3,10L66.57,187Zm-.48-1.74-1-3.79-1.36,2.83Z" transform="translate(-7.86)"/><path class="cls-49" d="M76,187a3.09,3.09,0,0,1,.31,1.5,1.43,1.43,0,0,1-.86,1.44,3.34,3.34,0,0,1-2.3-.29l-3.94-1.56.42-8.65,3.72,1.48a5,5,0,0,1,2.11,1.45,2.83,2.83,0,0,1,.66,1.94,1.84,1.84,0,0,1-.32,1,1.19,1.19,0,0,1-.78.48A3.39,3.39,0,0,1,76,187Zm-4.69-5.36-.1,2,1.75.7a1.53,1.53,0,0,0,1,.13.63.63,0,0,0,.38-.63,1.33,1.33,0,0,0-.3-.9,2.53,2.53,0,0,0-1-.64Zm2.84,6.61c.25-.08.38-.3.4-.66,0-.72-.42-1.26-1.36-1.63l-2-.82-.1,2.14,2,.81A1.64,1.64,0,0,0,74.15,188.24Z" transform="translate(-7.86)"/><path class="cls-49" d="M78,182.73l1.76.7-.34,7L83.19,192l-.08,1.63-5.58-2.21Z" transform="translate(-7.86)"/><path class="cls-49" d="M90.08,194.72,90,196.33,84.1,194l.42-8.65,5.75,2.28-.07,1.61-4-1.59-.09,1.88,3.54,1.4-.08,1.56L86,191.07l-.1,2Z" transform="translate(-7.86)"/><path class="cls-49" d="M91.34,196.63a1.6,1.6,0,0,1-.26-.92.81.81,0,0,1,.33-.67.8.8,0,0,1,.77,0,1.49,1.49,0,0,1,.73.61,1.45,1.45,0,0,1,.26.9.8.8,0,0,1-.34.68.78.78,0,0,1-.76,0A1.56,1.56,0,0,1,91.34,196.63Zm.14-8.53,2,.8-.6,5.52-1.35-.54Z" transform="translate(-7.86)"/><polygon class="cls-49" points="26.57 131.1 26.95 123.12 81.86 144.9 81.48 152.89 83.49 153.69 83.99 143.41 25.04 120.03 24.55 130.3 26.57 131.1"/><polygon class="cls-49" points="79.25 199.28 78.87 207.26 23.96 185.48 24.34 177.5 22.33 176.69 21.83 186.97 80.77 210.35 81.27 200.08 79.25 199.28"/><path class="cls-49" d="M148.77,168.31l0,3.37L146,172.76l0-3.4-3-4.66,2.89-1.14,1.63,2.55,1.71-3.87,2.65-1.05Z" transform="translate(-7.86)"/><path class="cls-49" d="M153.72,169.29a2.42,2.42,0,0,1-1.62-1.07,4,4,0,0,1-.57-2.27,6.66,6.66,0,0,1,.62-2.73,7.82,7.82,0,0,1,1.65-2.38,6.9,6.9,0,0,1,2.37-1.55,4.22,4.22,0,0,1,2.35-.32,2.45,2.45,0,0,1,1.62,1.08,4,4,0,0,1,.57,2.27,6.85,6.85,0,0,1-.61,2.73,8.16,8.16,0,0,1-1.66,2.38,6.9,6.9,0,0,1-2.37,1.55A4.12,4.12,0,0,1,153.72,169.29ZM157,165.8a3.65,3.65,0,0,0,.92-2.39,2.31,2.31,0,0,0-.24-1.13,1.07,1.07,0,0,0-.65-.54,1.31,1.31,0,0,0-.92.08,2.39,2.39,0,0,0-.92.65,3.41,3.41,0,0,0-.67,1.07,3.6,3.6,0,0,0-.25,1.32,2.21,2.21,0,0,0,.23,1.13,1.07,1.07,0,0,0,.65.54,1.31,1.31,0,0,0,.92-.08A2.5,2.5,0,0,0,157,165.8Z" transform="translate(-7.86)"/><path class="cls-49" d="M162.65,165.23a3.22,3.22,0,0,1-1-2.82l.05-5.1,2.74-1.08-.05,5a2.08,2.08,0,0,0,.31,1.36.78.78,0,0,0,.92.1,1.83,1.83,0,0,0,.93-.83,3.55,3.55,0,0,0,.33-1.61l0-5,2.69-1.07,0,5.1a6.56,6.56,0,0,1-1.08,3.65,6.21,6.21,0,0,1-2.93,2.31A3,3,0,0,1,162.65,165.23Z" transform="translate(-7.86)"/><path class="cls-49" d="M174.29,159.24l-.74.29,0,2.33L170.78,163l.09-9.27,3.92-1.56a4.27,4.27,0,0,1,2-.35,1.75,1.75,0,0,1,1.28.71,2.78,2.78,0,0,1,.43,1.67,4.57,4.57,0,0,1-.41,1.9,5.45,5.45,0,0,1-1.15,1.63l1.68,2.18L175.65,161Zm1.14-4.68a1,1,0,0,0-.84,0l-1,.4,0,2.17,1-.39a1.89,1.89,0,0,0,.84-.62,1.59,1.59,0,0,0,.29-.91A.75.75,0,0,0,175.43,154.56Z" transform="translate(-7.86)"/><path class="cls-49" d="M183,148.87l2.74-1.09-.06,6.85,3.67-1.46,0,2.43-6.42,2.54Z" transform="translate(-7.86)"/><path class="cls-49" d="M191.9,154.18a2.43,2.43,0,0,1-1.62-1.08,3.89,3.89,0,0,1-.57-2.26,6.61,6.61,0,0,1,.61-2.73,7.73,7.73,0,0,1,1.66-2.38,7.14,7.14,0,0,1,2.36-1.56,4.15,4.15,0,0,1,2.36-.31,2.47,2.47,0,0,1,1.62,1.08,3.89,3.89,0,0,1,.57,2.26,6.62,6.62,0,0,1-.62,2.73,7.7,7.7,0,0,1-1.65,2.38,7.08,7.08,0,0,1-2.37,1.56A4.2,4.2,0,0,1,191.9,154.18Zm3.3-3.49a3.53,3.53,0,0,0,.67-1.07,3.6,3.6,0,0,0,.25-1.32,2.19,2.19,0,0,0-.23-1.13,1.09,1.09,0,0,0-.65-.55,1.43,1.43,0,0,0-.92.08,2.62,2.62,0,0,0-.93.65,3.51,3.51,0,0,0-.66,1.07,3.61,3.61,0,0,0-.26,1.32,2.41,2.41,0,0,0,.23,1.13,1.09,1.09,0,0,0,.65.55,1.46,1.46,0,0,0,.93-.08A2.5,2.5,0,0,0,195.2,150.69Z" transform="translate(-7.86)"/><path class="cls-49" d="M205.27,144.42l2.39-.94,0,3.92a9.18,9.18,0,0,1-1.68,1.54,8.86,8.86,0,0,1-1.88,1,4,4,0,0,1-2.33.31,2.37,2.37,0,0,1-1.6-1.08,4,4,0,0,1-.57-2.28,7,7,0,0,1,.61-2.74,7.64,7.64,0,0,1,1.66-2.37,7.22,7.22,0,0,1,2.38-1.56,4.9,4.9,0,0,1,2.14-.39,2.46,2.46,0,0,1,1.57.71L206.14,143a1.58,1.58,0,0,0-1.81-.3,3,3,0,0,0-1.45,1.19,3.53,3.53,0,0,0-.55,1.91,1.78,1.78,0,0,0,.51,1.47,1.33,1.33,0,0,0,1.41.08,3.67,3.67,0,0,0,1-.62Z" transform="translate(-7.86)"/><path class="cls-49" d="M210.7,146.74a2.47,2.47,0,0,1-1.63-1.08,3.91,3.91,0,0,1-.57-2.26,6.87,6.87,0,0,1,.62-2.74,7.64,7.64,0,0,1,1.66-2.37,7,7,0,0,1,2.36-1.56,4.15,4.15,0,0,1,2.36-.31,2.47,2.47,0,0,1,1.62,1.08,3.89,3.89,0,0,1,.57,2.26,6.78,6.78,0,0,1-.62,2.73,7.7,7.7,0,0,1-1.65,2.38,7.18,7.18,0,0,1-2.37,1.56A4.21,4.21,0,0,1,210.7,146.74Zm3.3-3.49a3.53,3.53,0,0,0,.67-1.07,3.7,3.7,0,0,0,.25-1.33,2.17,2.17,0,0,0-.23-1.12,1.09,1.09,0,0,0-.65-.55,1.37,1.37,0,0,0-.92.08,2.5,2.5,0,0,0-.93.65,3.22,3.22,0,0,0-.66,1.07,3.41,3.41,0,0,0-.26,1.32,2.32,2.32,0,0,0,.23,1.13,1.12,1.12,0,0,0,.65.55,1.43,1.43,0,0,0,.92-.08A2.76,2.76,0,0,0,214,143.25Z" transform="translate(-7.86)"/><path class="cls-49" d="M159.19,172.62l-.18,19-5.63,2.23.07-7-5.21,2.06-.06,7-5.64,2.23.18-19,5.64-2.23-.07,6.75,5.21-2.06.06-6.75Z" transform="translate(-7.86)"/><path class="cls-49" d="M175.67,180.24l0,4.84-13.9,5.5.18-19,13.59-5.38-.05,4.85-8,3.18,0,2.23,7.07-2.8,0,4.63-7.07,2.8,0,2.5Z" transform="translate(-7.86)"/><path class="cls-49" d="M185,176.6l-1.53.6,0,4.79-5.63,2.23.18-19,8-3.18a8.58,8.58,0,0,1,4-.73,3.61,3.61,0,0,1,2.63,1.45,5.71,5.71,0,0,1,.89,3.44,9.61,9.61,0,0,1-.84,3.89,10.92,10.92,0,0,1-2.37,3.34l3.46,4.49-6,2.38Zm2.32-9.61a1.93,1.93,0,0,0-1.71.1l-2.05.81,0,4.46,2.06-.81a3.69,3.69,0,0,0,1.72-1.26,3.23,3.23,0,0,0,.59-1.88A1.54,1.54,0,0,0,187.33,167Z" transform="translate(-7.86)"/><path class="cls-49" d="M209.52,166.84l0,4.84-13.9,5.5.18-19,13.59-5.38,0,4.85-8.05,3.18,0,2.23,7.07-2.8,0,4.63-7.07,2.8,0,2.5Z" transform="translate(-7.86)"/><path class="cls-49" d="M211,152.11l6.45-2.55-1.19,12.18-4.3,1.7Zm.78,18a2.18,2.18,0,0,1-.86-2,4.59,4.59,0,0,1,.91-2.65,5,5,0,0,1,2.27-1.81,2.4,2.4,0,0,1,2.26,0,2.08,2.08,0,0,1,.86,1.95,4.8,4.8,0,0,1-.9,2.66,5,5,0,0,1-2.28,1.85A2.31,2.31,0,0,1,211.77,170.09Z" transform="translate(-7.86)"/><polygon class="cls-49" points="130.64 166.93 130.71 160.07 214.29 126.98 214.22 133.84 216.87 132.79 216.96 122.91 128.09 158.1 128 167.97 130.64 166.93"/><polygon class="cls-49" points="213.91 166.44 213.85 173.3 130.27 206.39 130.34 199.53 127.69 200.58 127.59 210.45 216.47 175.27 216.56 165.39 213.91 166.44"/></g></g></g></svg>